<?xml version="1.0" encoding="utf-8"?>
<!-- Generator: Adobe Illustrator 23.0.4, SVG Export Plug-In . SVG Version: 6.00 Build 0)  -->
<svg version="1.1" id="Calque_1" xmlns="http://www.w3.org/2000/svg" xmlns:xlink="http://www.w3.org/1999/xlink" x="0px" y="0px"
	 viewBox="0 0 500 500" style="enable-background:new 0 0 500 500;" xml:space="preserve">
<style type="text/css">
	.st0{fill:#DB0029;}
	.st1{fill:#FFFFFF;}
</style>
<title>euro</title>
<path class="st0" d="M99.2,228.2"/>
<path class="st0" d="M94.1,228.2h1.4H94.1z"/>
<path class="st0" d="M96.7,228.2h1.8H96.7z"/>
<path class="st1" d="M445.2,329c-0.6-0.4-1.2-0.8-1.8-1.1c-15.9-7.4-35-10.1-52.4-11.6c-1.4-0.1-2.8,0.1-4.2,0.6h-0.1
	c-0.1,0-0.2,0.1-0.3,0.1c-18-0.9-19.3,15.3-19.3,15.3c-2,9.2-4,18.6-6.7,27.8c-2.5,9.2-6.1,18-10.5,26.4
	c-3.3,6.2-7.6,11.8-12.7,16.6c-19.6,11.6-44.1,8.3-62.1-12.8c-6.5-7.8-12.3-16.2-17.4-25c22.7-7.9,46.8-18.1,64.5-33
	c12.5-8.5,23-18.7,29.5-31.4c0.3-0.5,0.5-1.1,0.5-1.8c0-0.1,0-0.3,0-0.4c2.1-16.4-6.2-38.1-24.3-40.8c-1.9-0.2-3.9-0.1-5.8,0.3
	c-3-0.5-6.1,0.3-8.6,2c-2.7,2.1-5.5,4.2-8.3,6.3c-0.4,0.2-0.7,0.4-1.1,0.7c-2.3,1.8-4.7,3.6-7.1,5.4c-0.4,0.3-0.9,0.6-1.3,1
	c-18.5,13.5-39,26.9-60.4,37.2c-4.2-14.3-7.5-28.8-9.8-43.5c-0.1-0.4-0.1-0.9-0.2-1.3c26.2-8,51.5-18.8,75.4-32.2
	c0.5-0.3,1.1-0.6,1.6-1c1.7-0.6,3.3-1.4,4.9-2.3c2.5-1.5,5.2-3.6,6-6.2c0,0,0-0.1,0-0.1c0-0.1,0.1-0.1,0.1-0.2v0.1v-0.1
	c0,0,0-0.1,0-0.1c0-0.1,0.1-0.3,0.1-0.4v-0.1c0-0.3-0.2-0.6-0.5-0.8c0.1-0.3,0.2-0.7,0.3-1.1c1.1-17.4-11-33.1-24.4-42.9
	c-2-1.5-5.6-1.3-8.8-0.3c-7.2,1.3-13.5,8.4-15.1,10.5c-0.2,0.2-0.4,0.4-0.5,0.6c-0.1,0.1-0.2,0.3-0.4,0.4
	c-6.3,6.9-13.2,13.4-20.5,19.2c-7,4.9-14.4,9.4-22.1,13.2c-0.6-28.8,2.7-57.5,10-85.4c3.2-12.2,8.1-27.6,16.1-36.8
	c7.1-2.8,15.9-1.2,26.9,7.8c15.5,12.8,25.3,32.1,39.4,46.4c1.7,1.7,6.7,1.1,10.9-0.6c0.4-0.1,0.8-0.2,1.2-0.4
	c15.5-5.6,29.6-14.4,42.6-24.8c14.6-10.3,27.8-22.8,40-35.6l0.1-0.1c0.7-0.5,1.3-1.2,1.8-1.9l2.3-2.5c5.2-1.4,9.7-5.4,6.9-9.4
	C381.3,25,312-15.8,245,6c-13.3,4.3-25.7,11.1-36.4,20.1c0,0-0.1,0-0.1,0.1c-40.5,27.1-58.9,78.6-68,125.8
	c-5.4,28.4-7.9,57.3-7.5,86.2c-12.4-1.6-24.5-4.8-36-9.6c-0.9-0.3-1.8-0.5-2.8-0.5h-0.1c-0.1,0-0.2,0-0.3,0l0,0
	c-13.2,0.2-23.1,12-23.1,12c-0.6,0.4-1.2,1-1.6,1.6c-8.2,12.9-5.2,24.6,4.9,35.2l0.1,0.1c0.3,0.6,1.1,1,2.8,1.2
	c19.5,2.5,39.2,3.4,58.8,2.7c1.7,14.7,4.2,29.3,7.5,43.7c-14.3-3.8-28.2-11.3-41.4-23.3c-1-0.9-2.3-1.4-3.6-1.6l0.1-0.1
	c-0.1,0-0.2,0-0.3,0c-0.1,0-0.1,0-0.2,0c-1-0.1-2.1-0.1-3.1,0c0,0-0.1,0-0.1,0c0,0,0,0,0,0c-13.1,0.6-18.5,9.4-20.3,13.1
	c-0.3,0.4-0.5,0.8-0.6,1.3c-0.1,0.2-0.1,0.4-0.1,0.4h0.1c-2.2,15.8-8.1,34.5,5.8,46.4c0,0,0,0.1,0.1,0.1c0.1,0.2,0.2,0.3,0.4,0.4
	c24.8,19.5,54.1,26.4,83.9,25.5c3.4,7.9,7.1,15.6,11.1,23.1c28.9,54,82.4,100.3,147.5,88c19-3.6,36.8-12,51.6-24.4l0,0
	c44.2-29.8,66.9-88.7,73.3-140.4C447.6,331.5,446.8,329.8,445.2,329z M218.1,318c-0.9,0.4-1.8,0.7-2.7,1c0.5-1.5,1.1-2.9,1.8-4.3
	C217.4,315.8,217.8,316.9,218.1,318L218.1,318z M208.1,315.3c-2.1,2.4-3.8,5-5.3,7.8c-2.9,0.8-5.9,1.5-8.8,2.1l5.3-9.9
	c-0.4,0.8-3.5,0.2-4,1.1l-5.1,9.7c-2.5,0.5-4.9,0.8-7.4,1.1l5.2-8.2c-0.5,0.8-3.4,0.2-3.9,1.1l-4.8,7.5c-1.5,0.1-2.9,0.2-4.4,0.3
	l-0.7-2.6c2.2-5.2,5.2-10.1,8.9-14.5c-0.7,0.8-3.2,0.2-4,1.1c-2.3,2.7-4.3,5.7-6.1,8.8c-0.6-2.3-1.1-4.5-1.6-6.8
	c2.3-6.4,5.5-12.5,9.4-18.1c-0.6,0.8-3.4,0.2-4,1.1c-2.5,3.7-4.7,7.5-6.6,11.5c-0.7-3-1.3-5.9-1.8-8.9c2.1-5.5,5.1-10.7,8.8-15.3
	c-0.7,0.9-3.3,0.2-4,1.1c-2.2,2.8-4.2,5.8-5.9,8.9c-0.2-1.2-0.4-2.4-0.6-3.5c1.9-4.5,3.8-8.9,5.7-13.4c-0.3,0.8-3.6,0.3-4,1.1
	l-2.7,6.4c-0.3-2-0.6-3.9-0.9-5.9s-0.6-3.9-0.8-5.9c14.3-1.3,28.5-3.5,42.6-6.6c0.8,5.3,1.6,10.6,2.7,15.9c1.6,8.3,3.8,18,6.6,28.4
	c-1.8,3.2-3.4,6.6-4.6,10.1c-1.2,0.4-2.4,0.8-3.6,1.2l-1,0.3c1.5-2.8,3.2-5.3,5.3-7.7C211.3,315.1,208.8,314.4,208.1,315.3
	L208.1,315.3z M292.2,226.7c0.7-3.3,1.6-6.7,2.5-10c0.4,2.1,0.6,4.3,0.4,6.5c-0.1,0.6,0,1.2,0.3,1.8
	C294.3,225.6,293.2,226.2,292.2,226.7L292.2,226.7z M194.2,65.7c7.2-12.7,15.5-22.8,24.7-30.6c0,0,0,0,0.1-0.1
	c55.4-47.2,139.7-9.2,182.4,49.3c-3.5,3.9-7.2,7.9-11,12l2.8-7.1c-0.3,0.7-3.6,0.3-4,1.1l-4.8,12.2c-4,4-8,8-12.2,11.8l-0.5,0.5
	c2.1-4.9,4.6-9.6,7.6-14c-0.6,0.8-3.4,0.2-4,1.1c-3.7,5.4-6.8,11.3-9,17.6c-3.6,3-7.2,5.9-11,8.6c4-6.8,8.1-13.6,12.1-20.4
	c-0.5,0.8-3.5,0.2-4,1.1l-13.7,23.1c0.1-0.2,0.3-0.3,0.5-0.3c-3,2-6.1,3.8-9.2,5.4c2.3-6.5,5.8-12.5,10.4-17.6
	c-0.7,0.8-3.2,0.2-4,1.1c-4.5,5.1-8,11.1-10.3,17.5c-1.6-1.7-3.2-3.5-4.8-5.4c2-3.5,3.8-7.1,5.4-10.8c-0.3,0.7-3.6,0.3-4,1.1
	c-1,2.5-2.2,5-3.5,7.4c-1.7-1.9-3.4-4-5.1-6c3.3-6.1,7.1-11.9,11.3-17.4c-0.6,0.8-3.3,0.2-4,1.1c-3.4,4.5-6.6,9.1-9.4,14
	c-1.8-2.1-3.7-4.3-5.6-6.4l8.6-14.5c-0.5,0.8-3.5,0.2-4,1.1l-6.5,11.1c-2.8-3.2-5.7-6.4-8.7-9.4c2.3-4.1,4.9-8.1,7.8-11.9
	c-0.6,0.8-3.3,0.2-4,1.1c-2.1,2.8-4.1,5.7-5.9,8.7c-2.2-2.1-4.4-4.2-6.6-6.1c2.5-3.8,5.3-7.3,8.4-10.6c-0.8,0.8-3.1,0.2-4,1.1
	c-2.4,2.4-4.5,5-6.5,7.8c-1.6-1.3-3.3-2.6-5-3.8c1.9-3,4-5.8,6.3-8.4c-0.7,0.8-3.2,0.2-4,1.1c-1.6,1.9-3.2,3.8-4.6,5.8
	c-2.9-1.9-5.9-3.6-9-5l4.4-5.7c-0.6,0.8-3.3,0.2-4,1.1l-2.8,3.7c-2.6-1-5.3-1.7-8-2.2l3.4-4.7c-0.6,0.8-3.3,0.2-4,1.1l-2.4,3.3
	c-1-0.1-2-0.1-3-0.1c-8.8,0-17.9,3.3-27.5,11.3c-0.6,0.5-1.2,1-1.8,1.6c-20.7,19.3-25.1,61.4-28.4,87.4c-1.8,15.1-2.6,30.2-2.2,45.4
	c-1.3,1.9-2.4,3.9-3.4,6c-2,0.7-3.9,1.3-5.9,1.9l-1,0.3c1.8-3.8,4.3-7.3,7.3-10.3c-0.8,0.8-3.1,0.2-4,1.1c-3,3-5.5,6.5-7.3,10.4
	c-1.3,0.4-2.6,0.7-4,1l7-10.2c-0.6,0.8-3.4,0.2-4,1.1c-2.3,3.3-4.6,6.7-6.9,10c-1.7,0.4-3.3,0.7-5,1c2.2-2.6,4.1-5.4,5.7-8.4
	c-0.1,0.2-1.7,0.4-2,0.5s-1.8,0.2-2,0.6c-1.5,2.8-3.3,5.4-5.2,7.9c-2,0.3-3.9,0.6-5.9,0.8l7.4-10.8c-0.6,0.8-3.4,0.2-4,1.1
	l-6.7,10.1l-2.4,0.2c-0.1-1.2-0.1-2.4-0.2-3.6l9.4-14.9c-0.5,0.8-3.4,0.2-4,1.1c-1.9,3-3.8,6-5.6,8.9c-0.1-3.2-0.2-6.4-0.2-9.6
	c2-3.6,4.1-7.2,6.5-10.7c-0.6,0.8-3.4,0.2-4,1.1c-0.9,1.3-1.7,2.7-2.6,4.1c0-2.6,0-5.2,0.1-7.8c2.6-4.7,5.6-9.2,8.9-13.4
	c-0.6,0.9-3.3,0.2-4,1.1c-1.6,2.1-3.2,4.3-4.6,6.6c0.1-3.1,0.2-6.1,0.4-9.2l7-12.3c-0.5,0.8-3.5,0.2-4,1.1l-2.6,4.6
	c0.2-2.9,0.4-5.7,0.7-8.6c1.9-3.3,3.9-6.6,5.9-9.8c-0.5,0.8-3.4,0.2-4,1.1c-0.4,0.7-0.8,1.4-1.2,2c0.2-2,0.5-4.1,0.7-6.1l7.2-10.6
	c-0.6,0.8-3.4,0.2-4,1.1l-2.4,3.5c0.7-4.4,1.4-8.8,2.2-13.1c1.7-1.8,3.4-3.7,5.1-5.5c-0.8,0.8-3.2,0.2-4,1.1l-0.4,0.4
	C172.4,114.3,181.2,88.6,194.2,65.7L194.2,65.7z M133.6,265.4l5.7-7.8c-0.6,0.9-3.3,0.2-4,1.1l-4.9,6.7c-3.5-0.1-7-0.2-10.5-0.5
	c2.6-3.8,5.6-7.5,8.8-10.8c-0.8,0.8-3.1,0.2-4,1.1c-2.9,3-5.5,6.1-7.9,9.5c-2.5-0.2-5-0.4-7.5-0.6c3.6-3.9,6.9-8.1,9.8-12.5
	c-0.6,0.8-3.4,0.2-4,1.1c-2.6,3.9-5.5,7.6-8.7,11.1c-2.4-0.2-4.8-0.5-7.2-0.8c-0.1-0.1-0.1-0.1-0.2-0.2c2.6-3.9,5.5-7.6,8.6-11.1
	c-0.8,0.8-3.2,0.2-4,1.1c-2.3,2.5-4.4,5.2-6.4,7.9c-0.8-1.1-1.6-2.2-2.3-3.4c1.9-3,3.8-6,5.7-9c-0.5,0.8-3.4,0.2-4,1.1l-3.2,5.1
	c-0.4-0.8-0.7-1.6-1-2.5c-1.1-3.3-1.3-6.8-0.7-10.2c16.4,5.8,33.7,8.9,51.1,9.2c6.1,0.1,12.4-0.1,18.5-0.6
	c14.5-1.3,28.7-4.2,42.5-8.8c6-2,12-4.3,17.8-6.9c11.9-5.3,23.2-11.7,33.8-19.2c6.1-4.2,12-8.8,17.5-13.7c2.9-2.6,5.7-5.2,8.5-7.9
	c4.9,4.8,8.7,10.5,11.4,16.8c-1.9,6.1-3.5,12.2-4.9,18.5l-2.2,1.2c-1.6,0.8-3.3,1.6-4.9,2.4c1.3-4.1,2.9-8.1,4.9-11.9
	c-0.4,0.8-3.5,0.2-4,1.1c-2.1,4.1-3.9,8.4-5.2,12.9c-2.9,1.4-5.7,2.6-8.6,3.9l7.5-15.5c-0.4,0.8-3.6,0.2-4,1.1l-7.8,16.3
	c-2.8,1.1-5.5,2.3-8.3,3.4c2.3-3.2,4.8-6.2,7.5-9c-0.8,0.8-3.1,0.2-4,1.1c-2.9,3-5.5,6.2-7.9,9.6c-2.5,0.9-5,1.8-7.5,2.7
	c1.9-2.1,3.8-4.2,5.7-6.4c-0.8,0.8-3.2,0.2-4,1.1l-6,6.8c-3.9,1.3-7.8,2.5-11.8,3.6l6.2-8.5c-0.6,0.9-3.3,0.2-4,1.1l-6.2,8.5
	c-3,0.8-6,1.6-9,2.3c1.9-2.4,3.7-4.8,5.5-7.2c-0.6,0.9-3.3,0.2-3.9,1.1l-5.4,7c-1.6,0.4-3.3,0.7-4.9,1l-2.1,0.5
	c1.3-1.6,2.6-3.2,3.9-4.8c-0.7,0.8-3.2,0.2-4,1.1l-3.7,4.5c-3,0.6-6.1,1.1-9.1,1.6c1.2-1.7,2.5-3.4,3.9-5c-0.7,0.8-3.2,0.2-3.9,1.1
	c-1.3,1.4-2.4,2.9-3.5,4.5c-4,0.6-8.1,1.1-12.1,1.6c1.4-2.4,3.1-4.8,4.9-6.9c-0.7,0.8-3.2,0.2-4,1.1c-1.7,2-3.1,4-4.5,6.2
	c-2.8,0.3-5.5,0.5-8.3,0.7h-0.6l4.2-4.9c-0.7,0.8-3.2,0.2-4,1.1l-3.5,4c-4.1,0.3-8.2,0.4-12.2,0.5c2.1-2.5,4.4-4.9,6.9-7
	c-1,0.8-3,0.3-4,1.1c-2.2,1.8-4.2,3.8-6.1,6C140.4,265.5,137,265.5,133.6,265.4L133.6,265.4z M184.9,368.8c2.3-4.7,5.1-9.2,8.3-13.4
	c-0.6,0.9-3.3,0.2-4,1.1c-3,3.9-5.7,8.1-7.9,12.5c-4.3,0.2-8.5,0.3-12.8,0.2c-0.7,0-1.5-0.1-2.2-0.1l8.5-12.4
	c-0.6,0.8-3.4,0.2-4,1.1l-7.6,11.1c-5-0.4-9.9-1.1-14.8-2c2.2-4.1,4.7-7.9,7.7-11.5c-0.7,0.8-3.2,0.2-4,1.1
	c-2.5,3.1-4.7,6.3-6.7,9.8c-3.3-0.8-6.6-1.7-9.8-2.8c1.9-3.4,3.8-6.8,5.7-10.1c-0.5,0.8-3.5,0.2-4,1.1c-1.5,2.7-3,5.4-4.5,8.1
	c-2.4-0.9-4.9-1.9-7.2-3l8.5-13.2c-0.5,0.8-3.4,0.2-4,1.1l-7.1,11c-2.7-1.3-5.3-2.8-7.9-4.4c2-3.8,4.3-7.4,6.9-10.8
	c-0.6,0.8-3.3,0.2-4,1.1c-2,2.6-3.7,5.3-5.3,8.1c-1.9-1.3-3.8-2.6-5.7-4l6.7-12.2c-0.4,0.8-3.5,0.2-4,1.1l-5.1,9.2
	c-1.4-1.3-2.7-2.9-3.7-4.5c1.6-3,3.2-6.1,4.8-9.1c-0.4,0.8-3.5,0.2-4,1.1l-2.4,4.6c-0.7-2-1.1-4.1-1.3-6.2
	c-0.3-4.2-0.2-8.4,0.5-12.6c17.6,12.5,38.4,19.6,59.9,20.5c6.5,0.3,13.1,0.2,19.6-0.6c14.4-1.4,29.1-5.2,43.4-10.4V329
	c5.9-2.1,11.6-4.5,17.4-7.1c26.4-12,51.7-28.4,74-44.9c0.4-0.3,0.8-0.6,1.3-0.9c3.2-2.4,6.2-4.7,9.3-7c8.3,6.8,12,22.5,11.1,31.9
	c-3.7,6.8-8.6,12.8-14.5,17.9c1.9-6.6,4-13.2,6.3-19.6c-0.3,0.7-3.7,0.3-4,1.1c-2.7,7.4-5,14.9-7.1,22.4c-1.6,1.2-3.3,2.5-5.1,3.6
	c-1.2,0.8-2.5,1.6-3.7,2.3c2.1-5.6,4.1-11.1,6.2-16.7c-0.3,0.7-3.7,0.3-4,1.1l-6.6,18.2c-3,1.6-6.1,3.2-9.3,4.7
	c1.9-4.6,3.8-9.1,5.8-13.6c-0.3,0.8-3.6,0.3-4,1.1c-2,4.8-4.1,9.7-6.2,14.5c-3.8,1.7-7.6,3.2-11.5,4.7c1.5-4,3.7-7.8,6.5-11.1
	c-0.7,0.8-3.2,0.2-4,1.1c-2.8,3.5-5.1,7.5-6.7,11.7l-9.4,3.5c2-4.5,4.5-8.8,7.4-12.8c-0.6,0.9-3.3,0.2-4,1.1
	c-3,4.2-5.5,8.6-7.6,13.3c-2.1,0.8-4.2,1.6-6.2,2.4c-0.7,0.2-1.3,0.5-2,0.8l-0.8,0.3c2.2-4.1,4.3-8.1,6.5-12.2
	c-0.4,0.8-3.5,0.2-4,1.1l-6.6,12.7c-4.2,1.6-8.5,3.1-12.9,4.5l-3.7,1.1c2.9-4.9,5.8-9.9,8.7-14.8c-0.5,0.8-3.5,0.2-4,1.1l-8.8,15
	c-3.9,1.1-7.9,2.2-11.8,3.1l9.9-14.4c-0.6,0.8-3.4,0.2-4,1.1l-9.8,14.2c-4.3,0.9-8.6,1.7-12.9,2.4l9.3-13c-0.6,0.8-3.3,0.2-4,1.1
	l-8.7,12.4c-1.8,0.2-3.5,0.4-5.3,0.6C186.9,368.7,185.9,368.8,184.9,368.8L184.9,368.8z M387.5,442l2-5.6c-0.2,0.7-3.7,0.3-4,1.1
	l-4.2,11.9c-2.3,2.6-4.8,5-7.3,7.4l3.3-9.8c-0.2,0.7-3.7,0.3-4,1.1l-4.4,13.2c-1.6,1.3-3.3,2.6-5,3.8c0.9-1.8,1.8-3.6,2.7-5.4
	c-0.4,0.8-3.5,0.2-4,1.1c-1.3,2.6-2.6,5.2-3.9,7.9c-4.3,2.7-8.9,5.1-13.7,7c1.4-3.2,3-6.3,5-9.2c-0.6,0.8-3.4,0.2-4,1.1
	c-2,3-3.7,6.3-5.1,9.7c-4.2,1.4-8.5,2.5-12.9,3.2l3.7-9.2c-0.3,0.7-3.6,0.3-4,1.1l-3.5,8.6c-3.3,0.4-6.6,0.5-9.9,0.5l3.7-10.1
	c-0.3,0.7-3.7,0.3-4,1.1c-1.1,3-2.2,6-3.2,8.9c-2.3-0.1-4.6-0.3-7-0.6c1.1-3.6,2.4-7.1,4-10.4c-0.4,0.8-3.6,0.2-4,1.1
	c-1.3,2.9-2.5,5.9-3.4,8.9c-2.8-0.5-5.6-1.1-8.5-1.8c1-3.5,2-7,3-10.5c-0.2,0.6-3.8,0.4-4,1.1c-0.8,2.9-1.6,5.7-2.5,8.5
	c-1.5-0.4-3-0.9-4.5-1.4c-2.4-0.8-4.8-1.7-7.1-2.6c1.2-4,2.9-7.9,5-11.6c-0.5,0.8-3.5,0.2-4,1.1c-1.6,2.9-3,6-4.1,9.1
	c-2.2-1-4.3-2-6.4-3.1c1.4-3.4,2.5-6.9,3.3-10.4c-0.1,0.6-3.8,0.4-4,1.1c-0.6,2.6-1.4,5.2-2.3,7.8c-2.4-1.3-4.8-2.8-7.1-4.2
	l4.2-12.6c-0.2,0.7-3.7,0.3-4,1.1c-1.1,3.2-2.1,6.4-3.2,9.6c-2.2-1.5-4.3-3.1-6.4-4.7c1.4-4.1,3.2-8.1,5.4-11.8
	c-0.5,0.8-3.5,0.2-4,1.1c-1.6,2.8-3,5.6-4.1,8.6c-2.3-1.9-4.5-3.8-6.6-5.8c1.9-6.4,4.2-12.6,7-18.6c-0.4,0.8-3.6,0.2-4,1.1
	c-2.2,4.8-4.2,9.8-5.9,14.9c-1.9-1.9-3.7-3.8-5.6-5.7c1.9-5,3.8-10,5.7-15c-0.3,0.7-3.7,0.3-4,1.1l-3.9,11.1c-2-2.3-3.9-4.6-5.8-7
	c1.9-4.9,4-9.6,6.4-14.3c-0.4,0.8-3.5,0.2-3.9,1.1c-1.7,3.3-3.3,6.8-4.8,10.2c-1.3-1.7-2.5-3.4-3.7-5.1c1.1-5.4,2.7-10.7,4.7-15.8
	c-0.3,0.7-3.6,0.3-4,1.1c-1.4,3.5-2.6,7.1-3.5,10.7c-1.8-2.6-3.5-5.3-5.1-8.1c0.8-3.3,2.1-6.4,3.8-9.2c-0.5,0.8-3.4,0.2-4,1.1
	c-0.8,1.4-1.6,2.8-2.2,4.3c-1.7-2.9-3.3-5.9-4.9-8.9c0.9-2.3,1.8-4.6,2.9-6.8c-0.4,0.8-3.6,0.2-3.9,1.1c-0.3,0.7-0.6,1.3-0.9,2
	c-1-2.1-2.1-4.2-3.1-6.3l4.2-9.5c-0.3,0.8-3.6,0.3-4,1.1l-2,4.6c-0.7-1.6-1.4-3.1-2.1-4.7c15.2-2,30.1-5.4,44.6-10.2l1-0.3
	c15.5,29.7,37.7,53.6,69,53.8c15.1,0.1,27.7-3.8,38.2-10.4c0,0,0.1,0,0.1-0.1c23.9-15,37.3-44.2,45.4-73c0.7-2.7,1.4-5.3,2.1-7.9
	c12.2,1.3,24.8,3.6,36.2,8.1C423.9,372.7,410.2,413,387.5,442z"/>
</svg>
