<?xml version="1.0" encoding="utf-8"?>
<!-- Generator: Adobe Illustrator 23.0.4, SVG Export Plug-In . SVG Version: 6.00 Build 0)  -->
<svg version="1.1" id="Calque_1" xmlns="http://www.w3.org/2000/svg" xmlns:xlink="http://www.w3.org/1999/xlink" x="0px" y="0px"
	 viewBox="0 0 1969.4 1930.1" style="enable-background:new 0 0 1969.4 1930.1;" xml:space="preserve">
<style type="text/css">
	.st0{opacity:0.4;fill:none;stroke:#DB0029;enable-background:new    ;}
</style>
<g>
	<path id="FR-A" class="st0" d="M1595.3,688.4l11.6-5.8l-3.2-8.4l4.5-3.9l-2.4-2l4.4-16.4l7.8-4.5l10.5-18l-2.4-7.3l19.2-33.9
		l-2.6-6l-8.7,1.3l-5.6-3.9l4.4-5.2l-3.2-4.3l4.4-15.7l-3.8-6l6.1,1.2l-9.4-5.5l13.7-0.7l7.3-5.1l11.8-22.3l-5.3-0.5l-3.2-6.1
		l9.9-15.6l-9-8.4l1.5-3l-14.6-4.8l-3.7,9l-6.6,3.6l1.5-5.6l-5.1-0.9l-0.1-5.8l6-3.8l-6.1,0.7l-0.3-3.2l-12.9-3.9l-1.5-8.3h4.8
		l1.6-5.9l5.7,1.1l4.8-22.8l4.2-2.5l3.9,14.9l23.1,6.7l-0.5,3.8l4.8,2.5l17.3-5.2l11.6,7.5l5.7-5.1l8-20.1l0,0l13.1-0.6l0.4,2.7
		l8.1-4.6l9.9,6.7l9.2-5.1l21.8,14.3l19.1,5l-11.4,12.8l-8.1,21.2l-16.1,9.4l-1.1,7.3l-17.1,16.8l-5.3,11.8l0.8,14.3l-5.2,5l-5,19.7
		l1.7,13.8l-7.1,5.2l-3.6,16.5l-12.3,20.8l-1,17.7l7.2,12.7l-9,19l-3.7,20.3l2.5,9.2l-5,7.4l10.9,18.9l-1.1,5.8l-11.6,7.3l4.3,2.3
		l-4.5,1.5l1.8,4.5l-3.1,3.2l-7.8-2.6l-1.5,3l4.8,1.9l-9.5,7.9l-7.9-1.8l-11.7,4l-1.5-3.6l-8.5-0.9l4.4-10.1l-9.5-1.8l0,0l1.5-4.4
		l-7.8-13.8l-11.1-1.9l5.6-14.1l-1.3-10.4l-13.2-9.7l-10.1-2.3L1595.3,688.4z"/>
	<path id="FR-B" class="st0" d="M744.5,1109.8l3.2,4.3l9.3-1.4l7.4,5.5l-3.2,9.7l8.3,8.4l7.8-9.3l3.9,4.2l16.6-1.9l9.2,15.6l4.2-3.3
		l6.9,4.3l-6.2,9.7l23.7,8.3l-5.1,6l9.3,4.5l-8.1,10.9l-3.9,0.2l-1.3,9.6l6.9,3.5l-6.9,9.7l8.4,3l-4,4.4l0,0l-0.7,0.1l0,0l7.3,6.3
		l14.2,1.6l-4.7,3.8l9.6,16.6l0,0l-5.2,3l0,0l0.6,2.3l0,0l3.9,14.8l-4,1.2l3.8,6.1l-10.7,6.9l0.6,6.3l-9.3,2.9l2.4,10.7l-12.6,10.8
		l-10.3,2.7l0.8,5.9l-8.1,8.7l1.3,3.9l-12.2,7l-4.6-1.4l4.8,7.1l0.1,11.7l5.2,3.4l0.8,11.7l-15,0.8l-1.5,3.1l-2.9-7.4l-3.3,0.6
		l-3.7,13.5l11.2,6.8l-6,15.9l-7.3,1.2l4.4,1.7l1.2,7.1l-4.4,2.1l-10-3.2l1.2,6.2l-5.7,0.7l-2.4,8.7l-10.5,7.1l-9.7-10.6l-5.1,4.8
		l-13-0.2l-2.6,5.2l-17.6,3.8l-2,3.6l-9.5-5.9l-5.4,1.3l-4.8,8l-4.1-5.5l-9.8,7.7l2.8,8.5l-2.3,3.9l-11-6.2l3.8-4.7l-5.9-5.7
		l-8.2,10.6l-11.5-2.1l-8.2,7.9l7.3,5.6l-3,2l2.1,9l-4.5,0.3l4.4,13.4l-7.6,5.7l1.1,9.9l-5.5,2.2l0.3,4.7l4.4,0.5l1.2,6.2l8.4-2.6
		l11.1,2.7l0.4,7.3l3.7-0.9l6.6,14.3l-6.5,1.7l-0.2,9.8l9.1-6.5l-0.4,13.8l4.6,4.9l-10.4,8.4l4,5.8l-4.4,9.8l-2.7-0.2l0.7,8.6
		l-6.8-0.6l-3.9,9.6l-6.4,2.7l1.8,11.7l-11.1,2.7l-3.7,5.9l0.9,13.3l-6.9,2.6l2,12.7l0,0l-11.2,9.4l-6.6,0.7l-8.7-6l-6.3,9.2
		l-17.3-20l-7.4-2.2l-3-13.3l-26,2.7l-23.5-13.2l-3.8,3l-2.9-5.1l-8.9-3.7l-4.6,2.2l-6.4-4.7l5.2-9.3l-10,4.4l-1.4,12.5l-11.8-3.3
		l-4.5-7.9l8.1-7.4l4.5-11.5l-0.9-12.9l-20.1-6.7l-3.8,1.1l-1.9,7.2l-4.4-0.4l-2.2-10.3l-14.4,2l-1.1-6.4l-6.8-3.8l-0.2-4.4
		l16.6-2.8l9.2-8.4l21.1-40.4l20.5-106.8l5.5-63.6l8.6-22l26,4.4l-1.9-8.2l-7.1-3.3l4.9-0.1l-18.3-15.3l-9,15.9l-2,15l-2.1-3.4
		l14.3-163.2l8.5-15.8l4.6-3.4l2.9,7.3l-5.3,0.9l3.5,0.2l-1.8,3.6l36,32.2l15.7,52.6l13,12.7l-10-23.3l-6.4-38.3l0,0l16.4,1.3l1.1-5
		l3.1,9.8l19.2,3.5l3.2,17.9l0,0l0.2,0.9l0,0l2.4,7.4l2.8-5.1l3.5,0.7l3.3,5.5l4.7-0.9l2.9,5.4l9.3,4l6.5,0.9l7.6-6.2l6,4.5l1-8
		l5.6-2.5l-3.2-2.3l3.7-7.3l6.5-4.8l10.8,4.1l5.5-10.6l12.5-7.1l-2.6-14.1l3.9-11.3l5.6-1.9l-2-4.4l3.9,3.4l6.9-8.5h7l2.4-7.4
		l7.6-5.4l0.9-15.9l7.5-0.1L744.5,1109.8z M647.8,1570.4L647.8,1570.4l-0.8-11.8l0,0l-1.3-0.6l0,0l0.5,7.1l-4,1.6l3.3,3.2
		L647.8,1570.4z M642.5,1569.9L642.5,1569.9l-1,0.7l0,0l-2.7,6.4l2.6,5.8l5.7-4.1l-3.4-8.3l0,0l-0.8-0.5H642.5z"/>
	<path id="FR-C" class="st0" d="M970.5,969.6l2.5-10h3.4l5.2-9.2l17.3-3.2l6.8,2.7l10.7-6.8l-1.5-8.2l-4.8-2.4l4-6.1l-3.5-3.9
		l4.8-2.5l3.1,2.5l-0.5-6.3l10.6-5.7l2-5.3l6.2,5.7l5.2-3.6l6.6,1.8l10.2-13.4l15.2-0.4l0,0l3.7,8.7l19.4,14.9l9.5-8.1l10.7,6.6
		l4.4-5.8l5.7-0.3l5,12.5l14.3-7.5l-1.8-6.7l6.8-0.3l-1.1-7.5l5,1.4l1.8,9.5l13.4,20.9l0.8,12.6l8.7,4l4.6-2.5l4.1,8.6l11.1-1
		l6.8,6.2l-3.2,12.5l1.2,13.8l2.7,0.3l-8,1.2l-6.5,9l0,0l-0.9,0.2l0,0l-1.2,0.2l0,0l-15.9,6.9l5.6,15.1l-2.2,10.1l3.9,4.6l-2.2,6.9
		l3.5,10.7l-5.9,5.1l-11.8,0.7l-1.1,7.8l8.5,8.7l-5.3,3.1l1,11.1l-4.6,4.4l12.6,13l-0.5,6.6l6.4,11.7l15.1,10.4l7,16l-2.9,11.7
		l-10.2,8l2.1,11.9l6-8.2l5.2,0.8l4.5,8.6l0.3-4.2l6.9,2.6l1.4-4.4l9.9-1.3l-1.2-3.7l4.6-1.7l7.5,0.7l5.3,6l8.6-2l4.5,6.2l-4.9,3.6
		l5.4,3.2l-3,5.2l5,3.6l6.9-3.6l7.5,10.1l-5.9,12.1l1.3,8.1l-3,1.8l-1.8-5.1l-6.7-1.4l3.4,5.8l0,0v1.8l0,0l-3.8-0.3l-3.4,5.8
		l4.5,7.7l-11.4,3.3l2.4,9l-12.2,1.9l-9.4,17.4l-16.7,0.1l-0.9,7.5l-3.9,2.6l-2.4-2.5l0.8,4.1l-5.3-3l-3.5,11.2l-9.2,4.6l-2.8-0.6
		l1-4.7l-4.6,1.5l-6.6-7l-2.4-7.2l-10.5,1.8l0.9-5.4l-5.9-4.8l-5,1.1l-0.7,9.6l-15.9,3.2l-8.4-17.1l-0.2-8.4l-6-6.4l-11.7,9.3
		l-6-1.7l-0.8,9.2l-6.1,4.9l-8.2-7.9l-3,7.3h-0.8l-0.6,6.2l-3.6-0.8l-3.6,7.2l-1,16.2l-7.2,13.6l0,0l-6.2-6.8l-3.4-15.7l3.5-2.4
		l-2.3-3.8l-4.4,0.8l-3.9-16.4l-11.9,3.6l0.2-10.8l-5.1-5.7l-18.2,18.5l-0.6,10.4l-6.9,7.4l1.4,6.4l-8.3,6l-2.2,7.4l-18,2l-3.5-5.8
		l-4.3,0.4l-10.7,3.5l-1.7,6.2l-4.6-4l-1.6-11l-4-0.2l5.8-17.7l-11-16.3l1.6-9.1l-5.7-10.7l0,0l5.5-1.4l0,0l1.2,0.3l0,0l4.6-3.8
		l-6.1-11.3l10.2-4.3l0.9-10.6l7.2-5.5l-4.3-3.1l-0.9-7.8l22.7-22.4l-1.5-14.6l18.1,8.2l6.5-4.3l-5.6-5.3l4.2-26.4l-7.7-8.2l3.4-8.8
		l4.9-0.3l0.3-13.3l-18.6-22.6l9.3-8l0,0l0.6-0.1l0,0l4.4,0.6l8.8-9.8l1.1-8.5l5.6-2.8l-1.4-12.4l-7.1-10.1l2.2-13.7l-11.5-24.6
		l-7-3.2l-1.4,2.6l-4.6-9.6l-3.1,4.2l-8.6-6.5l4.3-5.8l-6.4-1.8L970.5,969.6z"/>
	<path id="FR-D" class="st0" d="M1335.7,679.1L1335.7,679.1l-5.2-11.1l-4.6,0.7l-1.2,4.4l-4-2.5l4.6-6.4l-2.7-4.1l-8.4-0.4l3.4-5.3
		l-2.2-3.5l-12.8-3.7l-16.7-1.1l-5.8,4.6l2.6,7.9l-32.9,1.4l-3,7.4l-6.6-1.1l-2.5-8.6l-4.3,1l1,5.3l-4.8-3.7l0,0l-1.7,0.9l0,0
		l-6.1,6l-6.9-4l-2.1,4.2l-5.5-3.5l-15,2.7l2.5-10.3l-2.6-4.5l-2,4.7l-3.9-0.9l-1.7-4.3l4.5-2.3l-6.8-6l-4.3-15.1l-7.1-3l1.2-6.8
		l-4.7-1.7l1.2,3.7l-7.6,3.3l-5-10.2l-7.1,1.1l5.8-8.4l-2.8-1.4l2.5-7.4l-5.7-3.1l1.3-3.4l-11.5-13.6l-5.1-2l-5.2,3.6l-1.8-6.4
		l-5.1-2.1l-1.5,5.7l-4,0.5l-26.8-0.6l-5.1,4.9l-7.7-2.2l-4.4,11.2l4.4,11.4l-5.9,8.8l-9.2,4.8l-0.1,3.7l12.5,6.6l-1.8,3.5l2.7-0.2
		l1.9,9l10.3,8.9l-3.5,2.1l3.9,9.5l-4.6,5.3l0,0l-0.8,0.7l0,0l-10.9,7.6l-1.8,7.9l5,3.6l-1,12.8l-23.8,6l-0.5,8.2l4.2-0.7l6.5,7.8
		l3.7,7.5l-2.3,9.4l5.5,6l-15.7,4v-0.7l-1.7,2.5l11.1,20.7l-8.7,20.1l15.7,15.3l6.7,28.3l-1.8,11.4l8.2,8.1l0.2,13.6l-4.1,9.6
		l2.7,11.2l-4.8,11.4l3.7,8.7l19.4,14.9l9.5-8.1l10.7,6.6l4.4-5.8l5.7-0.3l5,12.5l14.3-7.5l-1.8-6.7l6.8-0.3l-1.1-7.5l5,1.4l1.8,9.5
		l13.4,20.9l0.8,12.6l8.7,4l4.6-2.5l4.1,8.6l11.1-1l6.8,6.2l-3.2,12.5l1.2,13.8l2.7,0.3l-8,1.2l-6.5,9l-1.5,12.4l11.2,2.2l2.3,6.6
		l15.6-5.8l10.3,4.9l4-4.1l2.5,3.3l3.9-2l-0.6,5.8l3.5,0.4l13.3-5.8l4.5-21.7l7.3-0.3l6.2,5.8l8.8-5.2l6.8,5.6l2.6-7l5.8-1l4.2,5.4
		l-4.3,3.9l7.8,5l-2.3,7.6l5.3,4.4l3-0.8l22.1-67.8l1.3,3.5l4.6-2.8l10,6.1l15.1-3.9l0.2-3l5.2,2.7l4.1,9.5l10.6,2.4l1.5-3.4
		l12.8-2.8l0.5-5l-8.5-3.4l-0.2-8.5l6.3-3.9l-1.2-5.7l6.2-5.4l-6.3-9.4l-0.4-8.7l-4.4-0.3l4.2-8.1l-8.8-9l19-5l-8.7-5.6l-0.5-4.8
		l-9.6,1l-4.8-10.4l-4.1,2.2l-1.3-9.9l8.8-7l-5.9-2.6l1.2-4.5l13.9-6.6l7.4-12.5l0,0l-0.1-1l0,0l6.7-27.9l4.3-2.9l-6.4-2.7h-0.5
		l3.6-5l-1.6-10.5l0,0l-0.5-0.3l0,0l-5.7,0.4h-0.9l0.9-11.7l-9.8-2.8l5.7-2.6l-2.8-0.8l1.6-3.6l6.8,0.3l6.7-11.7l-7.7-15.1l-6.4,7.2
		l-3.1-2.1l0,0l-2.4,2.8l-6.6-3.7l-7.5,6.6l1.1-9.2l-11.8-6.1l0.7-5.7l-8.3,6.9l-8.8-4.4l1-5.5l-4.4,0.6l-0.1-3.7l-8.3,5l-1.3-15.5
		l-6-1l10.5-8.3l-5.3-12L1335.7,679.1z"/>
	<path id="FR-E" class="st0" d="M212.7,776.4l4.1,4.9l8.3-0.2l2.4,7l10.7,3l-1.9,5.6l-22.4-3.3l-3.4-10L212.7,776.4z M215.9,473.1
		l0.7,7.4L235,473v10l10.1-0.6l1,4.8l-5.4,4.1l15.8,5.1l-2.3,7.2l17.6,14.9l-0.7,11.1l14.8,8.2l-3.7,6.4l3.9-1.6l5.3,9.2l-1.2-9.2
		l7.6,2.2l10-16.1l11.1-4.7l-2-4.7l7-1.6l2.4,4.8l13.9-12.3l4.8,4.2l-7.3,10l3.2,2.1l9.7-7.1l4.5,11.9l-1.9,7.6l3.9-12.5l2.3,7.2
		l3.9-8.7l3.6,3.6l-3.8-6.8l14.3-1.1l1.5,8.1l5.5,3.6l-2.5,2.2l5.8,5.8l-1.7,10l2.8-6.3l3.6,1.2l-6.6-13.2l5.4,2.9l-1.9-4.4
		l-7.1-1.5l2.1-3.5l-4.9-4l5.7-10.1l20.3-6l1,6.8l-4.5,8.5l12.4,7l28.2-6.2l0,0l11.4,30l9.2,5.8l9.2-1.7l13.7-15.5l25.2,7.4l0,0
		l-1.3,19.2l4.7,17.8l-7.7,12.9l3.1,12.9l0,0l0.6,0.5l0,0l8,40.5l-19,7.8L487,697.5l-16-4.6l-3.4-5.9l-12.4-1.4l0.8,6.6l-20.5,8
		l-5.2,11l-27.5,0.2l-13,7.6l-2.5-4.6l-14.9,8.9l-2.2,23.7l-8.1,2.3l-0.9,6.4l-2.9-4.6l-8.2,3.7l-7.4-4.4l-2.6,11.2l-11.6,1l-3-4.2
		l-4.7,5.8l0,0l-5.1-0.4l-0.9-8.5l8.3-1.3l-9.4-5.2l-42,7.7L258.8,743h-7.1l-3.6-5.3l-2.1,2.7l-2.8-5.2l0.7,5l-14.1-0.4l-0.6,11.3
		l6.6,9.1l-7.1-0.9l-4.3-11.4l3.8-3.1l-2-10.3l-18.7-18.2l-10.2-0.1l-0.7-5l-12,3l-10.1-13.8l-20.8-2.5L147,692l-17.4,2.9l-6.5-8.9
		l2.8-4.9l-4,1.8l-4.9-10.7l-5.9,3.9l2,5.9l-9.2,2.4l-8.8-5.8l-5.6,3l-6.2,12.3H59.1l1.3-18.7L51.8,660l-12.3-9l-8,1.1l-8.7-5.9
		l-14.3-2.1l4.1-0.9l-1.1-4.3l40.9-8.7l15.3,3.6l5.2-8.3l-6.6-15.2L46,603.1l-4.8,1.4L33,617.2L31.1,604l4-3l-10.8-1.1l-0.9-5.2
		l8-0.5l-0.2-10l5.4-2.1l-3.2,7.8l2.8,3.9l4.9-5.6l-0.4,6.3l7-3.2l7.3,4.5l12.5-4.7l6.4,3.6l5.3-6.9l-3.6,3l-12.3-3.2l4.7-3.2
		l-4-1.9l1.8-4.7l-7.5,7.4l-6,0.3l2.7-3.7l-8.4,3.2l8-11.7l-3.3-2.6l-25.2,11.8l-9.9-3.5l-3.6,4.9l-9,0.4l-2.4-6.6l3.9-4.3L0.5,567
		l4.7-11L3,546l6.5-8.3l16.4-4.2l0.6-5.7l5.8,1.3l2.9-8.1l5.9,3.3l13.4-3.3l-4.9-3.6l12.4-4.7l6.9,2.6v6.4l13.8-3.8l-3.7-1.4l5-5.8
		l11.8-1.8l5.6,4l0.8-6.2l6.2-4.5l0.8,3.3l4.2-3.2l-0.2,11l5.5,2.3l0.8-7.5l0.3,5.1l10.6,2.8l-1.2-6l3.2-5.2l1.5,2.8l-0.4-3.8
		l19.7,6.9l4.9-2l-2,7.7l4.9-5.7l5.6,3.3l-0.2-11.3l4.8-4.3l-4.9-2.5l2.4-7.9l-2.7-2.3l4.4,3l6.9-9.9l1.8,3.9l1.5-3.6l2.9,4.6
		l4.3-1.1l-1.8,4.7l5.8-0.4l10.7-7.9l7.8,0.8L215.9,473.1z"/>
	<path id="FR-F" class="st0" d="M864,458l8.5,10.4l-2.4,4.2l7.2,6.4l-2.3,16.3l6.2,3l-6.8,9.1l4.8,2.9l-1.4,4.9l8.8,10.5l6.7-0.1
		l-0.8,7.7l10.7,4.8l-1.6,8.3l3.5,9.6l9.4,5.4l8.7-3l-0.3,10.5l6.8,0.9l1.4,7.8l-4.2,10.9l2,4.5l26.2-2.2l-1.6-3.6l4.1,1l3-6.7
		l5.8,2.5l-0.1,6.9l7.3-2.8l0.7-1.3l3.3-2.9l4.3,5.1l6.2-1.6l2.7,11.5l12.7,7l0.1,12l-4.7,0.5l-5.4,8.4l15.8-3.5l20,3.6l6.7-4.5
		l-2.4-4.4l3.5,2.2l5-3.1l2.8,8l6.4-5.4l9.7-1.4l0,0l12.5,6.6l-1.8,3.5l2.7-0.2l1.9,9l10.3,8.9l-3.5,2.1l3.9,9.5l-4.6,5.3l-0.8,0.7
		l-10.9,7.6l-1.8,7.9l5,3.6l-1,12.8l-23.8,6l-0.5,8.2l4.2-0.7l6.5,7.8l3.7,7.5l-2.3,9.4l5.5,6l-15.7,4l0,0v-0.7l0,0l-1.7,2.5
		l11.1,20.7l-8.7,20.1l15.7,15.3l6.7,28.3l-1.8,11.4l8.2,8.1l0.2,13.6l-4.1,9.6l2.7,11.2l-4.8,11.4l-15.2,0.4l-10.2,13.4l-6.6-1.8
		l-5.2,3.6l-6.2-5.7l-2,5.3l-10.6,5.7l0.5,6.3l-3.1-2.5l-4.8,2.5l3.5,3.9l-4,6.1l4.8,2.4l1.5,8.2l-10.7,6.8l-6.8-2.7l-17.3,3.2
		l-5.2,9.2H973l-2.5,10l0,0l-11.5-1.7l-14.8,3.7l-15-6.6l-19.2,3.4l-7.7-6.1l-4.8,1.3l1.7,4.9l-4.3,7l-5.9-5.6l-7.8,6l-2.6-6.6
		l-8.8,5.7l-2.6-6.8l-15.2,16l-8.4-10.6l-5.6,1l-1.3,4.7l-11.7,1l-1.3-4.8l-4.3,1l0,0l2.5-3.3l0,0l2.1-6.3l-8.4-2.9l-0.9-11.5
		l-7-5.8l-10,0.1l-0.7-6.1l-14.2-6.8l-2.5-5.7l4.8-12.9l-2-6.5L770,896.5l-2.6-12.1l-12.6-10.7l-1.8-14.1l-10.1-6.8l-6.8,0.3
		l4.2,9.8l-12.7-0.3l-9.2,5.9l-10-4l-5.7,3.8l-4.4-12l2.9-1.6l-1.3-10.6l-4.8,1.7l-3.2-5.8l-9.2,2.5l3-6.5l-2.5-4.8l-2.7,2.8
		l-3.7-1.2l0.7-3.6l-8.2,1.2l-3.6-9l0,0l3.1-23.7l14.4-20.2l-4-3.6l9.4-20.4l0.6-5.5l-4.4-2.4l5.5-11.6l0,0l-0.2-1.7l0,0l20.8,7.1
		l2.7-1.7l-5.3-8.3l2.6-4.9l9,5l2-5.2l18.1-5.5l3.1-4.3l-3.2,1l-1.4-6l5.6-6.9l10.3-3.1l-1.3-3.3l10.4-9.9l-1-14l4-2.3l2.9,4.8
		l0.6-8.9l4.6-1.6l-4.2-9.4l3.2-8.9l-6.2-1.5l-0.5-6.8l6.8-0.5l0.3-4.5l-4.4-1l3.8-0.9l1.3-6l8.9-1.1l-16-11.6l4.3-3.8l-5.8-9.7
		l2.5-5.8l-7-2.2l2-4.7l19.8-10.3l8.5-13.9l-5.5-7.5l4.2-9.7l-20.2-18.3l-0.5-12l0,0l6.6-3.7l1.8-5.7l15.4-2h2.8l7.4-6.8l7.1,2.5
		l0.9-8.9l13.8,6.5l15.1-0.7l5.5-4.1l-1.4-11.1l13.5-7.8l-1.7-10.7L864,458z"/>
	<path id="FR-G" class="st0" d="M1321.2,202.1l8.3,3.7l-3.9,3.6l0.6,6.8l-2.9-2.9l-4.3,7.8l2.9,5.8l-7.1,14.8l13.5,12.6l-5.7,9.1
		l3.8,10l-3.2,5.6l19.7-1.5l13.6,7.9l9.9,14.7l14.3-0.5l8.4,8.9l-2.4,9l4.7-4.2l6.6,3l0,0l-18.3,15.8l-3.8-5.8l-9.8,1.4l-2.7-5.9
		l-4.2-0.3l-3.1,10.5l0,0l-0.2,1.3l0,0l-4,7.5l7.1,9l0.6,8.1l-5.2,3.5l3.3,5.1l-6.5,2.3l-4,12.1l4.3,3.4l-0.8,4.1l-13.7,7.8l5.6,5.9
		l-7.2,5l8.9,24.3l-5.3,9.8l6-2.9l3.8,2.5l-0.3,6.4l-5.4,2l6.2,2.1l-3.2,7.2l-10.7,4.4l0,0l-0.6,0.6l0,0l-2.9,9.7l3.4,5.4l-6.4,9.1
		l16.4,11.8l-1.5,26.2l8-3.5l1.9,7.5l6.6,0.1l12.7,13.9l15.9,3.9l19.3,17.8l-10.5,6.6l6.6,2.4l-2.1,9.9l7.2-5.1l6.2,1.7l8.8,15.2
		l3.1-3.7l5.8,4.9l-1.7,5.4l6.3,1.6l5.8,7.4l-6.7,3.8l-1.3,14.6l-5.8,4.7l9.4,1.8l3.5,6.7l7.5,2.1l1.5,16.5l7.9-5.1l5.2,10.1
		l-0.7,5.8l-4.6-1.3l-3.9,7.2l0.8,3.8l-9.2-1.5l-2.6,8l-6.9-0.2l-2,8.5l4.5,6.6l-2.5,12.6l-12.9,2.5l-4-7.2l-5.8,7l-15.8-0.3
		l-4.9,14.1l-2.4,2.8l-6.6-3.7l-7.5,6.6l1.1-9.2l-11.8-6.1l0.7-5.7l-8.3,6.9l-8.8-4.4l1-5.5l-4.4,0.6l-0.1-3.7l-8.3,5l-1.3-15.5
		l-6-1l10.5-8.3l-5.3-12l-1.2-0.2l-5.2-11.1l-4.6,0.7l-1.2,4.4l-4-2.5l4.6-6.4l-2.7-4.1l-8.4-0.4l3.4-5.3l-2.2-3.5l-12.8-3.7
		l-16.7-1.1l-5.8,4.6l2.6,7.9l-32.9,1.4l-3,7.4l-6.6-1.1l-2.5-8.6l-4.3,1l1,5.3l-4.8-3.7l-1.7,0.9l-6.1,6l-6.9-4l-2.1,4.2l-5.5-3.5
		l-15,2.7l2.5-10.3l-2.6-4.5l-2,4.7l-3.9-0.9l-1.7-4.3l4.5-2.3l-6.8-6l-4.3-15.1l-7.1-3l1.2-6.8l-4.7-1.7l1.2,3.7l-7.6,3.3l-5-10.2
		l-7.1,1.1l5.8-8.4l-2.8-1.4l2.5-7.4l-5.7-3.1l1.3-3.4l-11.5-13.6l-5.1-2l-5.2,3.6l-1.8-6.4l0,0l-4.1-18.6l7.5-2.2l-4.3-7.7
		l10.2-2.8l-2.2-5.9l6.7-4l-1.7-3.1l8-2.4l-5.4-3.4l1.9-2.8l-11.4,2.3l2.3-21.3l-10.1-4.2l6.7-6.6l-5.5-3.8l11.5-1.1l-0.5-7.9l0,0
		l5.9-12.5l5.8-0.5l0.5-5.1l4-0.7l-1.8-3.6l12-11.2l-3.7-6l-9,1.3l0.2-4.9l7-3.5l-5.1-8.9l2.9-6.4l11.4,1.7l5.9-3.5l0.1-4.7
		l-4.6,0.8l-2.2-6.3l-2.3,2l-3.9-3.3l3.3-4.6L1158,380l18.2-9l10.1,2.4l0.6-7.4l9.3-5.6l4.9,6.2l10.6,3.6l0.2-16.4l4.2-1.5
		l-3.7-12.9l5.2-3.6l-4.1-4.3l3.9-5.5l-7.5-10.7l2.4-3.3l10.1,1l1.6-9.5l8.1-4.4l8.9-12.3l-6-4.9l6.5-18.7l0.3-7.6l-5.2-2.4l2-9.3
		l0,0l10.7-2.2l18.7,6.7l20.8-10.5l13-1.9l-1.8-15l3-6.1l16.8-15.6L1321.2,202.1z"/>
	<path id="FR-H" class="st0" d="M1861.5,1887.9l4-8.8l9.3-1l5.9-7.5l-14.2-4.9l-4.2,2.6l-0.9-7.6l-9.3,3.6l-0.3-3.2l-6.3-0.2
		l9.8-6.6l-2.5-4.7l8.2-1.7l1.6-3.8l-4.5-2.3l5.2-1l-1.3-5.9l3.4-2.3l-7.5-7l-4,4.6l-15.3,2.6l2.1-7.6l-4.2-5.6l7.7-0.6l1.6-8.1
		l12-6.8l-6.5-11.5l-5.6,2.2l-6.5-6.3l-4.3,1.2l0.6-4.3l-3.8,1.1l4.9-4.2l-4.5-0.6l2.7-6.3l-5.6-5.9l21.2-5.4l-4.7-6.6l-7.7-0.6
		l1.4-8.2l-8.5,2.9l-1.1-7.6l8.8-2.1l-0.5-5.5l6.8,0.2l-0.9-5l4.3-4.9l-4.3-1.8l2.4-6.9l7.4-1.8l-1.9-8.2l2.7-2.8l0.2,4.3l3.8-1.9
		l4.6,3.3l1.8-9l8.9-1.1l9-7.1l11.4,1l6.2-3.7l-0.4-6.5l9.2-6.5l13.3-0.7l10.5,10.9l6.3-11l-0.3-11l-4.5-7.1l4.2-6.1l-2.5-6.4
		l5.4-4.5l-2.9-13l11.4-3.2l5.6,4.7l4,33.5l-6.4,24.5l11.9,23.6l3.6,65.2l-1.3,16.9l-18.8,27.6l-3.5,56.3l-6,2.4l1.7,2.8l-6.4-2.2
		l-4,5.9l1.2,3.9l4.2-5.5l7,1.9l-3.5,6.4l-9.6,5.2l0.7,12.1l-7.6,4l-1.9,5.3l7.7-2.7l-0.8,2.7l-5.3,8.6l-5.7,0.4l-3.1-5.1l-8.7-0.3
		l3.7-7.9l-6.9-1.2l1.3-6.7l-5.5,4.5l-5.6-6.1l-2.1,2.9l-8.7-2.8l-6.1-6.4l-4.6,1.2l1.5-5.3l-9.1-1.6l2.3-3.5L1861.5,1887.9z"/>
	<path id="FR-H_1_" class="st0" d="M1861.5,1887.9l4-8.8l9.3-1l5.9-7.5l-14.2-4.9l-4.2,2.6l-0.9-7.6l-9.3,3.6l-0.3-3.2l-6.3-0.2
		l9.8-6.6l-2.5-4.7l8.2-1.7l1.6-3.8l-4.5-2.3l5.2-1l-1.3-5.9l3.4-2.3l-7.5-7l-4,4.6l-15.3,2.6l2.1-7.6l-4.2-5.6l7.7-0.6l1.6-8.1
		l12-6.8l-6.5-11.5l-5.6,2.2l-6.5-6.3l-4.3,1.2l0.6-4.3l-3.8,1.1l4.9-4.2l-4.5-0.6l2.7-6.3l-5.6-5.9l21.2-5.4l-4.7-6.6l-7.7-0.6
		l1.4-8.2l-8.5,2.9l-1.1-7.6l8.8-2.1l-0.5-5.5l6.8,0.2l-0.9-5l4.3-4.9l-4.3-1.8l2.4-6.9l7.4-1.8l-1.9-8.2l2.7-2.8l0.2,4.3l3.8-1.9
		l4.6,3.3l1.8-9l8.9-1.1l9-7.1l11.4,1l6.2-3.7l-0.4-6.5l9.2-6.5l13.3-0.7l10.5,10.9l6.3-11l-0.3-11l-4.5-7.1l4.2-6.1l-2.5-6.4
		l5.4-4.5l-2.9-13l11.4-3.2l5.6,4.7l4,33.5l-6.4,24.5l11.9,23.6l3.6,65.2l-1.3,16.9l-18.8,27.6l-3.5,56.3l-6,2.4l1.7,2.8l-6.4-2.2
		l-4,5.9l1.2,3.9l4.2-5.5l7,1.9l-3.5,6.4l-9.6,5.2l0.7,12.1l-7.6,4l-1.9,5.3l7.7-2.7l-0.8,2.7l-5.3,8.6l-5.7,0.4l-3.1-5.1l-8.7-0.3
		l3.7-7.9l-6.9-1.2l1.3-6.7l-5.5,4.5l-5.6-6.1l-2.1,2.9l-8.7-2.8l-6.1-6.4l-4.6,1.2l1.5-5.3l-9.1-1.6l2.3-3.5L1861.5,1887.9z"/>
	<path id="FR-I" class="st0" d="M1464.9,666.9l6.9-10.4l3.7,1.9l-4.4,6.1l3,0.5l7.3-4.2l5.1-9.6l13-3.2l0,0l0.3,0.2l0,0l1.5,10.6
		l7.6,6l0,0v1.1l0,0l25.4-5.8l6.3,3.9l5.9,11.5l17.1-12.3l5.9,8.6l25.8,16.6l4.3,8.1l10.1,2.3l13.2,9.7l1.3,10.4l-5.6,14.1l11.1,1.9
		l7.8,13.8l-1.5,4.4l-20.5,1.9l2.6,8.2l-8.5,4.2l-8.4,16.2l18.8-4.1l4.5,2.2l0.9,5.8l-6.2,1.8l-1.9,6l-7.3,1.5l1.7,9l-15.6,14.3
		l2.4,1.4l-2.7,3.2l-18.7,13.4l2.2,6.2l-13.4,11.6l-17.1,3.7l-8.9,9.2l4.4,7.8l-4.6,15.3l2.9,7.4l-46.9,39.5l6.3,6.2l-11.5,16.4
		l-1,9.2l-26.8,29.9l-19.8,0.8l-1.6-9.6l-9.2-2.9l-0.5-4.1l-14.3,15.1l-9,0.8l0.2-10.1h-5.2l-1.8-6.4l-2.8,7.4l-5.8-11.8l2.2-2.4
		l-10.7-6.1l2.1-6.6l1.5-3.4l12.8-2.8l0.5-5l-8.5-3.4l-0.2-8.5l6.3-3.9l-1.2-5.7l6.2-5.4l-6.3-9.4l-0.4-8.7l-4.4-0.3l4.2-8.1l-8.8-9
		l19-5l-8.7-5.6l-0.5-4.8l-9.6,1l-4.8-10.4l-4.1,2.2l-1.3-9.9l8.8-7l-5.9-2.6l1.2-4.5l13.9-6.6l7.4-12.5l-0.1-1l6.7-27.9l4.3-2.9
		l-6.4-2.7h-0.5l3.6-5l-1.6-10.5l-0.5-0.3l-5.7,0.4h-0.9l0.9-11.7l-9.8-2.8l5.7-2.6l-2.8-0.8l1.6-3.6l6.8,0.3l6.7-11.7l-7.7-15.1
		l-6.4,7.2l-3.1-2.1l4.9-14.1l15.8,0.3l5.8-7l4,7.2l12.9-2.5l2.5-12.6l-4.5-6.6l2-8.5l6.9,0.2l2.6-8l9.2,1.5l-0.8-3.8l3.9-7.2
		l4.6,1.3L1464.9,666.9z"/>
	<path id="FR-J" class="st0" d="M891.7,397.3l5,1.6L895,405l0,0h1.3l0,0l2.5,4.1l6.7-2l10.9,4.7l16.3-2.7l10.8-7.2l12.3,9.8l6.6-3.3
		l2,5.9l7.2-1.8l3.9-5.6l6,8l2.4-2.4l8.9,2.7l-0.8,2.7l3.5-1.5l6,4.8l-1.8,2.4l5.8,1.4l2.8-5.1l4.3,9.3l6.8-6l13.9,9.9l10.2-7.5
		l6,5.5l16-4.4l2.6,4.3l2.9-4.3l7.9,1.3l0.5-6.6l9.4,2.3l7.1,11.7l-3.2,7.9l11.5,8.3l1.8,7l5.5-2l3.3,8.5l5.3-4.2l2.1,11.7l8.6,2.4
		l2.1,4.7l3.1-3l0.5,7.9l-11.5,1.1l5.5,3.8l-6.7,6.6l10.1,4.2l-2.3,21.3l11.4-2.3l-1.9,2.8l5.4,3.4l-8,2.4l1.7,3.1l-6.7,4l2.2,5.9
		l-10.2,2.8l4.3,7.7l-7.5,2.2l4.1,18.6l-5.1-2.1l-1.5,5.7l-4,0.5l-26.8-0.6l-5.1,4.9l-7.7-2.2l-4.4,11.2l4.4,11.4l-5.9,8.8l-9.2,4.8
		l-0.1,3.7l-9.7,1.4l-6.4,5.4l-2.8-8l-5,3.1l-3.5-2.2l2.4,4.4l-6.7,4.5l-20-3.6l-15.8,3.5l5.4-8.4l4.7-0.5l-0.1-12l-12.7-7
		l-2.7-11.5l-6.2,1.6l-4.3-5.1l-3.3,2.9l0,0l-0.7,1.3l0,0l-7.3,2.8l0.1-6.9l-5.8-2.5l-3,6.7l-4.1-1l1.6,3.6l-26.2,2.2l-2-4.5
		l4.2-10.9l-1.4-7.8l-6.8-0.9l0.3-10.5l-8.7,3l-9.4-5.4l-3.5-9.6l1.6-8.3l-10.7-4.8l0.8-7.7l-6.7,0.1l-8.8-10.5l1.4-4.9l-4.8-2.9
		l6.8-9.1l-6.2-3l2.3-16.3l-7.2-6.4l2.4-4.2L864,458l-1.2-5.6l3.7-2.4l-6.7,0.5l1.2-7.9l-4.2-8.2l5.5,0.6l2.9-7.3l1.5,3.4h0.7
		l13.2-3.4L891.7,397.3z"/>
	<path id="FR-K" class="st0" d="M1067.7,1316.3l7.2-13.6l1-16.2l3.6-7.2l3.6,0.8l0.6-6.2h0.8l3-7.3l8.2,7.9l6.1-4.9l0.8-9.2l6,1.7
		l11.7-9.3l6,6.4l0.2,8.4l8.4,17.1l15.9-3.2l0.7-9.6l5-1.1l5.9,4.8l-0.9,5.4l10.5-1.8l2.4,7.2l6.6,7l4.6-1.5l-1,4.7l2.8,0.6l0,0
		l5.7,28.8l6.8,4.5l4.9,18.9l11.1,12.8l-3.9,2.7l1.1,13.8l11.2-3.4l17.5,13.7l9.5-14l9-1.6l0.5,10.7l5.8,1.4l2.1-10.5l7.1-1l19.8,14
		l0,0l3.2,10.5l4.7,0.2l1.9,5.1l-0.1,20.2l9,3l8,14.6l-4.2,0.2v4.8l-23.7,18.3l3.5,4.1l-7.5,22.6l2.1,7.6l-12.1-4.1l-7.5,1.9
		l-8.2,13.8l6.3,2.2l-1.4,4.4l-17.6,10.2l-2.8-3.7l1.4,5.1l-11.2,5.4l-1.5,7.4l0,0l-13.1-4.9l-2.2-4.4l2.8-4.3l-4.4-3.9l-18.5,1.4
		l-33.9,27.3l-11.1,3.2l-18.8,21.8l0.7-3.3l-0.9,3l-23.6-3.9l1.2,4l-22,17.9l-13.4,21.7l-5.2,17.1l2.3,8.7l-4.4,39.9l2.5,30.4
		l12.8,4.5l-1.5,6.2l6,8.8l-12.1,1.7l-6.2-8.8l-10.1,1.4l-2.7-3.1l-4,4.8l-10.7-0.5l-8.4,8.7l-6.2-2.2l-8.1,3.6l-3.1,3.4l2.7,8.5
		l-13-3.3l-6.4,4.7l-6.6-1.3l-6.7-9.8l-24.2-8.2l-7.6,4.1l-6.3-1.4l-9.6,11.3l-9.4,2.6l-7.3-6.3l-4-13.1l-7.3,0.7l-7.9-7l-13-1.5
		l1.3-11.3l7.6-3l11.3-1.2l4.3-6.5l10-0.3l3.3-8.2l22.8-0.4l1.8-3.3l-12.6-13.1l-11.1,3.3l-12.5-4.6l1.7-3.3l-9.2-8.9l1.3-5.8
		l15.3-3.4l-0.8-11l-6.3-2.4l3.2-4.1l6.7,0.3l-5.1-8.6l2.2-4.6l-6-3.4l3-3.3l-1.5-8.3l-5.1-3.8l-3.5,3.3l-5.3-8.3v2.6l-9.3-1.1
		l-10.4-7.3l2.2-6.3l-4.9-9.1l6.4-7.7l-1.8-5.2l12.5,0.1l-1.7-9.6l6.9-9.4l5.8,8.8l3.2-4.7l0,0l0.8,0.1l0,0l8.9,2.2l6.7-5.1l4.8,7.5
		l13.4-3.9l6.1,6.1l0.9-9l5-5.3l19,8.2l4.9-3.7l24.1,0.9l8.3-7.4l0.9-8.7l-8.1-9.5l4.1-17.7l10.2,2.9l4.8,5.8l20.7-7.7l2.2-6.6
		l8.6-3.6l10.4,3l0.4-26.9l20.5,4l4.9-3l-1.9-6.3l4-6l10.8,0.1l2-10.5l11.4-9.4l0.9-5l-8.2-6.2l-5.1,1.6l-3-5.4l-4.9,1.9l-4.3-4.8
		l8.2-2.9l1.8-9.6l5.2-2.1l-1.4-6l-21.6,2l3.6-7.7l-9.5-2.7l-1.2-5.8l-4.3,2.4l4.6-8.7l-4.8-10.5l3.4-14.3l-10.7-12.4l2.6-10.8
		L1067.7,1316.3z M925.2,1728.6l7.3,1.9l-3.3-7.4L925.2,1728.6z"/>
	<path id="FR-L" class="st0" d="M819.4,976.5l4.3-1l1.3,4.8l11.7-1l1.3-4.7l5.6-1l8.4,10.6l15.2-16l2.6,6.8l8.8-5.7l2.6,6.6l7.8-6
		l5.9,5.6l4.3-7l-1.7-4.9l4.8-1.3l7.7,6.1l19.2-3.4l15,6.6l14.8-3.7l11.5,1.7l1.4,7.9l6.4,1.8l-4.3,5.8l8.6,6.5l3.1-4.2l4.6,9.6
		l1.4-2.6l7,3.2l11.5,24.6l-2.2,13.7l7.1,10.1l1.4,12.4l-5.6,2.8l-1.1,8.5l-8.8,9.8l-4.4-0.6l-0.6,0.1l-9.3,8l18.6,22.6l-0.3,13.3
		l-4.9,0.3l-3.4,8.8l7.7,8.2l-4.2,26.4l5.6,5.3l-6.5,4.3l-18.1-8.2l1.5,14.6L960,1205l0.9,7.8l4.3,3.1l-7.2,5.5l-0.9,10.6l-10.2,4.3
		l6.1,11.3l-4.6,3.8l-1.2-0.3l-5.5,1.4l-11.3,0.3l-5.2,4.2l-5.5-4.9l-14.5,10.6l-7.1-2.8l-14.3-17.6l-13.8-0.2l-1.1-3.4l-12.3,5.4
		l-9.6-16.6l4.7-3.8l-14.2-1.6l-7.3-6.3l0.7-0.1l4-4.4l-8.4-3l6.9-9.7l-6.9-3.5l1.3-9.6l3.9-0.2l8.1-10.9l-9.3-4.5l5.1-6l-23.7-8.3
		l6.2-9.7l-6.9-4.3l-4.2,3.3l-9.2-15.6l-16.6,1.9l-3.9-4.2l-7.8,9.3l-8.3-8.4l3.2-9.7l-7.4-5.5l-9.3,1.4l-3.2-4.3l11.5-10.4
		l-0.4-8.2l9.7,2.5l6-17.9l-2-9.6l9.6,1.8l8.9-9.3l-3-8l-5.5-4.4l-3.6,2.8l-6-6.3l2.8-9l-3.4-5.3l5.1-2.8l-7.4-14.8l8-3.7L782,996
		l14.1,1.7l5.9-16.3l11.2,3l3.8-8.3L819.4,976.5z"/>
	<path id="FR-M" class="st0" d="M1401.2,319.6l5,7l2.4,14.7l11.5-6.8l7.5,4.8l4.2-9l14.2,2.4l3.7-5.1l8.8,4.3l4.3,9.2l13.4,1.1
		l2.1,9l8.2,0.7l4.3-4.1l3.7,2.9l3.7-8.3l15.3-4.4l17.2,11.4l8.8-3.5l17.5,11.6l-2.3,4l8.4,7.7l-4.6,3.9l14.1,14.1l-1.2,4.4l3.9,1.9
		l0.9,7.1l3.9-0.5l-1.7,6.5l3.7,4.8l13.3,2.3l3.6-5.8l-3.3-6.7l13.7-2.1l13,6.7l2.4,16.1l6.5-8.7l7.9,7.4l12.2-2l6.6,3.1l4.4-6
		l5,0.1l0.3-5.9l10.9-2.5l-1.2,4l8-0.9l4.7,14.9l14.2,5l0.9,3.9l-8,20.1l-5.7,5.1l-11.6-7.5l-17.3,5.2l-4.8-2.5l0.5-3.8l-23.1-6.7
		l-3.9-14.9l-4.2,2.5l-4.8,22.8l-5.7-1.1l-1.6,5.9h-4.8l1.5,8.3l12.9,3.9l0.3,3.2l6.1-0.7l-6,3.8l0.1,5.8l5.1,0.9l-1.5,5.6l6.6-3.6
		l3.7-9l14.6,4.8l-1.5,3l9,8.4l-9.9,15.6l3.2,6.1l5.3,0.5l-11.8,22.3l-7.3,5.1l-13.7,0.7l9.4,5.5l-6.1-1.2l3.8,6l-4.4,15.7l3.2,4.3
		l-4.4,5.2l5.6,3.9l8.7-1.3l2.6,6l-19.2,33.9l2.4,7.3l-10.5,18l-7.8,4.5l-4.4,16.4l2.4,2l-4.5,3.9l3.2,8.4l-11.6,5.8l-25.8-16.6
		l-5.9-8.6l-17.1,12.3l-5.9-11.5l-6.3-3.9l-25.4,5.8v-1.1l-7.6-6l-1.5-10.6l-0.3-0.2l-13,3.2l-5.1,9.6l-7.3,4.2l-3-0.5l4.4-6.1
		l-3.7-1.9l-6.9,10.4l0,0l-5.2-10.1l-7.9,5.1l-1.5-16.5l-7.5-2.1l-3.5-6.7l-9.4-1.8l5.8-4.7l1.3-14.6l6.7-3.8l-5.8-7.4l-6.3-1.6
		l1.7-5.4l-5.8-4.9l-3.1,3.7l-8.8-15.2l-6.2-1.7l-7.2,5.1l2.1-9.9l-6.6-2.4l10.5-6.6l-19.3-17.8l-15.9-3.9l-12.7-13.9l-6.6-0.1
		l-1.9-7.5l-8,3.5l1.5-26.2l-16.4-11.8l6.4-9.1l-3.4-5.4l2.9-9.7l0.6-0.6l10.7-4.4l3.2-7.2l-6.2-2.1l5.4-2l0.3-6.4l-3.8-2.5l-6,2.9
		l5.3-9.8l-8.9-24.3l7.2-5l-5.6-5.9l13.7-7.8l0.8-4.1l-4.3-3.4l4-12.1l6.5-2.3l-3.3-5.1l5.2-3.5l-0.6-8.1l-7.1-9l4-7.5l0.2-1.3
		l3.1-10.5l4.2,0.3l2.7,5.9l9.8-1.4l3.8,5.8l18.3-15.8L1401.2,319.6z"/>
	<path id="FR-N" class="st0" d="M643,1569.9l0.8,0.5l0,0l3.4,8.3l-5.7,4.1l-2.6-5.8l2.7-6.4l0,0l1-0.7l0,0H643z M647,1558.6
		l0.8,11.8l0,0l-2.3-0.6l0,0l-3.3-3.2l4-1.6l-0.5-7.1l0,0L647,1558.6z M856.6,1244.1l12.3-5.4l1.1,3.4l13.8,0.2l14.3,17.6l7.1,2.8
		l14.5-10.6l5.5,4.9l5.2-4.2l11.3-0.3l5.7,10.7l-1.6,9.1l11,16.3l-5.8,17.7l4,0.2l1.6,11l4.6,4l1.7-6.2l10.7-3.5l4.3-0.4l3.5,5.8
		l18-2l2.2-7.4l8.3-6l-1.4-6.4l6.9-7.4l0.6-10.4l18.2-18.5l5.1,5.7l-0.2,10.8l11.9-3.6l3.9,16.4l4.4-0.8l2.3,3.8l-3.5,2.4l3.4,15.7
		l6.2,6.8l13.1,16.1l-2.6,10.8l10.7,12.4l-3.4,14.3l4.8,10.5l-4.6,8.7l4.3-2.4l1.2,5.8l9.5,2.7l-3.6,7.7l21.6-2l1.4,6l-5.2,2.1
		l-1.8,9.6l-8.2,2.9l4.3,4.8l4.9-1.9l3,5.4l5.1-1.6l8.2,6.2l-0.9,5l-11.4,9.4l-2,10.5l-10.8-0.1l-4,6l1.9,6.3l-4.9,3l-20.5-4
		l-0.4,26.9l-10.4-3l-8.6,3.6l-2.2,6.6l-20.7,7.7l-4.8-5.8l-10.2-2.9l-4.1,17.7l8.1,9.5l-0.9,8.7l-8.3,7.4l-24.1-0.9l-4.9,3.7
		l-19-8.2l-5,5.3l-0.9,9l-6.1-6.1l-13.4,3.9l-4.8-7.5l-6.7,5.1l-8.9-2.2l-0.8-0.1l-3.2,4.7l-5.8-8.8l-6.9,9.4l1.7,9.6l-12.5-0.1
		l1.8,5.2l-6.4,7.7l4.9,9.1l-2.2,6.3l10.4,7.3l9.3,1.1v-2.6l5.3,8.3l3.5-3.3l5.1,3.8l1.5,8.3l-3,3.3l6,3.4l-2.2,4.6l5.1,8.6
		l-6.7-0.3l-3.2,4.1l6.3,2.4l0.8,11l-15.3,3.4l-1.3,5.8l9.2,8.9l-1.7,3.3l12.5,4.6l11.1-3.3l12.6,13.1l-1.8,3.3l-22.8,0.4l-3.3,8.2
		l-10,0.3l-4.3,6.5l-11.3,1.2l0,0l0.8-2.6l-9.2-0.4l1.4-5l-18.8-1.8l-6.7-5.4l-9.7,0.8l-0.3,6.9l-5.5,2.1l-11.1-21.6l-17.2-1.5
		l-8.4,3.6l-12.3-14.8l-13.1,0.3l-3.2-3.6l-4.7,3.1l-29.9-13.6l-6.8,4.2l1.5,6.3l-3.5,4.1l3,1.4l-3.4,3.8l4.9,5.3l-0.3,6.6
		l-10.8-2.6l-24,2.8l-8.6-6.2l-9,9.4l-4.8-7.9l-11.4-3.9l-24.4,9.7l-7.5-1.3l-1.6-4.7l-6-1.6l-6.6-13.4l-3.8,2l-17.7-12.1l-2-12.7
		l6.9-2.6l-0.9-13.3l3.7-5.9l11.1-2.7l-1.8-11.7l6.4-2.7l3.9-9.6l6.8,0.6l-0.7-8.6l2.7,0.2l4.4-9.8l-4-5.8l10.4-8.4l-4.6-4.9
		l0.4-13.8l-9.1,6.5l0.2-9.8l6.5-1.7l-6.6-14.3l-3.7,0.9l-0.4-7.3l-11.1-2.7l-8.4,2.6l-1.2-6.2l-4.4-0.5l-0.3-4.7l5.5-2.2l-1.1-9.9
		l7.6-5.7L627,1476l4.5-0.3l-2.1-9l3-2l-7.3-5.6l8.2-7.9l11.5,2.1l8.2-10.6l5.9,5.7l-3.8,4.7l11,6.2l2.3-3.9l-2.8-8.5l9.8-7.7
		l4.1,5.5l4.8-8l5.4-1.3l9.5,5.9l2-3.6l17.6-3.8l2.6-5.2l13,0.2l5.1-4.8l9.7,10.6l10.5-7.1l2.4-8.7l5.7-0.7l-1.2-6.2l10,3.2l4.4-2.1
		l-1.2-7.1l-4.4-1.7l7.3-1.2l6-15.9l-11.2-6.8l3.7-13.5l3.3-0.6l2.9,7.4l1.5-3.1l15-0.8l-0.8-11.7l-5.2-3.4l-0.1-11.7l-4.7-7.1
		l4.6,1.4l12.2-7l-1.3-3.9l8.1-8.7l-0.8-5.9l10.3-2.6l12.6-10.9l-2.4-10.7l9.3-2.9l-0.6-6.3l10.7-6.9l-3.8-6.2l4-1.2l-3.9-14.8l0,0
		l-0.6-2.3l0,0L856.6,1244.1z"/>
	<path id="FR-O" class="st0" d="M1009.4,8.1l1.8,11.4l8,12l-5.7,6l1.3,15.2l4.9,8.1l12,0.5l9.8,18.6l7.2,0.3l8.2,6.6l6.3-12.9
		l27.2-8.2l5.5,14l9.5,5.1l-2.9,9.4l7.2,28.8l11.6,7.1l9.8-3.3l3.8-5.8l6,2.1l-2.5,7.8l14.8-1.9l7.1,8.5l-0.2,18.6l6.8,13.8l5.4-9.9
		l14.1-0.2l7.1,5.4l16.8-6.9l7.1,10.3l5.6,1.6l2.8,9.8l4.1-0.1l-0.7-6.6l6.3,3.7l1.8,4.1l-9.7,8.5l0.6,10.6l-3.6,6.3l9.8,0.1
		l4.1,13.6l-9.6,4.5l-2.5,14.6l0,0l-7.7,2.2l-14.6-5.1l0.2-10.8l-13,7.4l-2.1-6l-21.6-6.9l-7,3.4l-0.6,5.1l-6.2,1l-9.6-6.3l-7.3,7.8
		l-17.4-4l-4.7,4.4l-7.1,0.3l-2.6-3.9l-11.8,4.5l-10.6-8.8l-11-1.4l-5.9,3.7l-7-1.6l-7.7,6.1l-0.9-12.1l-15.1,7.2l4.6-14.4l-7-3.1
		l-3.1-0.2l-0.5,9.8l-17.5-6.8l0.3-5.7l-3.5-0.6l-2.6,6.1l-2.5-5.8l-4.6,0.6l-8.6,10.9l-5.8-4.7l1.6-9.4l14.7-8.7l-6-7.7L988,185
		l-6.5,6l-3.6-6.9l-0.7,5.6l-7.8-3.4l-16.5,8.2l-2.7-4.1l-6.1,1.9l-1.2-11l-17.9-7.6l-2-2.5l4.6-4.7l-2.5-2l-5.3,4.2L905.5,158
		l-19.2,6.6l-3.2-4.8l0,0l-12-10.4l4.4-29.6l6.6,5.4l-8-12.1l-1.9-33.8l0.6-3.2l1.3,5.2l2.5-3.4l2.7-15.4l-4.5-14.6l11-3.2L897.3,32
		l17.3-5.7l-4-0.8l34.8-9l1.8,2.2l7.3-7.5l-1.5,3.9l4.2,4l2.3-7.9l1.1,2.5l20.3-7l3.8,2.8l22.4-9.1L1009.4,8.1z"/>
	<path id="FR-P" class="st0" d="M392.9,293l6.5,4.4l4.8-2.5l3.8,5.8l28.3,6.7l-0.7,4.9l1.7-4.7l16.6-2.4l1.9-6.1l28.5,0.2l5,18.9
		l-3.6-1.2l-2.4,8.8l0.1-2.9l-3.5,0.7l-1.6,7.3l19.6,29.6l-4.8,15.3l6.4-5.9l5.3,3.9l5.7-9.6l15-1.6l28.8,10.2L604,376l15.8,8.5
		l4.9-1.8l2.8,4.3l30.4-9.2l17.6-16.1l13.2-5.6l-15.5-0.7l23.9-0.4l0,0l5.6,19.5l-4,5l3.8,4.1l-1.9,2.7l7.3-2.9l2.9,2.4v4.5
		l-8.7,3.3l10.1,7.9l-1.3,11.8l6.7,3l-4.5,7.2l2.6,6.4l-7.2,4.7l11,7.7l-8.8,21.6l9.5,6.9l13.4,0.9l4.1-3.9l1.2,4.4l3.6-1.2
		l-0.7,4.8l3.6,0.1l-3.7,4.6l20.2,13.5l2.2,6.2l-6.3,6.4l5.7,2.4l0.3,5.3l6.1-0.1l0.5,12l20.2,18.3l-4.2,9.7l5.5,7.5l-8.5,13.9
		l-19.8,10.3l-2,4.7l7,2.2l-2.5,5.8l5.8,9.7l-4.3,3.8l-8.2,1.2L747.8,598l-2,6.3l-14.2-3.2l-6.3-12.6l-1.4,2.4l-12-4.8l-1.3-21.2
		l-11.1-11.6l-21.4,4.8l1.7,3.3L668,568l-1.8,6.4l-8.1-4.1l-6.9,4.7v-15.8L638,558l-3.7-11.1l3.9-3.6l-8.5-7.4l-5.7-0.1l1,5.8
		l-4.1,6l-6.8-3.1l-4.4,7.9l-6-5.3l-15.5,0.2l-5.7,7.4l-13.7,6l-1.7-8.5l-3.5,3.5l-5.6-1.1l2.3,4.9l-6.3,2.9l-2.6-6l-4.8,2.1
		l-4.3-9.1l-8.7,0.6l-6.4-4.3l-6.6,5.7l-9.4-3.9l-25.2-7.4l-13.7,15.5l-9.2,1.7l-9.2-5.8l-11.4-30l8.6,3l0.2-3.6l2.8,3.1l8.9-4.2
		l9.9,2.2l-8-5.5l3.5-3.4l-8.4,4.2l-16.7-19l-0.6-15.5l-5.5-2.8l10.1-20.1l-3-2l0.7-17.7l7.3,1.3l-7.7-3.7l-2.4,7.9l-3-8l-2-37.5
		l6.4-0.6l-6.4-2.8l-1.7,5.2l-11-25l-14.1-9.2l-5.2-27.6l-5.5-6.4l6.5-7.8l-1.1-12.7l-3.7-5.9l-9.9-3.4L392.9,293z"/>
	<path id="FR-Q" class="st0" d="M847.1,221.4l9.8-1.2l0.5,6.5l35.6,32.5l2.9,14.7L903,285l-5-0.2l-8.2,14.5l2.3,3l6.2-3l-7.4,11.2
		l3.3,4.4l-2.8,8.6h-0.6l7,8.9l-4.3,7.2l3.8,3l2-4.7l4.2,1.7l-2.3,7.4l0,0l-1.3,0.9l0,0l-6.6,12.3l3.5,0.4l-2.5,2.6l5.4,5.8
		l1.6,15.6l4.3,3.6l-2,6l-4.3-5.5l-6.7,1.6l-0.9,7l-11.1,30.4l-13.2,3.4l0,0h-0.7l0,0l-1.5-3.4l-2.9,7.3l-5.5-0.6l4.2,8.2l-1.2,7.9
		l6.7-0.5l-3.7,2.4l1.2,5.6l-7.3,3.7l1.7,10.7l-13.5,7.8l1.4,11.1l-5.5,4.1l-15.1,0.7l-13.8-6.5l-0.9,8.9l-7.1-2.5l-7.4,6.8h-2.8
		l-15.4,2l-1.8,5.7l-6.6,3.7l0,0l-6.1,0.1l-0.3-5.3l-5.7-2.4l6.3-6.4l-2.2-6.2l-20.2-13.5l3.7-4.6l-3.6-0.1l0.7-4.8l-3.6,1.2
		l-1.2-4.4l-4.1,3.9l-13.4-0.9l-9.5-6.9l8.8-21.6l-11-7.7l7.2-4.7l-2.6-6.4l4.5-7.2l-6.7-3l1.3-11.8l-10.1-7.9l8.7-3.3v-4.5
		l-2.9-2.4l-7.3,2.9l1.9-2.7l-3.8-4.1l4-5l-5.5-19.2l0,0l1.3-3.7l-3.2,2.5l-21.6-6.6l-6.5-8.4l11.9-28.6l-4-5.3l4.3,2l7.1-11
		l17.8-7.1l34.2-23.3l25.5-3.9l25.7-10.9l8.1,2.3l9-4l1.4,3.8l-0.9-4.2l14.7-7L847.1,221.4z"/>
	<path id="FR-R" class="st0" d="M348.7,848.6l5.4,3.8l-2,6.8l10.3,5.2l1,10.9l-8-12.7l-7.3-0.3l-5.3-6.4l-0.9-6.7L348.7,848.6z
		 M511.2,547.5l9.4,3.9l6.6-5.7l6.4,4.3l8.7-0.6l4.3,9.1l4.8-2.1l2.6,6l6.3-2.9l-2.3-4.9l5.6,1.1l3.5-3.5l1.7,8.5l13.7-6l5.7-7.4
		l15.5-0.2l6,5.3l4.4-7.9l6.8,3.1l4.1-6l-1-5.8l5.7,0.1l8.5,7.4l-3.9,3.6L638,558l13.2,1.2V575l6.9-4.7l8.1,4.1l1.8-6.4l11.8-6.6
		l-1.7-3.3l21.4-4.8l11.1,11.6l1.3,21.2l12,4.8l1.4-2.4l6.3,12.6l14.2,3.2l2-6.3l11.6,15.3l8.2-1.2l0,0l16,11.6l-8.9,1.1l-1.3,6
		l-3.8,0.9l4.4,1l-0.3,4.5l-6.8,0.5l0.5,6.8l6.2,1.5l-3.2,8.9l4.2,9.4l-4.6,1.6l-0.6,8.9l-2.9-4.8l-4,2.3l1,14l-10.4,9.9l1.3,3.3
		l-10.3,3.1l-5.6,6.9l1.4,6l3.2-1l-3.1,4.3l-18.1,5.5l-2,5.2l-9-5l-2.6,4.9l5.3,8.3l-2.7,1.7l-20.8-7.1l0.2,1.7l-5.5,11.6l4.4,2.4
		l-0.6,5.5l-9.4,20.4l4,3.6l-14.4,20.2l-3.1,23.7l-4.8-2.5l-3.6,3l-4,14.8l-6.9-2.8l-5.9,9.3l-6.8-3.2l5-6.7l-5.7-1l-2.8,2.8
		l-8.4-2.3l-17.9,2.9l-1.5,4.9l-10.1,2.7l3-5.7l-4.8-0.4l-8.5,3.9l1.8,6.3l-7.6,7.1l-9.8-1.3l-6,3.9l-10-4.3l-8.9,7.1l-6-0.9
		l4.5,2.5l-2,3.2l4.2,0.1l-1.6,2.2l7.1,2.7l-3.2,7.2l7.6,9h0.6l5.5,3.7h1l3.6,2.3l-2.7,2.5l0,0l0.1,0.8l0,0l-0.3,7.4l8.7,11
		l-3.2,2.8l5.8,4.6l-3,5.4l5.9,2.9l-1.8,9.2l3.2,8.6l-6,2.4l5.4,13l-4.5,11.4l2.9,1.3l2-4.4l9.1,5.8l-14.8,13.5l-6.9-1.7l-3.3,4.6
		l-14.5-7l0,0l-0.6-0.9l0,0l-2.6,4.9l-5-1.8l-6.2,3.3l-4.1-2.5l4.3-9.6l-17,4.2l-2.9,6.4l-5.6,0.1l0,0l-11.8,0.3l-0.6,8.9l-15-12.7
		l2.8,8.5L474,985h-17l-6.4-12.2l-18.4-3.2l-22.6-14.9l-6-23.1l-12.5-17.4l-26.6-24.8l-1.4-13.5l5.7-0.5l-1.2-3.4l11.8-12l0.7-8.1
		l6.9-4l-16.6-17.3l-20.2-3.6l11.1-7.2l-0.7-19.3l-5.5-1.2l-12,7.5l-10.4-9.2l-7.7,4l-15.5-6.4l5-3.7l0.4-6l-7.4-7.3L321,769
		l-0.2-4.8l4.7-5.8l3,4.2l11.6-1l2.6-11.2l7.4,4.4l8.2-3.7l2.9,4.6l0.9-6.4l8.1-2.3l2.2-23.7l14.9-8.9l2.5,4.6l13-7.6l27.5-0.2
		l5.2-11l20.5-8l-0.8-6.6l12.4,1.4l3.4,5.9l16,4.6l12.6-38.4l19-7.8l-8-40.5l-0.6-0.5l-3.1-12.9l7.7-12.9l-4.7-17.8L511.2,547.5z"/>
	<path id="FR-S" class="st0" d="M881.3,158.3l1.9,1.6l0,0l3.1,4.7l19.2-6.6l14.3,10.7l5.3-4.2l2.5,2l-4.6,4.7l2,2.5l17.9,7.6l1.2,11
		l6.1-1.9l2.7,4.1l16.5-8.2l7.8,3.4l0.7-5.6l3.6,6.9l6.5-6l6.6,0.8l6,7.7l-14.7,8.7l-1.6,9.4l5.8,4.7l8.6-10.9l4.6-0.6l2.5,5.8
		l2.6-6.1l3.5,0.6l-0.3,5.7l17.5,6.8l0.5-9.8l3.1,0.2l7,3.1l-4.6,14.4l15.1-7.2l0.9,12.1l7.7-6.1l7,1.6l5.9-3.7l11,1.4l10.6,8.8
		l11.8-4.5l2.6,3.9l7.1-0.3l4.7-4.4l17.4,4l7.3-7.8l9.6,6.3l6.2-1l0.6-5.1l7-3.4l21.6,6.9l2.1,6l13-7.4l-0.2,10.8l14.6,5.1l7.7-2.2
		l0,0l12.2,4.6l0,0l-2,9.3l5.2,2.4l-0.3,7.3l-6.5,19l6,4.9l-8.9,12.3l-8.1,4.4l-1.6,9.5l-10.1-1l-2.4,3.3l7.5,10.7l-3.9,5.5l4.1,4.3
		l-5.2,3.6l3.7,12.9l-4.2,1.5l-0.2,16.4l-10.6-3.6l-4.9-6.2l-9.3,5.6l-0.6,7.4l-10.1-2.4l-18.2,9l4.4,16.8l-3.3,4.6l3.9,3.3l2.3-2
		l2.2,6.3l4.6-0.8l-0.1,4.7l-5.9,3.5l-11.4-1.7l-2.9,6.4l5.1,8.9l-7,3.5l-0.2,4.9l9-1.3l3.7,6l-12,11.2l1.8,3.6l-4,0.7l-0.5,5.1
		l-5.8,0.5l-5.9,12.5l-3.1,3l-2.1-4.7l-8.6-2.4l-2.1-11.7l-5.3,4.2l-3.3-8.5l-5.5,2l-1.8-7l-11.5-8.3l3.2-7.9l-7.1-11.7l-9.4-2.3
		l-0.5,6.6l-7.9-1.3l-2.9,4.3l-2.6-4.3l-16,4.4l-6-5.5l-10.2,7.5l-13.9-9.9l-6.8,6l-4.3-9.3l-2.8,5.1l-5.8-1.4l1.8-2.4l-6-4.8
		l-3.5,1.5l0.8-2.7l-8.9-2.7l-2.4,2.4l-6-8l-3.9,5.6l-7.2,1.8l-2-5.9l-6.6,3.3l-12.3-9.8l-10.8,7.2l-16.3,2.7l-10.9-4.7l-6.7,2
		l-2.5-4.1H895l1.7-6.1l-5-1.6l0.9-7l6.7-1.6l4.3,5.5l2-6l-4.3-3.6l-1.6-15.6l-5.4-5.8l2.5-2.6l-3.5-0.4l6.6-12.3l1.3-0.9l2.3-7.4
		l-4.2-1.7l-2,4.7l-3.8-3l4.3-7.2l-7-8.9h0.6l2.8-8.6l-3.3-4.4l7.4-11.2l-6.2,3l-2.3-3l8.2-14.5l5,0.2l-7.1-11.1l-2.9-14.7
		l-35.6-32.5l-0.5-6.5l-9.8,1.2l10.1-9.9l9.7-21l6.3-2.1l2.7,6.3l9.8,2.6l4-2.9L869.2,176l2.2-18.7L881.3,158.3z"/>
	<path id="FR-T" class="st0" d="M465.1,1043.5l12.6,10.6l10.6,2l0.2,10.8l6.8,13.6l-6.1,11.8l-5.2-16l-16-14.3L465.1,1043.5z
		 M451,1002.1l5,4.6l-6.4,0.9l2.6,5l12.1-5.2l-3.6,3.3l2,2.4l8.2-1.5l15.7,9.1l-7.9,3.9l-20.9-11.7H448l-3.9-8.2L451,1002.1z
		 M505.2,990.1l5.6-0.1l2.9-6.4l17-4.2l-4.3,9.6l4.1,2.5l6.2-3.3l5,1.8l2.6-4.9l0.6,0.9l14.5,7l3.3-4.6l6.9,1.7l14.8-13.5l-9.1-5.8
		l-2,4.4l-2.9-1.3l4.5-11.4l-5.4-13l6-2.4l-3.2-8.6l1.8-9.2l-5.9-2.9l3-5.4l-5.8-4.6l3.2-2.8l-8.7-11l0.3-7.4l-0.1-0.8l2.7-2.5
		l-3.6-2.3h-1l-5.5-3.7h-0.6l-7.6-9l3.2-7.2l-7.1-2.7l1.6-2.2l-4.2-0.1l2-3.2l-4.5-2.5l6,0.9l8.9-7.1l10,4.3l6-3.9l9.8,1.3l7.6-7.1
		l-1.8-6.3l8.5-3.9l4.8,0.4l-3,5.7l10.1-2.7l1.5-4.9l17.9-2.9l8.4,2.3l2.8-2.8l5.7,1l-5,6.7l6.8,3.2l5.9-9.3l6.9,2.8l4-14.8l3.6-3
		l4.8,2.5l3.6,9l8.2-1.2l-0.7,3.6l3.7,1.2l2.7-2.8l2.5,4.8l-3,6.5l9.2-2.5l3.2,5.8l4.8-1.7l1.3,10.6l-2.9,1.6l4.4,12l5.7-3.8l10,4
		l9.2-5.9l12.7,0.3l-4.2-9.8l6.8-0.3l10.1,6.8l1.8,14.1l12.6,10.7l2.6,12.1l13.1,12.3l2,6.5l-4.8,12.9l2.5,5.7l14.2,6.8l0.7,6.1
		l10-0.1l7,5.8l0.9,11.5l8.4,2.9l-2.1,6.3l-2.5,3.3l-2.4-0.4l-3.8,8.3l-11.2-3l-5.9,16.3L782,996l-7.2,11.2l-8,3.7l7.4,14.8
		l-5.1,2.8l3.4,5.3l-2.8,9l6,6.3l3.6-2.8l5.5,4.4l3,8l-8.9,9.3l-9.6-1.8l2,9.6l-6,17.9l-9.7-2.5l0.4,8.2l-11.5,10.4l-8.9,15.2
		l-7.5,0.1l-0.9,15.9l-7.6,5.4l-2.4,7.4h-7l-6.9,8.5l-3.9-3.4l2,4.4l-5.6,1.9l-3.9,11.3l2.6,14.1l-12.5,7.1l-5.5,10.6l-10.8-4.1
		l-6.5,4.8l-3.7,7.3l3.2,2.3l-5.6,2.5l-1,8l-6-4.5l-7.6,6.2l-6.5-0.9l-9.3-4l-2.9-5.4l-4.7,0.9l-3.3-5.5l-3.5-0.7l-2.8,5.1l-2.4-7.4
		l-0.2-0.9l-3.2-17.9l-19.2-3.5l-3.1-9.8l-1.1,5l-16.4-1.3l-5.3-19.4l-8.8-13l-20.6-13.3l-7.3-12.2l-25-14.5l-3.7,0.8l1.6,4l-2-4
		l-0.2-18.3l14.2-3.3l-6.2-9.9l8.7-1.1l5.5-9.6l-3.5-7.4l3-0.8l-0.7-5.8l-5-4.7l9.3,0.1l-6.7-18.2l-5.7-2.3l2-4l-6.2-2.2l3.2-3.8
		l-7.8,2.4l-4.3-3.6l5.1-9.5l12.3-9.5l-3.2-8.4L505.2,990.1z"/>
	<path id="FR-U" class="st0" d="M1342.5,1359.2l1.3,1.5l0,0l9.6,5.8l0,0l0.1,1.1l0,0l-6.5,3.1l-5,13l-13.4-2.2l-2.2-8.6l5-9l0,0
		l1.2-2.1l0,0l1.1-0.6l0,0l2.3-0.5l0,0l4.2-3.4l0,0l0.6,1.4l0,0l1.4,0.2l0,0L1342.5,1359.2z M1390.6,1587.7l4.7-7.8l-4.1-4.7
		l3.8-2.5l-8.9-12.4l-11.1,6.1l-24.5,0.7l-11-18.9l-6.8-1.3l-3.6,5.1l1.7-4.6l-3.3,1.9l-2.8-6.7l2.3,8.3l-6.8-3.6l4.5,5.3l-7.6,3
		l6.3-0.4l-2.2,2.2l5.9,3.8l5.3-4.6l-11,9.9l-34.9-6.1l-3.3-3.8l4.5-7.8l-7.9-5.7l-41.9-1.3l1.5-7.4l11.2-5.4l-1.4-5.1l2.8,3.7
		l17.6-10.2l1.4-4.4l-6.3-2.2l8.2-13.8l7.5-1.9l12.1,4.1l-2.1-7.6l7.5-22.6l-3.5-4.1l23.7-18.3v-4.8l4.2-0.2l-8-14.6l-9-3l0.1-20.2
		l-1.9-5.1l-4.7-0.2l-3.2-10.5l0.4-11.6l18.9,3.2l4.2,16.4l33-15.3l6.7,5.8l5.8-6.1l0,0l2.2-1l0,0l-2,15.8l10.6,4l2.7-3.8l6.7,4.6
		l7.8-1.4l4.1,2.7l-0.3,8.6l7.2,0.7l2.7,6.2l11.9-2.5l8.2-11.2l5.2,4.5l-1.2,3.3l6.5,0.8l0.6-3.3l-5.4-1.5l5.9-4.7v-13.5h-5.4
		l-1.4-6.4l-3.9-1.1l2.9-5.2l-11.2,0.6l-3.6-3.9l-3.9,2.5l-8.6-7.1l-1.6-9.6l7.9,1.1l2.9-3.4l-4.6-2l-0.9-9.8l21.4,5.3l2-5.5
		l4.9-0.4l-9.2-8l7-13l-0.7-7.7l11.8,2.4l2.8-4.4l5.5,1.7l5.6-7.1l-4.3-3.1l3.9-10.2l7.7,2.5l9.4-2.7l4-4.1l-4.2-4.5l9.3-6l5.3,3.8
		l10.6-9.3l15.6,2.4l6-4.2l8.8,3.7l0.3-16.3l-4.9-2.8l0.2-8.7l-16.4-3.4l5.7-20.2l6.6,2.4l5.4-2.9l4.3,10.3l11.8,3.5l4.9-0.6
		l-0.9-7.3l4.1-3.2l4.3,1.8l5-4.7l7.2,2.9l0,0l5.8,17.5l9.7,1.1l0.9,21l15.4,10.6l6.4,1.2l3.5-3.5l11.9,7.5l-3.1,6.6l10.4,20.3
		l-15.6,1.2l0.7,11.1l-15.3,17.3l3.1,9.2l9.6,9.7l-7.6,1.6l-0.7,11.3l14.7,15.7l1.7,8.5l24.8,6.6l12.6,11.5l8.7-1l2,5.9l9.2,0.6
		l0.8-3.5l25.8-3.7l2.5-5.2l6.5,0.4l-2.4,8.3l6.6,9l-1.2,7.9l-5.8,2.6l-1.4,10.3l-11.7,6.1l-1.2,8.7l-8.4,4.4l4.8,17.1l-17.1,12
		l-9.2,1.2l-0.8,6.9l-2.4-5.8l-1.5,4l-8.5-0.7l-4.6,7.3l-7.1-0.5l-4.8,12.5l3.2,6.6l-3.3,1.9l-3.1-5.5l-8.2,6.7l-3.1-3l-7.3,1.7
		l-3.5,5.3l2.7,3.2l-9,12.8l-14,3.8l-6-2.7l-3.9,14.1l-19.4,14.2l16.8,1l-4.4,4.5l2.2,8.1l-5.4,2.4l0.7,3.6l-3.6,1.8l-8.2-5.8
		l-8.9,7.2l-15.4,1.2l-2.8,10.9l-12.3-6.5l-12,1.2l-5,9.3l0.7,7.2l-8.2-0.4l4.7-2.9l-0.7-6.5l-14.1,0.2l-2.7-5.2l-10.1,0.7l-0.7-4.2
		l-5.5,4.2l9.1,6.4l-7.8-2l-4.4,6l-4.3-0.6l-4.9-3.5l2.1-8.7l-5.7-0.2l0.8-4.3l-10.6-0.9l-1.3-6.8l-8.8-1.2l-2.4,5l-9.4-10.2l-5,3.3
		L1390.6,1587.7z"/>
	<path id="FR-V" class="st0" d="M1193.1,998.3l-1.5,12.4l11.2,2.2l2.3,6.6l15.6-5.8l10.3,4.9l4-4.1l2.5,3.3l3.9-2l-0.6,5.8l3.5,0.4
		l13.3-5.8l4.5-21.7l7.3-0.3l6.2,5.8l8.8-5.2l6.8,5.6l2.6-7l5.8-1l4.2,5.4l-4.3,3.9l7.8,5l-2.3,7.6l5.3,4.4l3-0.8l22.1-67.8l1.3,3.5
		l4.6-2.8l10,6.1l15.1-3.9l0.2-3l5.2,2.7l4.1,9.5l10.6,2.4l0,0l-2.1,6.6l10.7,6.1l-2.2,2.4l5.8,11.8l2.8-7.4l1.8,6.4h5.2l-0.2,10.1
		l9-0.8l14.3-15.1l0.5,4.1l9.2,2.9l1.6,9.6l19.8-0.8l26.8-29.9l0,0l14.4,9.8l-9.3,16.2l3.1,6.7l-19.8,6.8l-2.1,4l4.1,3l-5.1,10.5
		l13-4.6l10.5,2.4l22.9-16.8l1.9-6.1l-6.7,0.9l-1.8-10.3l-3.8-1.7l4.4-9.5l36.5-19.3l22.4,0.5l18.9,5.5l-6.8,14.2l12.9,14.7
		l-8.3,15.1l-1,13l13.9,2.6l-3.1,15l8.1-3.2l14.1,21.7l0.9,6.1l-6.5,10.1l-11.4,6.2l-12.7,0.8l-1.8,21.8l14.8,14.5l11.6,2.3
		l-3.1,10.1l3.2,16.2l7.5,2l-0.7,4.4l6.9,0.5l2,7.1l10,5.3l-10.6,15.3l3.4,13.9l-9,8.6l-9.4-1.6l-7.7,9.8l-7.2,0.3v6.1l-6,1.8
		l-11.1-6.3l-18.5,9.8l-7.2-2.9l-5,4.7l-4.3-1.8l-4.1,3.2l0.9,7.3l-4.9,0.6l-11.8-3.5l-4.3-10.3l-5.4,2.9l-6.6-2.4l-5.7,20.2
		l16.4,3.4l-0.2,8.7l4.9,2.8l-0.3,16.3l-8.8-3.7l-6,4.2l-15.6-2.4l-10.6,9.3l-5.3-3.8l-9.3,6l4.2,4.5l-4,4.1l-9.4,2.7l-7.7-2.5
		l-3.9,10.2l4.3,3.1l-5.6,7.1l-5.5-1.7l-2.8,4.4l-11.8-2.4l0.7,7.7l-7,13l9.2,8l-4.9,0.4l-2,5.5l-21.4-5.3l0.9,9.8l4.6,2l-2.9,3.4
		l-7.9-1.1l1.6,9.6l8.6,7.1l3.9-2.5l3.6,3.9l11.2-0.6l-2.9,5.2l3.9,1.1l1.4,6.4h5.4v13.5l-5.9,4.7l5.4,1.5l-0.6,3.3l-6.5-0.8
		l1.2-3.3l-5.2-4.5l-8.2,11.2l-11.9,2.5l-2.7-6.2l-7.2-0.7l0.3-8.6l-4.1-2.7l-7.8,1.4l-6.7-4.6l-2.7,3.8l-10.6-4l2-15.8l-2.2,1
		l-5.8,6.1l-6.7-5.8l-33,15.3l-4.2-16.4l-18.9-3.2l-0.4,11.6l-19.8-14l-7.1,1l-2.1,10.5l-5.8-1.4l-0.5-10.7l-9,1.6l-9.5,14
		l-17.5-13.7l-11.2,3.4l-1.1-13.8l3.9-2.7l-11.1-12.8l-4.9-18.9l-6.8-4.5l-5.7-28.8l9.2-4.6l3.5-11.2l5.3,3l-0.8-4.1l2.4,2.5
		l3.9-2.6l0.9-7.5l16.7-0.1l9.4-17.4l12.2-1.9l-2.4-9l11.4-3.3l-4.5-7.7l3.4-5.8l3.8,0.3v-1.8l-3.4-5.8l6.7,1.4l1.8,5.1l3-1.8
		l-1.3-8.1l5.9-12.1l-7.5-10.1l-6.9,3.6l-5-3.6l3-5.2l-5.4-3.2l4.9-3.6l-4.5-6.2l-8.6,2l-5.3-6l-7.5-0.7l-4.6,1.7l1.2,3.7l-9.9,1.3
		l-1.4,4.4l-6.9-2.6l-0.3,4.2l-4.5-8.6l-5.2-0.8l-6,8.2l-2.1-11.9l10.2-8l2.9-11.7l-7-16l-15.1-10.4l-6.4-11.7l0.5-6.6l-12.6-13
		l4.6-4.4l-1-11.1l5.3-3.1l-8.5-8.7l1.1-7.8l11.8-0.7l5.9-5.1l-3.5-10.7l2.2-6.9l-3.9-4.6l2.2-10.1l-5.6-15.1l15.9-6.9l1.2-0.2
		L1193.1,998.3z M1333.7,1361.2l-1.1,0.6l-1.2,2.1l-5,9l2.2,8.6l13.4,2.2l5-13l6.5-3.1l-0.1-1.1l-9.6-5.8l-1.6-1.8l-1.4-0.2
		l-0.6-1.4l-4.2,3.4L1333.7,1361.2z"/>
	<g>
		<path class="st0" d="M442.5,521.5l-28.2,6.2l-12.4-7l4.5-8.5l-1-6.8l-20.3,6l-5.7,10.1l4.9,4l-2.1,3.5l7.1,1.5l1.9,4.4l-5.4-2.9
			l6.6,13.2l-3.6-1.2l-2.8,6.3l1.7-10l-5.8-5.8l2.5-2.2l-5.5-3.6l-1.5-8.1l-14.3,1.1l3.8,6.8l-3.6-3.6l-3.9,8.7l-2.3-7.2l-3.9,12.5
			l1.9-7.6l-4.5-11.9l-9.7,7.1l-3.2-2.1l7.3-10l-4.8-4.2l-13.9,12.3l-2.4-4.8l-7,1.6l2,4.7l-11.1,4.7l-10,16.1l-7.6-2.2l1.2,9.2
			l-5.3-9.2l-3.9,1.6l3.7-6.4l-14.8-8.2l0.7-11.1l-17.6-14.9l2.3-7.2l-15.8-5.1l5.4-4.1l-1-4.8L235,483v-10l-18.4,7.5l-0.7-7.4
			l-5.6,6.7l-7.8-0.8l-10.7,7.9l-5.8,0.4l1.8-4.7l-4.3,1.1l-2.9-4.6l-1.5,3.6l-1.8-3.9l-6.9,9.9l-4.4-3l2.7,2.3l-2.4,7.9l4.9,2.5
			l-4.8,4.3l0.2,11.3l-5.6-3.3l-4.9,5.7l2-7.7l-4.9,2l-19.7-6.9l0.4,3.8l-1.5-2.8l-3.2,5.2l1.2,6l-10.6-2.8l-0.3-5.1l-0.8,7.5
			l-5.5-2.3l0.2-11l-4.2,3.2l-0.8-3.3l-6.2,4.5l-0.8,6.2l-5.6-4L84,510.7l-5,5.8l3.7,1.4l-13.8,3.8v-6.4l-6.9-2.6l-12.4,4.7l4.9,3.6
			l-13.4,3.3l-5.9-3.3l-2.9,8.1l-5.8-1.3l-0.6,5.7l-16.4,4.2L3,546l2.2,10l-4.7,11l4.6,6.4l-3.9,4.3l2.4,6.6l9-0.4l3.6-4.9l9.9,3.5
			l25.2-11.8l3.3,2.6l-8,11.7l8.4-3.2l-2.7,3.7l6-0.3l7.5-7.4l-1.8,4.7l4,1.9l-4.7,3.2l12.3,3.2l3.6-3l-5.3,6.9l-6.4-3.6L55,595.8
			l-7.3-4.5l-7,3.2l0.4-6.3l-4.9,5.6l-2.8-3.9l3.2-7.8l-5.4,2.1l0.2,10l-8,0.5l0.9,5.2l10.8,1.1l-4,3l1.9,13.2l8.2-12.7l4.8-1.4
			l20.3,7.2l6.6,15.2l-5.2,8.3l-15.3-3.6l-40.9,8.7l1.1,4.3l-4.1,0.9l14.3,2.1l8.7,5.9l8-1.1l12.3,9l8.6,15.2l-1.3,18.7h24.2
			l6.2-12.3l5.6-3l8.8,5.8l9.2-2.4l-2-5.9l5.9-3.9l4.9,10.7l4-1.8l-2.8,4.9l6.5,8.9L147,692l6.7,5.9l20.8,2.5l10.1,13.8l12-3l0.7,5
			l10.2,0.1l18.7,18.2l2,10.3l-3.8,3.1l4.3,11.4l7.1,0.9l-6.6-9.1l0.6-11.3l14.1,0.4l-0.7-5l2.8,5.2l2.1-2.7l3.6,5.3h7.1l12.9,13.5
			l42-7.7l9.4,5.2l-8.3,1.3l0.9,8.5l5.1,0.4l0.2,4.8l-13.5,9.2l7.4,7.3l-0.4,6l-5,3.7l15.5,6.4l7.7-4l10.4,9.2l12-7.5l5.5,1.2
			l0.7,19.3l-11.1,7.2l20.2,3.6l16.6,17.3l-6.9,4l-0.7,8.1l-11.8,12l1.2,3.4l-5.7,0.5l1.4,13.5l26.6,24.8l12.5,17.4l6,23.1
			l22.6,14.9l18.4,3.2L457,985h17l6.6,10.1l-2.8-8.5l15,12.7l0.6-8.9l11.8-0.3l-2.6,2.9l3.2,8.4l-12.3,9.5l-5.1,9.5l4.3,3.6l7.8-2.4
			l-3.2,3.8l6.2,2.2l-2,4l5.7,2.3l6.7,18.2l-9.3-0.1l5,4.7l0.7,5.8l-3,0.8l3.5,7.4l-5.5,9.6l-8.7,1.1l6.2,9.9l-14.2,3.3l0.2,18.3
			l2,4l-1.6-4l3.7-0.8l25,14.5l7.3,12.2l20.6,13.3l8.8,13l5.3,19.4l6.4,38.3l10,23.3l-13-12.7l-15.7-52.6l-36-32.2l1.8-3.6l-3.5-0.2
			l5.3-0.9l-2.9-7.3l-4.6,3.4l-8.5,15.8L484.9,1319l2.1,3.4l2-15l9-15.9l18.3,15.3l-4.9,0.1l7.1,3.3l1.9,8.2l-26-4.4l-8.6,22
			l-5.5,63.6l-20.5,106.8l-21.1,40.4l-9.2,8.4l-16.6,2.8l0.2,4.4l6.8,3.8l1.1,6.4l14.4-2l2.2,10.3l4.4,0.4l1.9-7.2l3.8-1.1l20.1,6.7
			l0.9,12.9l-4.5,11.5l-8.1,7.4l4.5,7.9l11.8,3.3l1.4-12.5l10-4.4l-5.2,9.3l6.4,4.7l4.6-2.2l8.9,3.7l2.9,5.1l3.8-3l23.5,13.2l26-2.7
			l3,13.3l7.4,2.2l17.3,20l6.3-9.2l8.7,6l6.6-0.7l11.2-9.4l17.7,12.1l3.8-2l6.6,13.4l6,1.6l1.6,4.7l7.5,1.3l24.4-9.7l11.4,3.9
			l4.8,7.9l9-9.4l8.6,6.2l24-2.8l10.8,2.6l0.3-6.6l-4.9-5.3l3.4-3.8l-3-1.4l3.5-4.1l-1.5-6.3l6.8-4.2l29.9,13.6l4.7-3.1l3.2,3.6
			l13.1-0.3l12.3,14.8l8.4-3.6l17.2,1.5l11.1,21.6l5.5-2.1l0.3-6.9l9.7-0.8l6.7,5.4l18.8,1.8l-1.4,5l9.2,0.4l-0.8,2.6l-7.6,3
			L895,1722l13,1.5l7.9,7l7.3-0.7l4,13.1l7.3,6.3l9.4-2.6l9.6-11.3l6.3,1.4l7.6-4.1l24.2,8.2l6.7,9.8l6.6,1.3l6.4-4.7l13,3.3
			l-2.7-8.5l3.1-3.4l8.1-3.6l6.2,2.2l8.4-8.7l10.7,0.5l4-4.8l2.7,3.1l10.1-1.4l6.2,8.8l12.1-1.7l-6-8.8l1.5-6.2l-12.8-4.5l-2.5-30.4
			l4.4-39.9l-2.3-8.7l5.2-17.1l13.4-21.7l22-17.9l-1.2-4l23.6,3.9l0.9-3l-0.7,3.3l18.8-21.8l11.1-3.2l33.9-27.3l18.5-1.4l4.4,3.9
			l-2.8,4.3l2.2,4.4l13.1,4.9l41.9,1.3l7.9,5.7l-4.5,7.8l3.3,3.8l34.9,6.1l11-9.9l-5.3,4.6l-5.9-3.8l2.2-2.2l-6.3,0.4l7.6-3
			l-4.5-5.3l6.8,3.6l-2.3-8.3l2.8,6.7l3.3-1.9l-1.7,4.6l3.6-5.1l6.8,1.3l11,18.9l24.5-0.7l11.1-6.1l8.9,12.4l-3.8,2.5l4.1,4.7
			l-4.7,7.8l22.1,3.3l5-3.3l9.4,10.2l2.4-5l8.8,1.2l1.3,6.8l10.6,0.9l-0.8,4.3l5.7,0.2l-2.1,8.7l4.9,3.5l4.3,0.6l4.4-6l7.8,2
			l-9.1-6.4l5.5-4.2l0.7,4.2l10.1-0.7l2.7,5.2l14.1-0.2l0.7,6.5l-4.7,2.9l8.2,0.4l-0.7-7.2l5-9.3l12-1.2l12.3,6.5l2.8-10.9l15.4-1.2
			l8.9-7.2l8.2,5.8l3.6-1.8l-0.7-3.6l5.4-2.4l-2.2-8.1l4.4-4.5l-16.8-1l19.4-14.2l3.9-14.1l6,2.7l14-3.8l9-12.8l-2.7-3.2l3.5-5.3
			l7.3-1.7l3.1,3l8.2-6.7l3.1,5.5l3.3-1.9l-3.2-6.6l4.8-12.5l7.1,0.5l4.6-7.3l8.5,0.7l1.5-4l2.4,5.8l0.8-6.9l9.2-1.2l17.1-12
			l-4.8-17.1l8.4-4.4l1.2-8.7l11.7-6.1l1.4-10.3l5.8-2.6l1.2-7.9l-6.6-9l2.4-8.3l-6.5-0.4l-2.5,5.2l-25.8,3.7l-0.8,3.5l-9.2-0.6
			l-2-5.9l-8.7,1l-12.6-11.5l-24.8-6.6l-1.7-8.5l-14.7-15.7l0.7-11.3l7.6-1.6l-9.6-9.7l-3.1-9.2l15.3-17.3l-0.7-11.1l15.6-1.2
			l-10.4-20.3l3.1-6.6l-11.9-7.5l-3.5,3.5l-6.4-1.2l-15.4-10.6l-0.9-21l-9.7-1.1l-5.8-17.5l18.5-9.8l11.1,6.3l6-1.8v-6.1l7.2-0.3
			l7.7-9.8l9.4,1.6l9-8.6l-3.4-13.9l10.6-15.3l-10-5.3l-2-7.1l-6.9-0.5l0.7-4.4l-7.5-2l-3.2-16.2l3.1-10.1l-11.6-2.3l-14.8-14.5
			l1.8-21.8l12.7-0.8l11.4-6.2l6.5-10.1l-0.9-6.1l-14.1-21.7l-8.1,3.2l3.1-15l-13.9-2.6l1-13l8.3-15.1l-12.9-14.7l6.8-14.2
			l-18.9-5.5l-22.4-0.5l-36.5,19.3l-4.4,9.5l3.8,1.7l1.8,10.3l6.7-0.9l-1.9,6.1l-22.9,16.8l-10.5-2.4l-13,4.6l5.1-10.5l-4.1-3l2.1-4
			l19.8-6.8l-3.1-6.7l9.3-16.2l-14.4-9.8l1-9.2L1502,945l-6.3-6.2l46.9-39.5l-2.9-7.4l4.6-15.3l-4.4-7.8l8.9-9.2l17.1-3.7l13.4-11.6
			l-2.2-6.2l18.7-13.4l2.7-3.2l-2.4-1.4l15.6-14.3l-1.7-9l7.3-1.5l1.9-6l6.2-1.8l-0.9-5.8l-4.5-2.2l-18.8,4.1l8.4-16.2l8.5-4.2
			l-2.6-8.2l20.5-1.9l9.5,1.8l-4.4,10.1l8.5,0.9l1.5,3.6l11.7-4l7.9,1.8l9.5-7.9l-4.8-1.9l1.5-3l7.8,2.6l3.1-3.2l-1.8-4.5l4.5-1.5
			l-4.3-2.3l11.6-7.3l1.1-5.8l-10.9-18.9l5-7.4l-2.5-9.2l3.7-20.3l9-19L1696,645l1-17.7l12.3-20.8l3.6-16.5l7.1-5.2l-1.7-13.8
			l5-19.7l5.2-5l-0.8-14.3l5.3-11.8l17.1-16.8l1.1-7.3l16.1-9.4l8.1-21.2l11.4-12.8l-19.1-5l-21.8-14.3l-9.2,5.1l-9.9-6.7l-8.1,4.6
			l-0.4-2.7l-13.1,0.6l-0.9-3.9l-14.2-5l-4.7-14.9l-8,0.9l1.2-4l-10.9,2.5l-0.3,5.9l-5-0.1l-4.4,6l-6.6-3.1l-12.2,2l-7.9-7.4
			l-6.5,8.7l-2.4-16.1l-13-6.7l-13.7,2.1l3.3,6.7l-3.6,5.8l-13.3-2.3l-3.7-4.8l1.7-6.5l-3.9,0.5l-0.9-7.1l-3.9-1.9l1.2-4.4
			l-14.1-14.1l4.6-3.9l-8.4-7.7l2.3-4l-17.5-11.6l-8.8,3.5l-17.2-11.4l-15.3,4.4l-3.7,8.3l-3.7-2.9l-4.3,4.1l-8.2-0.7l-2.1-9
			l-13.4-1.1l-4.3-9.2l-8.8-4.3l-3.7,5.1l-14.2-2.4l-4.2,9l-7.5-4.8l-11.5,6.8l-2.4-14.7l-5-7l-3.2-3.3l-6.6-3l-4.7,4.2l2.4-9
			l-8.4-8.9l-14.3,0.5l-9.9-14.7l-13.6-7.9l-19.7,1.5l3.2-5.6l-3.8-10l5.7-9.1l-13.5-12.6l7.1-14.8l-2.9-5.8l4.3-7.8l2.9,2.9
			l-0.6-6.8l3.9-3.6l-8.3-3.7l-1.4-2.8l-16.8,15.6l-3,6.1l1.8,15l-13,1.9l-20.8,10.5l-18.7-6.7l-10.7,2.2l-12.2-4.6l0,0l2.5-14.6
			l9.6-4.5l-4.1-13.6l-9.8-0.1l3.6-6.3l-0.6-10.6l9.7-8.5l-1.8-4.1l-6.3-3.7l0.7,6.6l-4.1,0.1l-2.8-9.8l-5.6-1.6l-7.1-10.3
			l-16.8,6.9l-7.1-5.4l-14.1,0.2l-5.4,9.9l-6.8-13.8l0.2-18.6l-7.1-8.5l-14.8,1.9l2.5-7.8l-6-2.1l-3.8,5.8l-9.8,3.3l-11.6-7.1
			l-7.2-28.8l2.9-9.4l-9.5-5.1l-5.5-14l-27.2,8.2l-6.3,12.9l-8.2-6.6l-7.2-0.3l-9.8-18.6l-12-0.5l-4.9-8.1l-1.3-15.2l5.7-6l-8-12
			l-1.8-11.4l-2.3-7.7l-22.4,9.1l-3.8-2.8l-20.3,7l-1.1-2.5l-2.3,7.9l-4.2-4l1.5-3.9l-7.3,7.5l-1.8-2.2l-34.8,9l4,0.8L897.3,32
			l-11.5,12.7l-11,3.2l4.5,14.6l-2.7,15.4l-2.5,3.4l-1.3-5.2l-0.6,3.2l1.9,33.8l8,12.1l-6.6-5.4l-4.4,29.6l12,10.4l0,0l-1.8-1.5
			l-9.9-1l-2.2,18.7l20.5,18.4l-4,2.9l-9.8-2.6l-2.7-6.3l-6.3,2.1l-9.7,21l-10.1,9.9L822,241.9l-14.7,7l0.9,4.2l-1.4-3.8l-9,4
			l-8.1-2.3L764,261.9l-25.5,3.9l-34.2,23.3l-17.8,7.1l-7.1,11l-4.3-2l4,5.3l-11.9,28.6l6.5,8.4l21.6,6.6l3.2-2.5l-1.3,3.7l5.5,19.2
			l-5.6-19.5l-23.9,0.4l15.5,0.7l-13.2,5.6l-17.6,16.1l-30.4,9.2l-2.8-4.3l-4.9,1.8L604,376l-49.7-3.2l-28.8-10.2l-15,1.6l-5.7,9.6
			l-5.3-3.9l-6.4,5.9l4.8-15.3l-19.6-29.6l1.6-7.3l3.5-0.7l-0.1,2.9l2.4-8.8l3.6,1.2l-5-18.9l-28.5-0.2l-1.9,6.1l-16.6,2.4l-1.7,4.7
			l0.7-4.9l-28.3-6.7l-3.8-5.8l-4.8,2.5l-6.5-4.4l-1.4,11l9.9,3.4l3.7,5.9l1.1,12.7l-6.5,7.8l5.5,6.4l5.2,27.6l14.1,9.2l11,25
			l1.7-5.2l6.4,2.8l-6.4,0.6l2,37.5l3,8l2.4-7.9l7.7,3.7l-7.3-1.3l-0.7,17.7l3,2L437.2,480l5.5,2.8l0.6,15.5l16.7,19l8.4-4.2
			l-3.5,3.4l8,5.5l-9.9-2.2l-8.9,4.2l-2.8-3.1l-0.2,3.6l-8.2-3 M925.2,1728.6l4-5.5l3.3,7.4L925.2,1728.6z"/>
		<polygon class="st0" points="225.1,781.1 216.8,781.3 212.7,776.4 210.5,783.4 213.9,793.4 236.3,796.7 238.2,791.1 227.5,788.1 
					"/>
		<polygon class="st0" points="362.4,864.4 352.1,859.2 354.1,852.4 348.7,848.6 341.9,849.2 342.8,855.9 348.1,862.3 355.4,862.6 
			363.4,875.3 		"/>
		<polygon class="st0" points="451,1002.1 444.1,1004.7 448,1012.9 457.8,1012.9 478.7,1024.6 486.6,1020.7 470.9,1011.6 
			462.7,1013.1 460.7,1010.7 464.3,1007.4 452.2,1012.6 449.6,1007.6 456,1006.7 		"/>
		<polygon class="st0" points="465.1,1043.5 468,1062 484,1076.3 489.2,1092.3 495.3,1080.5 488.5,1066.9 488.3,1056.1 
			477.7,1054.1 		"/>
	</g>
</g>
</svg>
