<svg id="Calque_1" data-name="Calque 1" xmlns="http://www.w3.org/2000/svg" viewBox="0 0 200 200"><defs><style>.cls-1{fill:#333;}</style></defs><title>euro-b</title><path class="cls-1" d="M52.74,94.12Z"/><path class="cls-1" d="M51.37,94.14h0Z"/><path class="cls-1" d="M52.07,94.13h0Z"/><path class="cls-1" d="M145.88,121.27a2.76,2.76,0,0,0-.49-.29c-4.27-2-9.44-2.73-14.09-3.13a2.53,2.53,0,0,0-1.12.16h-.11a4.6,4.6,0,0,0-5.19,4.11c-.54,2.49-1.08,5-1.81,7.48a34.27,34.27,0,0,1-2.84,7.11,17.71,17.71,0,0,1-3.43,4.48c-5.29,3.13-11.87,2.22-16.73-3.45A44.23,44.23,0,0,1,95.4,131c6.11-2.13,12.59-4.86,17.38-8.87a23.38,23.38,0,0,0,7.93-8.46,1.2,1.2,0,0,0,.13-.47s0-.08,0-.12c.55-4.42-1.68-10.26-6.55-11a4.74,4.74,0,0,0-1.57.08,3.25,3.25,0,0,0-2.33.54l-2.23,1.69-.29.19-1.9,1.45-.35.26a105.28,105.28,0,0,1-16.25,10,97.29,97.29,0,0,1-2.64-11.72c0-.11,0-.22,0-.34A101.3,101.3,0,0,0,107,95.59a4.54,4.54,0,0,0,.42-.26,9.14,9.14,0,0,0,1.33-.63A3.46,3.46,0,0,0,110.36,93s0,0,0,0a.09.09,0,0,0,0,0v0l0-.11h0a.24.24,0,0,0-.13-.22.82.82,0,0,0,.07-.29c.28-4.67-3-8.9-6.57-11.55a2.88,2.88,0,0,0-2.38-.07c-1.94.35-3.62,2.26-4.08,2.82a1.07,1.07,0,0,0-.14.16l-.09.1a49,49,0,0,1-5.52,5.17,48.86,48.86,0,0,1-5.94,3.56,83.71,83.71,0,0,1,2.68-23c.85-3.28,2.19-7.42,4.35-9.92,1.92-.76,4.28-.33,7.24,2.09,4.18,3.45,6.8,8.64,10.59,12.49.47.47,1.82.29,2.93-.16a1.92,1.92,0,0,0,.32-.09,41,41,0,0,0,11.48-6.67A72.69,72.69,0,0,0,136,57.65l0,0a2.1,2.1,0,0,0,.48-.51l.63-.68c1.39-.39,2.62-1.45,1.84-2.53C128.69,39.43,110,28.44,92,34.3a29.47,29.47,0,0,0-9.8,5.43s0,0,0,0C71.27,47.05,66.3,60.91,63.85,73.63a114.48,114.48,0,0,0-2,23.21,37.07,37.07,0,0,1-9.69-2.57,1.92,1.92,0,0,0-.74-.13h-.11c-3.56,0-6.22,3.24-6.22,3.24a1.77,1.77,0,0,0-.44.42c-2.21,3.46-1.39,6.6,1.32,9.47h0c.07.16.3.27.76.33a95.66,95.66,0,0,0,15.83.71,103.54,103.54,0,0,0,2,11.76,26.52,26.52,0,0,1-11.14-6.28,1.84,1.84,0,0,0-1-.43h0a.34.34,0,0,0-.1,0h0a4,4,0,0,0-.84,0s0,0,0,0A6.17,6.17,0,0,0,46,116.9a1,1,0,0,0-.15.36l0,.1h0c-.59,4.26-2.19,9.28,1.54,12.48,0,0,0,0,0,0a.32.32,0,0,0,.11.12c6.67,5.24,14.55,7.1,22.59,6.87.9,2.12,1.91,4.2,3,6.22,7.76,14.56,22.18,27,39.7,23.69a30.69,30.69,0,0,0,13.9-6.57h0c11.9-8,18-23.88,19.74-37.8A1,1,0,0,0,145.88,121.27Zm-61.14-3-.73.27c.14-.4.3-.79.47-1.17C84.57,117.72,84.65,118,84.74,118.32Zm-2.7-.74a10.76,10.76,0,0,0-1.43,2.09c-.8.22-1.59.41-2.38.58l1.43-2.67c-.12.22-.94.06-1.07.28l-1.38,2.59c-.67.12-1.33.22-2,.3l1.4-2.2c-.14.23-.92.06-1.07.29l-1.28,2c-.4,0-.79.07-1.19.09l-.18-.71a16,16,0,0,1,2.4-3.9c-.19.23-.87,0-1.06.29A16,16,0,0,0,72.59,119c-.15-.61-.29-1.22-.42-1.82a21.43,21.43,0,0,1,2.52-4.87c-.16.22-.9,0-1.07.28a22.89,22.89,0,0,0-1.78,3.11c-.17-.81-.33-1.6-.48-2.39a15.33,15.33,0,0,1,2.37-4.13c-.18.23-.88,0-1.06.29a15,15,0,0,0-1.58,2.39c-.06-.32-.12-.63-.17-.95.5-1.2,1-2.4,1.52-3.61-.09.21-1,.08-1.07.29l-.72,1.71c-.08-.52-.17-1.05-.24-1.59s-.16-1.06-.22-1.59a92.23,92.23,0,0,0,11.46-1.78c.21,1.44.44,2.86.73,4.29.44,2.24,1,4.85,1.78,7.63A16.29,16.29,0,0,0,82.91,119l-1,.31-.26.08a11.05,11.05,0,0,1,1.41-2.06C82.91,117.52,82.24,117.35,82,117.58Zm22.65-23.84c.2-.9.42-1.8.66-2.69a7.42,7.42,0,0,1,.12,1.76.92.92,0,0,0,.07.48ZM78.31,50.39A30.54,30.54,0,0,1,85,42.14l0,0c14.9-12.72,37.6-2.47,49.1,13.26-1,1-1.94,2.14-3,3.22.25-.63.5-1.26.74-1.9-.07.2-1,.08-1.06.29l-1.29,3.28c-1.06,1.09-2.16,2.16-3.29,3.18a.86.86,0,0,1-.14.13,20.53,20.53,0,0,1,2.06-3.76c-.16.22-.91,0-1.07.28a21,21,0,0,0-2.43,4.73c-1,.81-2,1.58-3,2.3l3.27-5.5c-.13.22-.93,0-1.07.29l-3.69,6.23c0-.05.08-.07.14-.09-.81.52-1.64,1-2.47,1.45a14.65,14.65,0,0,1,2.79-4.75c-.2.23-.86,0-1.07.29a14.62,14.62,0,0,0-2.77,4.7c-.43-.45-.86-.94-1.3-1.44A23.84,23.84,0,0,0,117,65.4c-.08.2-1,.07-1.07.28a21.14,21.14,0,0,1-.93,2l-1.38-1.62a36.92,36.92,0,0,1,3.05-4.69c-.17.23-.88,0-1.06.28A36,36,0,0,0,113,65.41q-.73-.87-1.5-1.74l2.27-3.88c-.12.22-.93.05-1.06.28l-1.75,3c-.76-.86-1.55-1.71-2.35-2.53a26.7,26.7,0,0,1,2.1-3.2c-.18.23-.89.05-1.07.29a26.15,26.15,0,0,0-1.6,2.34c-.58-.57-1.18-1.12-1.78-1.64a18.69,18.69,0,0,1,2.26-2.86c-.21.23-.84.06-1.06.29a18.47,18.47,0,0,0-1.76,2.1c-.44-.36-.89-.71-1.34-1a19.45,19.45,0,0,1,1.7-2.27c-.2.23-.86.06-1.06.29a18.58,18.58,0,0,0-1.24,1.57,16.44,16.44,0,0,0-2.41-1.34l1.17-1.55c-.17.23-.88,0-1.06.29l-.76,1a11.17,11.17,0,0,0-2.16-.59l.92-1.28c-.17.23-.9,0-1.07.29l-.64.89a7,7,0,0,0-.8,0,11.46,11.46,0,0,0-7.4,3c-.17.13-.33.28-.49.43-5.56,5.2-6.75,16.51-7.63,23.51a82,82,0,0,0-.67,12.22,15.44,15.44,0,0,0-.92,1.63q-.8.27-1.59.51l-.29.08a9.94,9.94,0,0,1,2-2.78c-.23.22-.84.06-1.07.28a10.14,10.14,0,0,0-2,2.79l-1.07.27,1.88-2.74c-.15.22-.9,0-1.06.28l-1.85,2.69c-.45.09-.9.18-1.35.25A14.38,14.38,0,0,0,75,94.28a2.13,2.13,0,0,1-.54.14c-.08,0-.48.06-.53.15a13.7,13.7,0,0,1-1.41,2.12c-.53.08-1.06.15-1.6.21l2-2.9c-.16.22-.91,0-1.07.28-.6.91-1.21,1.81-1.81,2.71l-.66.06c0-.33,0-.65,0-1l2.52-4c-.14.22-.92,0-1.07.28-.5.8-1,1.61-1.51,2.41,0-.86,0-1.72-.07-2.59.55-1,1.12-2,1.74-2.89-.15.23-.91,0-1.06.29s-.46.72-.69,1.09c0-.7,0-1.4,0-2.11a29.19,29.19,0,0,1,2.35-3.63c-.18.23-.89,0-1.07.29-.44.58-.85,1.17-1.25,1.78,0-.83.06-1.65.11-2.47.63-1.11,1.26-2.21,1.88-3.32-.12.22-.93.06-1.06.29-.24.41-.48.83-.71,1.25,0-.78.11-1.55.18-2.32l1.58-2.65c-.13.23-.93.06-1.07.29l-.32.54c.06-.54.13-1.09.2-1.64l1.93-2.84c-.16.22-.91,0-1.07.28l-.64,1c.17-1.18.37-2.36.59-3.53l1.37-1.48c-.21.23-.86.06-1.07.29l-.09.1A67.74,67.74,0,0,1,78.31,50.39ZM62,104.16l1.54-2.1c-.17.22-.89,0-1.07.28l-1.31,1.79q-1.41,0-2.82-.12a21.34,21.34,0,0,1,2.38-2.9c-.22.22-.84.06-1.06.28A20.12,20.12,0,0,0,57.5,104l-2-.17a29.65,29.65,0,0,0,2.65-3.36c-.15.23-.91,0-1.07.29a29.23,29.23,0,0,1-2.33,3l-1.94-.22,0-.06a26.6,26.6,0,0,1,2.31-3c-.2.23-.86,0-1.07.29a27.16,27.16,0,0,0-1.71,2.14,9.64,9.64,0,0,1-.61-.91l1.53-2.43c-.15.22-.92,0-1.07.28-.29.46-.58.92-.86,1.38a6.31,6.31,0,0,1-.26-.68,5.53,5.53,0,0,1-.2-2.74,43.89,43.89,0,0,0,13.74,2.47c1.66,0,3.33,0,5-.15a51.23,51.23,0,0,0,16.24-4.24,52.7,52.7,0,0,0,9.09-5.17A55,55,0,0,0,99.52,87c.78-.69,1.54-1.4,2.28-2.14a13.79,13.79,0,0,1,3.06,4.53q-.77,2.45-1.3,5l-.61.31-1.32.65a20.11,20.11,0,0,1,1.31-3.2c-.11.22-.94.06-1.06.29a19.89,19.89,0,0,0-1.4,3.46q-1.16.54-2.31,1.05,1-2.09,2-4.17c-.1.21-1,.06-1.07.29L97,97.41q-1.11.47-2.22.9a19.43,19.43,0,0,1,2-2.43c-.22.22-.85.06-1.07.29a20.13,20.13,0,0,0-2.13,2.58c-.67.25-1.34.5-2,.73l1.52-1.71c-.2.23-.86,0-1.06.29L90.4,99.88c-1.05.34-2.11.66-3.17,1l1.67-2.28c-.17.23-.9.05-1.07.29l-1.68,2.3c-.81.22-1.61.43-2.42.62.5-.64,1-1.28,1.49-1.93-.17.23-.88.05-1.06.29L82.7,102l-1.32.28-.57.12,1.06-1.28c-.19.23-.88.06-1.07.29l-1,1.2c-.81.16-1.63.3-2.45.44a16.71,16.71,0,0,1,1-1.34c-.2.23-.86.06-1.06.29-.34.38-.66.79-1,1.2-1.08.16-2.17.31-3.27.43a13.52,13.52,0,0,1,1.31-1.86c-.19.22-.86,0-1.06.28a13.24,13.24,0,0,0-1.21,1.68c-.74.07-1.48.14-2.23.19h-.15l1.15-1.31c-.2.23-.86,0-1.07.29L68.92,104c-1.1.07-2.2.11-3.3.13a14.2,14.2,0,0,1,1.85-1.87c-.26.21-.81.07-1.07.29a13.69,13.69,0,0,0-1.63,1.6Q63.38,104.18,62,104.16ZM75.8,132A21,21,0,0,1,78,128.4c-.18.23-.89,0-1.07.28a21.32,21.32,0,0,0-2.13,3.38c-1.15.06-2.3.08-3.43.05l-.6,0,2.3-3.34c-.16.23-.91,0-1.07.29L70,132a31.23,31.23,0,0,1-4-.55,19.4,19.4,0,0,1,2.06-3.1c-.18.22-.87,0-1.06.28a19.52,19.52,0,0,0-1.8,2.64q-1.34-.31-2.64-.75l1.54-2.73c-.13.22-.94.06-1.07.29l-1.22,2.17c-.66-.24-1.31-.52-2-.81.76-1.19,1.53-2.38,2.3-3.56-.15.22-.91,0-1.07.28-.63,1-1.27,2-1.9,2.95A23.56,23.56,0,0,1,57.05,128a19.28,19.28,0,0,1,1.81-2.9c-.17.23-.88,0-1.06.28a20.52,20.52,0,0,0-1.44,2.18c-.51-.34-1-.7-1.52-1.08l1.81-3.27c-.12.22-.94.06-1.06.28l-1.37,2.47a5.89,5.89,0,0,1-1-1.22c.43-.81.85-1.63,1.28-2.45-.11.22-.95.06-1.07.29l-.65,1.25a6.65,6.65,0,0,1-.38-1.67,13.43,13.43,0,0,1,.14-3.39,30,30,0,0,0,16.13,5.5,33.31,33.31,0,0,0,5.28-.15,47.86,47.86,0,0,0,11.68-2.8h0c1.58-.57,3.13-1.21,4.67-1.91a114.83,114.83,0,0,0,19.92-12.08l.34-.25c.85-.64,1.68-1.26,2.5-1.89,2.24,1.83,3.23,6.07,3,8.57a17.07,17.07,0,0,1-3.88,4.83c.5-1.78,1.06-3.54,1.7-5.28-.07.19-1,.08-1.06.29-.73,2-1.36,4-1.92,6-.44.34-.9.67-1.37,1s-.66.42-1,.62c.56-1.49,1.11-3,1.67-4.49-.08.2-1,.08-1.07.29q-.9,2.44-1.82,4.89-1.21.67-2.49,1.26l1.56-3.67c-.09.2-1,.07-1.07.28-.55,1.31-1.1,2.61-1.66,3.92-1,.44-2,.86-3.08,1.27a10.83,10.83,0,0,1,1.74-3c-.19.23-.88,0-1.07.29a11,11,0,0,0-1.79,3.15l-2.53,1a21,21,0,0,1,2-3.44c-.16.22-.89,0-1.06.28a20.24,20.24,0,0,0-2,3.59l-1.67.64c-.18.07-.34.13-.52.22l-.22.08,1.74-3.28c-.11.21-.94.06-1.06.28l-1.82,3.42c-1.14.42-2.3.83-3.47,1.2l-1,.31,2.34-4c-.13.22-.93,0-1.06.28l-2.37,4c-1.06.3-2.12.58-3.19.84l2.66-3.87c-.15.22-.9,0-1.06.28L82.49,131c-1.15.25-2.31.47-3.47.64l2.49-3.51c-.16.23-.9.05-1.06.29l-2.39,3.36-1.43.16C76.36,132,76.08,132,75.8,132Zm54.54,19.7.53-1.52c-.06.19-1,.08-1.06.28l-1.13,3.21c-.63.7-1.28,1.36-2,2,.3-.88.59-1.76.88-2.64-.06.19-1,.09-1.06.29l-1.19,3.54c-.44.36-.88.71-1.34,1l.72-1.47c-.1.21-1,.07-1.06.29l-1,2.11A22.29,22.29,0,0,1,119,160.7a13.83,13.83,0,0,1,1.35-2.47c-.16.23-.91.05-1.07.29a14.12,14.12,0,0,0-1.4,2.59,21.07,21.07,0,0,1-3.48.86l1-2.47c-.08.2-1,.07-1.06.29l-.94,2.32a23.23,23.23,0,0,1-2.66.13l1-2.72c-.07.19-1,.08-1.06.29l-.88,2.4c-.62,0-1.25-.09-1.88-.17a22.76,22.76,0,0,1,1.06-2.81c-.1.21-1,.07-1.07.28a25,25,0,0,0-.92,2.39c-.76-.12-1.53-.28-2.3-.48l.81-2.84c0,.17-1,.1-1.06.28-.22.77-.44,1.54-.67,2.31-.4-.12-.8-.24-1.21-.38-.65-.22-1.29-.46-1.91-.71a15.74,15.74,0,0,1,1.33-3.11c-.12.21-.94.05-1.07.28a16.88,16.88,0,0,0-1.11,2.46c-.59-.25-1.16-.53-1.72-.82a19.4,19.4,0,0,0,.89-2.8c0,.16-1,.11-1.06.29a21,21,0,0,1-.62,2.09c-.65-.36-1.29-.74-1.91-1.14.37-1.14.75-2.27,1.12-3.41-.06.19-1,.09-1.06.29-.29.86-.57,1.73-.86,2.59-.59-.4-1.16-.82-1.72-1.26a18.92,18.92,0,0,1,1.44-3.18c-.12.22-.93,0-1.06.28A18.89,18.89,0,0,0,92.06,155c-.61-.5-1.2-1-1.78-1.56a34.92,34.92,0,0,1,1.89-5c-.1.21-1,.06-1.07.28a37.23,37.23,0,0,0-1.58,4c-.51-.5-1-1-1.49-1.55l1.53-4.05c-.07.2-1,.08-1.06.29l-1.14,3c-.54-.61-1-1.23-1.56-1.87a35.84,35.84,0,0,1,1.72-3.85c-.11.22-1,.06-1.06.29-.47.9-.89,1.82-1.28,2.75-.34-.45-.67-.91-1-1.37a23.82,23.82,0,0,1,1.27-4.25c-.08.2-1,.08-1.07.29a23,23,0,0,0-1,2.87c-.48-.71-.94-1.43-1.38-2.17a8.93,8.93,0,0,1,1-2.48c-.13.22-.92,0-1.06.28a7.81,7.81,0,0,0-.59,1.15q-.69-1.19-1.32-2.4c.24-.62.5-1.24.78-1.84-.1.21-1,.06-1.07.28l-.23.54c-.28-.56-.56-1.13-.83-1.7l1.13-2.57c-.09.21-1,.07-1.06.29l-.55,1.24-.57-1.28a64.94,64.94,0,0,0,12-2.75l.26-.08c4.18,8,10.15,14.42,18.59,14.47a18.69,18.69,0,0,0,10.3-2.79v0c6.45-4.05,10-11.9,12.23-19.66.2-.72.39-1.43.57-2.14a38.08,38.08,0,0,1,9.75,2.18C140.14,133,136.47,143.89,130.34,151.7Z"/></svg>