<svg id="Calque_1" data-name="Calque 1" xmlns="http://www.w3.org/2000/svg" viewBox="0 0 200 200"><defs><style>.cls-1{fill:#333;}</style></defs><title>hourglass-b</title><path class="cls-1" d="M95.47,103.94c-.47.46-1.44,1.25-1.38,2s1,1,1.66,1a3.9,3.9,0,0,0,2.87-1.26,1.72,1.72,0,0,0-.15-2c-.52-.7-3.12.48-2.9.78a1.83,1.83,0,0,1,.43,1.11,1.47,1.47,0,0,1-.16.54c-.4.49.12.39,1.54-.31a.54.54,0,0,1-.16-.1c-.22-.33-.31-.5-.07-.87a7,7,0,0,1,.94-1c.46-.46-.41-.5-.68-.48a3.36,3.36,0,0,0-1.94.69Z"/><path class="cls-1" d="M95.87,100.32c-.31.31-.92.8-.88,1.29.05.65.9.72,1.39.68,1.06-.1,3.46-.88,2.4-2.37-.5-.71-3.13.45-2.9.77a1.2,1.2,0,0,1,.25.55c.05.52-.44.43.44.12l1.13-.25h-.13l.56,0c-.65-.11.2-.89.37-1.05.46-.45-.41-.5-.69-.47a3.25,3.25,0,0,0-1.94.69Z"/><path class="cls-1" d="M85.48,131.19a28.93,28.93,0,0,1-18.7,7.46c-.47,0-3,.92-1.69,1.6a90.14,90.14,0,0,0,14.12,5.85c1,.32,3.4-1.12,1.75-1.65a86.68,86.68,0,0,1-13.58-5.66l-1.7,1.6a34.14,34.14,0,0,0,22.14-8.64c1.27-1.13-1.58-1.23-2.34-.56Z"/><path class="cls-1" d="M85.29,131.89a31.9,31.9,0,0,0,10.26,19.66l2.22-1.41a86.64,86.64,0,0,1-14-4.63c-.92-.4-3.54.92-2.29,1.46A89.33,89.33,0,0,0,96,151.79c.5.12,3.15-.56,2.22-1.41a31.15,31.15,0,0,1-10-19.27c-.14-1-3-.37-2.9.78Z"/><path class="cls-1" d="M117.69,165.05c1.22-2.05,1.66-5.17,0-5.69l-2.28-.74a11.08,11.08,0,0,0,.62-1.75c2.68-10.49,4.61-21,1.56-31.69-2.12-7.42-6.12-14.13-10.42-20.53,7.45-2,14.85-4.47,21.33-8.68,9.28-6,14.73-15.29,19.58-25a10.93,10.93,0,0,0,.69-1.72l2.19.93c1.56.67,3.28-2,3.71-4.34,1.74-4,3.7-7.9,4.89-12.09.94-2,1.19-4.54-.26-5.15-23.28-9.74-46.85-18.89-70.82-26.81-1.32-.44-2.65,1.18-3.34,3a99.77,99.77,0,0,0-6.42,13.78c-.46,1.11-1,3.82.47,4.43a1.22,1.22,0,0,0,1,0,1.35,1.35,0,0,0,.79.71l1.06.35c-3.24,10.57-5.83,21.14-3.29,32.16,1.78,7.67,5.51,14.66,9.58,21.38-7.47,2.4-14.88,5.24-21.24,9.87C58,114.14,53,123.83,48.53,133.93l-1-.42a1.35,1.35,0,0,0-1.06,0,1.39,1.39,0,0,0-.73-.68c-1.49-.6-2.92,2.05-3.25,3a100.2,100.2,0,0,0-4.19,14.62c-.69,1.84-.74,3.93.55,4.47,23.29,9.72,47.1,18.25,71.06,26.15,1.49.49,3-1.62,3.58-3.73A98.23,98.23,0,0,0,117.69,165.05ZM84.81,36.61l1.91-2c-.13.14-.8-.23-.94-.09L84,36.35l0,0a51.6,51.6,0,0,1,3.09-6.61c23,7.64,45.54,16.39,67.86,25.69A68.67,68.67,0,0,1,152.11,62q-11.91-5-24-9.74l2.28-1.69c-.18.14-.74-.23-.94-.09l-2,1.51-3.63-1.4c.59-.57,1.17-1.16,1.72-1.76-.12.13-.81-.24-.94-.09-.49.53-1,1-1.52,1.56L119.52,49c.46-.42.92-.84,1.37-1.28-.14.14-.79-.23-.94-.09-.38.37-.77.73-1.16,1.09l-3.88-1.46A12.55,12.55,0,0,0,116.75,45c-.08.11-.86-.22-.94-.09A13.25,13.25,0,0,1,114.17,47l-2.46-.9c.69-.61,1.35-1.24,2-1.89-.13.14-.8-.24-.94-.09-.58.59-1.17,1.16-1.79,1.7l-3.52-1.28L109,42.93c-.13.13-.8-.24-.94-.09l-1.33,1.38-3.82-1.37,2.39-2.15c-.15.14-.78-.23-.94-.09l-2.19,2-3.59-1.27,2.26-1.73c-.18.13-.75-.24-.94-.09l-2,1.57-3.72-1.3,1.28-1.3c-.13.14-.79-.24-.94-.09L93.32,39.5l-4.61-1.58c.57-.55,1.15-1.07,1.75-1.58-.16.13-.77-.24-.94-.09-.54.45-1.06.93-1.57,1.41ZM90,87.3c.63-.82,1.25-1.64,1.87-2.47.63,1.17,1.29,2.32,2,3.44A29,29,0,0,0,92,90.69Q91,89,90,87.3ZM53.14,133.38q1.8-1.33,3.71-2.53c-.21.13-.73-.23-.94-.09-.76.48-1.51,1-2.25,1.49,3.44-7.31,7.55-14.06,14.48-18.7,7.4-4.94,16-7.63,24.42-10.21A5.91,5.91,0,0,0,95.29,96l-.3-.47c.47-.74.92-1.5,1.34-2.27-.06.1-.88-.21-.94-.09q-.44.8-.9,1.56c-.68-1.09-1.36-2.19-2-3.3A28.46,28.46,0,0,1,94.31,89a58.7,58.7,0,0,0,5.2,7,.6.6,0,0,0,.4.14.68.68,0,0,0,.36.06C110.4,94.71,120,90.51,128.5,85c.29-.19-.23-.41-.37-.42a59.61,59.61,0,0,1-18-3.66c-.34-.13-1.09.18-.52.39A61.05,61.05,0,0,0,127.13,85c-8.19,5.21-17.28,9.15-26.92,10.57a59.29,59.29,0,0,1-5.36-7.28l.06-.06a.15.15,0,0,1-.08,0,75.6,75.6,0,0,1-8-18c5.88,4.88,13.32,7.5,20.39,10.14.34.13,1.09-.18.52-.39-7.45-2.78-15.36-5.52-21.31-11-.16-.15-1-.3-.88.11A79.89,79.89,0,0,0,91.46,84s0,0,0,0c-.61.84-1.23,1.66-1.86,2.48q-1.1-2-2.09-4l1.75-2.66c-.08.12-.86-.22-.94-.09l-1.23,1.88c-.5-1-1-2.08-1.4-3.14l1.41-2c-.08.12-.84-.22-.94-.09-.27.4-.55.79-.83,1.19-.31-.78-.6-1.57-.88-2.37l1.48-1.73c-.12.13-.82-.23-.94-.09l-.82,1c-.22-.68-.43-1.37-.62-2.06-.08-.31-.16-.61-.23-.91l.91-1.11c-.11.13-.82-.23-.94-.09l-.19.23c-1.78-8.53.21-16.82,2.76-25.1q30.06,10.18,59.37,22.42c-4.27,8.53-8.86,16.61-17.21,21.72-7.24,4.43-15.5,6.7-23.66,8.79l1.42-2c-.09.13-.85-.22-1-.09-.56.82-1.12,1.63-1.69,2.44l-.28.07c-1.44.37-2.34,1.9-2.8,3.32s-.9,3.11-.05,4.33c5.09,7.33,10.26,14.82,13,23.41,3,9.33,1.14,18.46-1.22,27.69l-1.3-.43a14.71,14.71,0,0,0,1-1.21c-.1.13-.84-.22-.94-.09-.27.36-.56.7-.85,1l-2.41-.8a10.09,10.09,0,0,0,1.1-1.33c-.08.12-.85-.22-.94-.09a8.75,8.75,0,0,1-.93,1.16q-26.39-8.9-52.2-19.36A20.48,20.48,0,0,0,57.06,134c-.14.14-.79-.23-.94-.09A19.61,19.61,0,0,1,53.63,136l-1.42-.57C52.51,134.75,52.82,134.07,53.14,133.38ZM111,173.11l-3.69-1.23,1.74-1.4c-.17.13-.76-.24-.94-.09l-1.55,1.25-3.44-1.16,1.15-.95c-.17.14-.77-.24-.94-.09l-1,.79-3.29-1.12,1.67-1.43c-.16.14-.77-.24-.94-.09l-1.48,1.26-2.66-.91a23.38,23.38,0,0,1,2.17-1.65c-.2.14-.73-.23-.94-.09a22,22,0,0,0-2,1.48l-2.87-1L94.35,165c-.18.13-.74-.24-.94-.09l-2.07,1.52L88,165.26a11,11,0,0,0,2.36-1.77c-.14.14-.79-.23-.94-.09a10.91,10.91,0,0,1-2.1,1.62l-3.17-1.13,2-1.39c-.2.14-.74-.23-.94-.09l-1.8,1.23-3.14-1.13,1.49-1c-.2.14-.75-.23-.94-.09l-1.26.89-2.09-.76A23,23,0,0,0,80,159.69c-.16.14-.77-.24-.94-.09a25.52,25.52,0,0,1-2.22,1.65l-3.67-1.36a12.31,12.31,0,0,0,2.14-1.75c-.13.14-.8-.24-.94-.09a12.52,12.52,0,0,1-1.9,1.59l-3.23-1.21,2.12-1.25c-.21.13-.72-.22-.94-.09l-1.85,1.09L65.36,157l2.83-1.73c-.21.13-.73-.23-.94-.09l-2.56,1.57-3.49-1.34L65.32,153c-.22.13-.71-.22-.94-.09l-3.83,2.18-3.33-1.3L61,151.71c-.22.12-.71-.22-.94-.09l-3.48,1.95c-1.19-.46-2.38-.94-3.57-1.41.89-.55,1.79-1.09,2.69-1.63-.22.13-.72-.22-.94-.09l-2.41,1.46-3-1.22c.85-.56,1.72-1.09,2.62-1.57-.23.12-.71-.21-.94-.09-.81.43-1.59.89-2.35,1.39l-3.18-1.3,2.06-1.55c-.18.14-.75-.23-.94-.09l-1.81,1.36-1.88-.78a54.2,54.2,0,0,1,2-7q33.64,14,68.32,25.22A69.23,69.23,0,0,1,111,173.11Z"/><path class="cls-1" d="M88.56,71.74A10.65,10.65,0,0,1,90.32,71c-.94.33-2,.44-2.9.77a12.61,12.61,0,0,0-1.76.79,2.63,2.63,0,0,1,.43-.1l1-.27a7,7,0,0,0,1.44-.4Z"/><path class="cls-1" d="M89,72.35c.61-.28,1.22-.54,1.85-.78-.93.35-2,.42-2.9.78-.62.23-1.24.49-1.85.78a8.94,8.94,0,0,1,1.46-.38,8.1,8.1,0,0,0,1.44-.4Z"/><path class="cls-1" d="M88.3,70.76l.76-.36a8.94,8.94,0,0,1-1.46.38,9,9,0,0,0-1.44.4l-.76.35a9.93,9.93,0,0,1,1.45-.37,10,10,0,0,0,1.45-.4Z"/><path class="cls-1" d="M89.15,73.53c.84-.41,1.69-.8,2.56-1.15-.92.37-2,.4-2.9.78s-1.72.73-2.56,1.15a8.67,8.67,0,0,1,1.46-.37,7.9,7.9,0,0,0,1.44-.41Z"/><path class="cls-1" d="M89.36,74.49A38.37,38.37,0,0,1,93,72.9c-.93.35-2,.43-2.89.78a33.93,33.93,0,0,0-3.6,1.59,7.18,7.18,0,0,1,1.45-.37,8,8,0,0,0,1.45-.41Z"/><path class="cls-1" d="M89.93,75.43q2-1.05,4.13-2c-.89.42-2,.36-2.9.78q-2.09,1-4.13,2c.86-.45,2-.33,2.9-.78Z"/><path class="cls-1" d="M90.3,76.46c1.54-.77,3.08-1.51,4.65-2.21-.9.4-2,.37-2.9.77-1.56.71-3.11,1.44-4.64,2.21.87-.43,2-.33,2.89-.77Z"/><path class="cls-1" d="M90.61,77.52l5.7-2.59c-.89.4-2,.36-2.89.77l-5.71,2.6c.89-.41,2-.37,2.9-.78Z"/><path class="cls-1" d="M91.15,78.32q3.21-1.48,6.44-2.92c-.9.4-2,.38-2.9.78-2.15.95-4.3,1.93-6.43,2.92.89-.42,2-.36,2.89-.78Z"/><path class="cls-1" d="M91.73,79.29q3.94-1.76,8-3.19c-.94.33-2,.44-2.9.77q-4.06,1.44-8,3.2c.9-.4,2-.38,2.89-.78Z"/><path class="cls-1" d="M91.88,80.52q4.61-1.77,9.15-3.72c-.9.39-2,.39-2.9.78q-4.53,2-9.15,3.71c.93-.35,2-.42,2.9-.77Z"/><path class="cls-1" d="M92.54,81.15q4.74-2,9.52-3.9c-.92.37-2,.4-2.9.77q-4.77,1.92-9.52,3.9c.91-.38,2-.39,2.9-.77Z"/><path class="cls-1" d="M92.81,81.76l10.45-4.1c-.92.36-2,.41-2.9.78l-10.44,4.1c.92-.37,2-.42,2.89-.78Z"/><path class="cls-1" d="M93.05,82.81l12.62-4.28c-.67.23-1.93.45-2.79.74L90.26,83.55c.67-.23,1.93-.45,2.79-.74Z"/><path class="cls-1" d="M93.43,83.52q6.75-2.3,13.56-4.39c-.68.21-1.92.47-2.79.74Q97.39,82,90.63,84.26c.68-.23,1.94-.44,2.8-.74Z"/><path class="cls-1" d="M93.93,84.13c4.16-1.28,8.34-2.5,12.56-3.59.68-.17,1.37-.35,2.05-.55.41-.12.55-.16,0,0-5.83,1.51-11.64,3.12-17.39,4.91.68-.22,1.92-.48,2.79-.75Z"/><path class="cls-1" d="M94.34,85.18q7.22-2.07,14.49-3.88c.67-.17,1.33-.34,2-.53.13,0,1-.29.51-.16q-9.8,2.43-19.49,5.23c-.55.16.47-.11.52-.12q1-.25,2-.54Z"/><path class="cls-1" d="M94.77,86c5-1.56,10.1-3,15.22-4.26.66-.17,1.33-.34,2-.53.14,0,1-.29.52-.16C105.6,82.72,98.75,84.6,92,86.71c.69-.21,1.93-.47,2.8-.74Z"/><path class="cls-1" d="M95.31,87a161.61,161.61,0,0,1,15.9-4.18c.88-.19,2.1-.61,2.79-.76A218.48,218.48,0,0,0,92.51,87.7c.69-.21,1.93-.46,2.8-.74Z"/><path class="cls-1" d="M96,88c6.49-2.38,13.65-3.49,20.29-5.53-.68.21-1.93.47-2.8.74-6.71,2.06-13.79,3.14-20.39,5.57.93-.34,2-.43,2.9-.78Z"/><path class="cls-1" d="M94.2,89.37c7.78-2,15.64-3.8,23.21-6.5-.94.33-2,.44-2.9.78-5.82,2.07-11.83,3.51-17.81,5-.59.15-2.62.72-2.5.69Z"/><path class="cls-1" d="M94.54,90.54q13-3.06,25.75-6.84c-.69.21-1.93.49-2.8.75q-10,2.94-20.16,5.34c-.87.2-2.1.59-2.79.75Z"/><path class="cls-1" d="M97.67,90.91q12.12-3.41,24.08-7.36c-.68.23-1.94.46-2.8.74q-11.58,3.85-23.33,7.14c-1.07.3,1.68-.42,2-.52Z"/><path class="cls-1" d="M96.14,92.65a282.59,282.59,0,0,0,28.61-8.89c-.93.34-2,.42-2.9.77a230.09,230.09,0,0,1-23.67,7.55c-.37.09-3.1.84-2,.57Z"/><path class="cls-1" d="M96.59,94a143.45,143.45,0,0,0,29-10.06c-.88.42-2,.35-2.9.77a116.11,116.11,0,0,1-23.27,8.53c-.88.21-2.1.59-2.8.76Z"/><path class="cls-1" d="M100.51,94.25q13.9-4.57,27.32-10.39c-.9.39-2,.38-2.9.78Q111.55,90.43,97.72,95c.68-.23,1.93-.46,2.79-.74Z"/><path class="cls-1" d="M99.66,95.27a118.71,118.71,0,0,0,28.1-11.16c-.84.48-2.05.3-2.89.78A105.25,105.25,0,0,1,100.42,95c-.89.23-2.81.77-.76.23Z"/><path class="cls-1" d="M95.31,101.53a9.46,9.46,0,0,0,1.73-.41,9.92,9.92,0,0,0,1.71-.51,10,10,0,0,1-1.45.38,7.88,7.88,0,0,0-1.44.4l-.22.08,2.85-.76a.9.9,0,0,1-.28,0,8.22,8.22,0,0,0-1.46.37l-1,.28a2.25,2.25,0,0,1-.42.13Z"/><path class="cls-1" d="M97.36,104.8l1.37-.52c-.93.35-2,.43-2.9.78l-1.37.51c.93-.35,2-.42,2.9-.77Z"/><path class="cls-1" d="M94.49,106a24.65,24.65,0,0,0,4.22-1c.55-.16-.48.1-.53.11-.66.18-1.32.35-2,.54,2.19-.55,2.88-.73,2.07-.56l-.37.07-.51.07a8.12,8.12,0,0,0-1.45.37,10.77,10.77,0,0,1-1.45.4Z"/><path class="cls-1" d="M69.64,140.29l2.12-1.1a2.41,2.41,0,0,1-.43.1l-1,.27a7.9,7.9,0,0,0-1.44.41l-2.12,1.1a2.41,2.41,0,0,1,.43-.1l1-.27a7.78,7.78,0,0,0,1.45-.41Z"/><path class="cls-1" d="M70.88,140.89l4.21-2.54a6.3,6.3,0,0,1-1.45.37,6,6,0,0,0-1.45.4L68,141.66a6.17,6.17,0,0,1,1.45-.37,5.8,5.8,0,0,0,1.44-.4Z"/><path class="cls-1" d="M71.84,139.23a1.07,1.07,0,0,1,.44-.28c.18-.06-.24.05-.15,0l-.87.22c-.59.16-1.2.29-1.78.49A1.26,1.26,0,0,0,69,140a2.19,2.19,0,0,1,.42-.11l1-.27,1-.28c.11,0,.35,0,.42-.12Z"/><path class="cls-1" d="M72.66,141.32,80,136.79c-.81.5-2.08.27-2.9.77l-7.31,4.54c.81-.5,2.08-.27,2.9-.78Z"/><path class="cls-1" d="M74,141.94a154.21,154.21,0,0,0,14.26-9c-.76.54-2.13.23-2.9.78a154.11,154.11,0,0,1-14.26,9c.85-.47,2.05-.3,2.9-.77Z"/><path class="cls-1" d="M75.5,142.69l13.55-7.9c-.82.48-2,.29-2.89.77L72.6,143.47c.83-.48,2.06-.29,2.9-.78Z"/><path class="cls-1" d="M77,143.21l12.14-6.81c-.84.47-2,.3-2.9.78L74.13,144c.84-.47,2.05-.3,2.9-.77Z"/><path class="cls-1" d="M78.56,143.69l11.1-5.9c-.86.45-2,.31-2.9.77l-11.09,5.91c.85-.46,2-.32,2.89-.78Z"/><path class="cls-1" d="M80,144.36l10.1-5.22c-.86.44-2,.32-2.9.77l-10.1,5.22c.87-.44,2-.32,2.9-.77Z"/><path class="cls-1" d="M81.73,144.87q4.58-2,9-4.25c-.87.44-2,.33-2.9.78q-4.44,2.26-9,4.25c.9-.39,2-.38,2.9-.78Z"/><path class="cls-1" d="M84.15,145.64c2.34-1.31,4.69-2.59,7.06-3.86-.86.46-2,.32-2.9.78q-3.56,1.89-7.06,3.86c.84-.47,2-.3,2.9-.78Z"/><path class="cls-1" d="M85.22,146.18A71.63,71.63,0,0,0,92,143c-.85.46-2,.31-2.89.77A70.59,70.59,0,0,1,82.32,147c.92-.38,2-.4,2.9-.78Z"/><path class="cls-1" d="M86.66,146.62a48.65,48.65,0,0,0,6.14-3c-.83.49-2.06.29-2.9.78a49.2,49.2,0,0,1-6.13,3c.91-.38,2-.4,2.89-.78Z"/><path class="cls-1" d="M87.91,147.55l5.5-2.77c-.87.44-2,.33-2.9.77L85,148.32c.87-.43,2-.33,2.9-.77Z"/><path class="cls-1" d="M89.09,147.87l5.07-2.35c-.89.42-2,.36-2.9.78l-5.06,2.35c.89-.41,2-.36,2.89-.78Z"/><path class="cls-1" d="M90.61,148.33c1.41-.54,2.78-1.15,4.14-1.81-.88.43-2,.34-2.9.77-1.35.67-2.73,1.27-4.14,1.82.93-.36,2-.42,2.9-.78Z"/><path class="cls-1" d="M92.46,148.91c1-.52,2-1,3-1.49a10.09,10.09,0,0,1-1.46.38,8.1,8.1,0,0,0-1.44.4c-1,.47-2,1-3,1.49a6.85,6.85,0,0,1,1.45-.37,7.18,7.18,0,0,0,1.44-.41Z"/><path class="cls-1" d="M94.43,149.45a10.68,10.68,0,0,1,2-.93c.18-.07-.23,0-.15,0l-.86.23c-.6.16-1.2.29-1.78.49a10.89,10.89,0,0,0-2.11,1,2.72,2.72,0,0,1,.43-.11c.34-.08.69-.17,1-.27l1-.27a1.87,1.87,0,0,0,.42-.13Z"/><path class="cls-1" d="M96.27,150.15l1.1-.46a11.85,11.85,0,0,1-1.45.37,12,12,0,0,0-1.45.41l-1.1.45a11.85,11.85,0,0,1,1.45-.37,12,12,0,0,0,1.45-.4Z"/></svg>