<svg id="Calque_1" data-name="Calque 1" xmlns="http://www.w3.org/2000/svg" viewBox="0 0 200 200"><defs><style>.cls-1{fill:#333;}</style></defs><title>bike-b</title><path class="cls-1" d="M197.67,118.33a30,30,0,0,0-11.5-18.73c-6.88-5.06-15.76-6.36-24.1-6.19l-.24,0a28.58,28.58,0,0,0-9.21,2.2,42.25,42.25,0,0,0-6.37,2.94c-3.74-12.26-7.08-24.62-9-37.31,1.86-4.14,3.17-8.7,5.93-12.28.72-.95,1.63-2.77.77-3.9a1.15,1.15,0,0,0-.9-.48,1,1,0,0,0-.58-.14A171.16,171.16,0,0,1,121.87,44c-2.36-.2-4.79,5.36-2.1,5.58a168,168,0,0,0,18.5.54c-1.82,3.54-3.1,7.34-4.93,10.91-.4.78-.94,2.22-.42,3.1.15,1,.32,2.1.49,3.14-22.45.39-44.9.9-67.35,1.28q-1.68-3.7-3.39-7.39c2.57-.07,5.15-.24,7.72-.51a1.73,1.73,0,0,0,.45-.05l.21,0c1.11-.12,2.15-1.55,2.53-2.92a2.06,2.06,0,0,0-.14-2.11,1.27,1.27,0,0,0-1-.47c-2.51-1-4.82-2.76-7-4.26-2.48-1.7-4.87-3.56-7.38-5.21a12.48,12.48,0,0,0-12.47-1,13.32,13.32,0,0,0-4.67,4.22,13.24,13.24,0,0,0-1.8,2.92A3.26,3.26,0,0,0,39,54.55c2.17,4.56,7.72,5.61,12.26,6.11,1.82.19,3.65.32,5.48.4a.87.87,0,0,0,.07.17q2.52,5.4,5,10.82c-4.1,7.37-8,14.85-11.74,22.39A39.35,39.35,0,0,0,15.22,102c-10.65,8.84-16.35,24.2-11.84,37.6A30,30,0,0,0,17,156.35c7.66,4.21,16.7,4.3,25.14,3l.29,0a29.25,29.25,0,0,0,8.88-3.48,35.39,35.39,0,0,0,8-5.52c5.31-5.11,8.64-11.82,10.54-18.88.24-.9.46-1.81.65-2.74l10.66.26a9.65,9.65,0,0,0,0,1.7,8,8,0,0,0,2,4.51q-.12.24-.21.45A70.37,70.37,0,0,1,79.81,142c-.06.1-.11.22-.17.34l-.8,0a3.68,3.68,0,0,0-3,2.61c-.27.76-.57,3.06.89,3a65.05,65.05,0,0,1,12.08.41c2.34.3,4.82-5.24,2.1-5.59a65,65,0,0,0-7.11-.51q1.26-2.4,2.36-4.87a7.92,7.92,0,0,0,4.87.48c4.88-1.09,8.44-6.72,7.95-11.57a8,8,0,0,0-.8-2.76c12.53-15.15,24.77-30.52,37.28-45.69,1.77,8,4,15.93,6.39,23.79a41.08,41.08,0,0,0-10.47,15c-3,7-4.59,15.09-2.55,22.55,1.77,6.47,6.37,11.74,12,15.26,12.05,7.56,28.76,7.29,40.62-.52C193,146.32,200.19,132.19,197.67,118.33ZM192.08,117l-.19.11a14.52,14.52,0,0,0-1.75,1.57c0-.16-.09-.31-.13-.47a1.78,1.78,0,0,0,.3-.17l1.61-1.47Zm-34.73,35.29a9.87,9.87,0,0,0-.3,1.71c-.41-.06-.81-.13-1.22-.21l.42-1.67,1.14.13Zm-13-3.59c0,.24,0,.48-.08.73l-.79-.49c0-.51.05-1,.06-1.52l.51.34c.5.32,1,.62,1.54.91l-.08.1a.28.28,0,0,1,.11-.08l.66.35c0,.48-.09,1-.13,1.44-.53-.27-1.05-.56-1.57-.87l.13-1.12C144.7,148.56,144.36,148.6,144.35,148.69Zm-9.22-17.94c9.11-1.54,18.2-3.19,27.31-4.71l.15,0a5.4,5.4,0,0,0-.18,1c-8,4.58-15.79,9.65-23.82,14.25A19.55,19.55,0,0,1,135.13,130.75Zm.36-5.32a33.69,33.69,0,0,1,1.63-6c7.55,1.49,15,3.59,22.49,5.18,1,.46,1.93.89,2.94,1.26-9,1.52-18,3.15-27,4.67a2.46,2.46,0,0,0-.39.09A24.28,24.28,0,0,1,135.49,125.43Zm24.93-24.74,0,0,0,0c.6,0,1.19,0,1.78,0l0,0,0,0c1.13,0,2.25.1,3.37.22-.2,0-.36.07-.36.12l-.18,19.4-.79-.31c-2.28-6.36-4.61-12.69-6.87-19.06,0,0-1.17.34-1.18.32,2.14,6,4.35,12,6.52,18.06-.84-.4-1.66-.84-2.45-1.31-3.64-4.66-7.18-9.38-10.93-13.94,0,0,0,0-.06,0,.35-.19.7-.38,1.07-.56,2.93-1.42,6.25-2.83,9.53-2.94a1.85,1.85,0,0,0,.63-.17l0,0a1.81,1.81,0,0,1-.59.17Zm5.08-.49a5.57,5.57,0,0,1,1-1l.88.08a5.17,5.17,0,0,0-1.09,1.24c-.75-.06-1.51-.1-2.27-.12a.21.21,0,0,0,.12-.08,8.7,8.7,0,0,1,1-1.22c.41,0,.83,0,1.24.09a5.83,5.83,0,0,0-1.26,1.22C165.23,100.31,165.43,100.3,165.5,100.2Zm9.29,1.58c.25-.26.49-.53.73-.79l.89.32a9.55,9.55,0,0,0-1.06,1c-.59-.22-1.18-.41-1.79-.59a9.46,9.46,0,0,1,1.14-1l.69.23-.95,1C174.53,101.89,174.71,101.87,174.79,101.78Zm7.32,3.83.9-.77.48.37a4.77,4.77,0,0,0-1.3,1L182,106c-.34-.27-.7-.53-1-.78l.09-.06a6.54,6.54,0,0,1,1.11-.92c.28.18.55.37.82.57l-1.19,1C181.86,105.73,182,105.7,182.11,105.61Zm2.1,1.68.72-.88.69.64a.59.59,0,0,0-.19.11l-1,1.09q-.69-.73-1.44-1.41l1.18-1.09.66.57a0,0,0,0,0,0,0l-.95,1.16C183.94,107.39,184.13,107.39,184.21,107.29Zm1.69,2,1-1c.52.58,1,1.18,1.49,1.8a12.16,12.16,0,0,0-1.43,1.26c.09-.09.26-.11.36-.2a10.54,10.54,0,0,1,1.11-1c.18.24.36.49.53.74-.5.44-1,.9-1.47,1.37a21.85,21.85,0,0,0-1.22-1.85l1.37-1.14c-.1.08-.25.11-.35.2l-1.06.89a18.11,18.11,0,0,0-1.16-1.46l.13-.07,1.23-1c.14.14.27.29.41.44l-.09.06-1.16,1.17C185.64,109.4,185.81,109.39,185.9,109.29Zm6,7.18L190,118.19l-.33-1a8.63,8.63,0,0,1,1.82-1.59C191.63,115.86,191.76,116.16,191.88,116.47Zm-3.06-1.53a.1.1,0,0,0,.05,0l1.37-1.48c-.09.09-.26.11-.35.2l-1.12,1.21c-.14-.3-.28-.6-.43-.9a10.61,10.61,0,0,1,1.53-1.54c.39.65.76,1.32,1.09,2a.5.5,0,0,0-.12.08L189.25,116C189.12,115.63,189,115.28,188.82,114.94Zm.85-2.49a11.16,11.16,0,0,0-1.39,1.36c-.12-.24-.24-.49-.38-.73a.39.39,0,0,0,.2-.11,9.08,9.08,0,0,1,1.3-1.33l.45.71A.77.77,0,0,0,189.67,112.45Zm-.3-.86h0a9.11,9.11,0,0,0-1.48,1.43c-.12-.22-.24-.44-.37-.65,0,0,.05,0,.06,0,.46-.46.93-.9,1.41-1.33C189.11,111.19,189.24,111.39,189.37,111.59Zm-2.47,2.14a1.15,1.15,0,0,0-.37.12l-15.27,8.63a3.35,3.35,0,0,0-1.13-1.34l0,0q5.88-6.89,11.77-13.78A22.27,22.27,0,0,1,186.9,113.73Zm-48.17,27.68a1.09,1.09,0,0,0,.36-.12c7.88-4.47,15.46-9.43,23.31-13.95a4.3,4.3,0,0,0,.1.87c-5.53,6.53-10.82,13.26-16.35,19.79A24.29,24.29,0,0,1,138.73,141.41Zm35-38.73h0l-6.72,18a5.39,5.39,0,0,0-.68.22l-.06,0q.09-9.93.17-19.85A34.6,34.6,0,0,1,173.72,102.68ZM184,105.8l-1.06,1c-.23-.21-.47-.41-.71-.6.09-.07.23-.09.31-.18a3.09,3.09,0,0,1,1-.76l.6.48A.53.53,0,0,0,184,105.8Zm-3.1-.63-.69-.45a.35.35,0,0,0,.12-.07l1-1,.85.55A8.32,8.32,0,0,0,180.87,105.17Zm-.75-.49-.73-.45,0,0a9.93,9.93,0,0,1,1-1l.71.41Zm-.82-.5-.84-.47a7.37,7.37,0,0,1,1.06-1q.45.22.9.48A9,9,0,0,0,179.3,104.18Zm2.16,2.82a.56.56,0,0,0-.35.14l-11.66,13.64a3.67,3.67,0,0,0-1.35-.25q3.28-8.76,6.55-17.5A24.86,24.86,0,0,1,181.46,107Zm-6-4.61a.41.41,0,0,0,.11-.07,9.75,9.75,0,0,1,.95-1l1.23.49-.1.06a5.35,5.35,0,0,0-1,1C176.24,102.7,175.85,102.54,175.44,102.39Zm-1-1.56a8,8,0,0,0-1,.91l-1.16-.31,1-1.1c-.09.1-.27.11-.36.2l-.76.87c-.38-.1-.76-.18-1.15-.25a7.44,7.44,0,0,1,1-1c-.1.08-.25.11-.35.2a8.4,8.4,0,0,0-.78.8l-1.26-.22.07,0,.84-1c-.09.09-.27.1-.36.2l-.68.78-1-.13h0a5.42,5.42,0,0,0,.85-1.06c-.06.1-.29.1-.35.2a5.89,5.89,0,0,1-.65.84c-.64-.08-1.28-.15-1.93-.2.07,0,.15,0,.18-.1a4.57,4.57,0,0,1,.91-1.14,38.69,38.69,0,0,1,7.18,1.43A1.32,1.32,0,0,0,174.46,100.83Zm-10.58-.44c-.4,0-.8,0-1.2,0L163.8,99l1.22.06A7.94,7.94,0,0,0,163.88,100.39Zm-6.6,15.69a30.32,30.32,0,0,1-9.05-11.25l.14-.09C151.41,108.46,154.33,112.28,157.28,116.08Zm-9.55-1.28q-3-1.71-6-3.45c-.08,0-.22,0-.37.05a32.8,32.8,0,0,1,2.16-2.65l.38-.39A33.42,33.42,0,0,0,147.73,114.8ZM141,111.92c2.71,1.6,5.44,3.16,8.18,4.72a32.84,32.84,0,0,0,8.55,7c-6.82-1.55-13.58-3.4-20.46-4.7A34,34,0,0,1,141,111.92Zm-3.16,30.21a8.63,8.63,0,0,1-.27,1.74c-.32-.37-.63-.76-.93-1.15a10.21,10.21,0,0,1,.47-1.61Zm.07,1.6a8.46,8.46,0,0,0,.23-1.22l.37.45v0c-.08.55-.15,1.11-.23,1.66-.23-.24-.45-.49-.67-.75C137.72,143.84,137.93,143.81,138,143.73Zm.87-.45c.24.26.48.53.73.79-.09.51-.19,1-.28,1.54-.23-.22-.46-.44-.68-.67C138.67,144.39,138.75,143.83,138.82,143.28Zm1,1.07c.3.29.6.58.91.86-.05.52-.1,1-.16,1.56-.34-.29-.69-.6-1-.91Zm1.22,1.13.74.63c0,.51-.07,1-.11,1.53l-.79-.61C140.92,146.51,141,146,141,145.48Zm1.06.88c.37.29.74.56,1.12.83a0,0,0,0,0,0,0c0,.5,0,1,0,1.5-.4-.27-.8-.54-1.18-.83C142,147.37,142.05,146.87,142.09,146.36Zm4.51,2.83,1,.47a7.65,7.65,0,0,0-.17,1.43c-.32-.14-.63-.3-.95-.46Zm1.26.59c.38.17.75.33,1.13.48l-.18,1.45-1-.45A7.32,7.32,0,0,1,147.86,149.78Zm-1.09-1.43c5.44-6.4,10.63-13,16-19.42a2.31,2.31,0,0,0,.43.46c-2.74,7.33-5.43,14.68-8.17,22a30.68,30.68,0,0,1-4.46-1.3A29.5,29.5,0,0,1,146.77,148.35Zm4.45,2.68a4.55,4.55,0,0,0-.05,1.56c-.32-.11-.64-.21-.95-.33a12.31,12.31,0,0,1,.23-1.48Zm.3.09c.52.15,1,.29,1.58.41-.09,0-.18.06-.19.11l-.29,1.4-1-.32A4.78,4.78,0,0,1,151.52,151.12Zm1.72.44,1,.23c-.11.53-.21,1.06-.32,1.6l-1-.27C153,152.6,153.13,152.08,153.24,151.56Zm1.34.29,1.38.22-.41,1.66-1.29-.28C154.37,152.92,154.47,152.38,154.58,151.85Zm1.46-.25s0,0,0,0c2.7-7.2,5.34-14.42,8-21.63l.43.2c-.07,7.27-.17,14.55-.24,21.82A30.81,30.81,0,0,1,156,151.6Zm9.65-21.08a3.78,3.78,0,0,0,.56.08c2.38,6.35,5.09,12.56,7.37,19a29.58,29.58,0,0,1-8.16,2.28C165.52,144.73,165.62,137.62,165.69,130.52Zm1.81-.06a3.23,3.23,0,0,0,.59-.22l12.32,15h0a27.06,27.06,0,0,1-5.72,3.82C172.48,142.78,169.83,136.68,167.5,130.46Zm13.76,14-12.21-14.82a7.68,7.68,0,0,0,.67-.61L186,138.62a28.07,28.07,0,0,1-3.1,4.22C182.34,143.41,181.81,144,181.26,144.48Zm-11-16.11a8.07,8.07,0,0,0,.68-1.11l18.18,3.37a26.57,26.57,0,0,1-2.75,7.23Zm19,1.75-18.07-3.36,0-.07a7.09,7.09,0,0,0,.42-1.72l17.7-3,.2,0A25,25,0,0,1,189.25,130.12Zm-17.61-5.27a4.69,4.69,0,0,0-.26-2.08L187,113.93c.13.25.26.49.37.74a24.14,24.14,0,0,1,2.14,7.19Zm19.86-9.31a9.5,9.5,0,0,0-1.87,1.46c-.11-.31-.22-.62-.34-.93l1.7-1.62c.1.2.2.39.29.59S191.42,115.37,191.5,115.54Zm-5.16-7.76-.05,0L185,108.9c-.16-.19-.33-.38-.5-.56.39-.41.77-.83,1.16-1.25Zm-6.86-5.12-.16.08a8.44,8.44,0,0,0-1,.92c-.53-.27-1.06-.52-1.6-.75,0,0,.06,0,.07-.06a6,6,0,0,1,1-1c.47.2.94.41,1.39.64Zm-28.75-1.24c1.19-.49,2.46-1,3.75-1.41l-.62,1.14c0-.1.3-.1.35-.2l.56-1c.81-.25,1.62-.47,2.43-.64l-.92,1.23c.07-.1.27-.1.35-.21l.8-1.06c.34-.07.68-.12,1-.16l-.07,0-.61,1c.06-.1.29-.11.35-.21l.54-.83c.31,0,.62-.06.92-.07h.5a2,2,0,0,0-.29.17,2.33,2.33,0,0,0-.78,1c0-.1.31-.1.35-.2a2.45,2.45,0,0,1,.74-1c1.17,0,2.35,0,3.52,0-.37.45-.74.91-1.12,1.36h-1.39a1,1,0,0,0-.3.05v0a1.26,1.26,0,0,1,.27,0h-.25l.87-1.33c-.06.1-.28.1-.35.2l-.74,1.14a31.61,31.61,0,0,0-9.88,2.85,25.3,25.3,0,0,0-2.55,1.28h0l-.08,0c-.09-.2-.18-.4-.26-.6a2.18,2.18,0,0,0-.08-.53l-.18-.57A34.34,34.34,0,0,1,150.73,101.42ZM54.13,55.15l-1-.11c1.3-.92,2.63-1.83,4-2.71l.33.24.75.53c-1.08.68-2.13,1.39-3.17,2.12Zm-9.54-2.87C45.76,51.14,47,50,48.18,48.93l.68,0-4,3.59Zm.68.52,4.39-3.89.66.06c.24,0,.48.08.71.14l-4.92,4.2A8.94,8.94,0,0,1,45.27,52.8Zm1.35.76,5-4.29c.34.1.67.22,1,.35a57.83,57.83,0,0,0-5.41,4.19Zm6.46-3.75c.32.15.63.31.94.48l-5.4,4L47.81,54A60.85,60.85,0,0,1,53.08,49.81Zm1.36.73c.44.26.86.54,1.29.83l-4.67,3.41c-.63-.1-1.26-.21-1.89-.36Zm1.67,1.09.65.46C55.32,53,53.89,54,52.49,55l-.8-.11Zm2.38,1.7.74.53c-.6.54-1.21,1-1.84,1.54-.58,0-1.16-.07-1.73-.12C56.59,54.61,57.53,54,58.49,53.33Zm1.19.85,2,1.38c-1.18,0-2.36-.05-3.53-.11C58.64,55,59.17,54.62,59.68,54.18ZM47.16,49.1c-1,.91-2,1.83-3,2.78-.19-.2-.38-.42-.56-.64A6.71,6.71,0,0,1,47.16,49.1ZM59.23,106c.45.38.89.79,1.3,1.2a15.53,15.53,0,0,0-1.61,1c-.16-.17-.33-.33-.5-.49l1.19-.57c.12-.06.23-.15.35-.2l-1.57.74c-.23-.22-.48-.44-.73-.66.44-.3.88-.59,1.34-.85-.46.27-.91.54-1.35.84l-.44-.38a4.15,4.15,0,0,1,.42-.36,5,5,0,0,1,1.1-.64h0l.48.41-.08,0Zm6.88,17,.76-.37V123Zm-1.2-2.88a7.81,7.81,0,0,1,1.68-.72l.06.4-1.33.67-.34.2,1.56-.79.11-.06c0,.22.06.44.08.67a16.5,16.5,0,0,0-1.71,1c.11-.07.24-.12.35-.2a11.55,11.55,0,0,1,1.3-.79l.06,0c0,.29.06.58.08.86a6.19,6.19,0,0,0-1.41.88c.1-.09.25-.12.35-.21a3.75,3.75,0,0,1,1.06-.61c0,.25,0,.51,0,.76l-1.21.56c-.12.06-.23.15-.35.21l1.56-.73c0,.13,0,.26,0,.39l-.82.4-1.41,0a25.84,25.84,0,0,0-.24-3.63c.53-.29,1.08-.57,1.64-.81.12-.05.22-.15.35-.2a19.47,19.47,0,0,0-2,1c0-.29-.09-.57-.14-.85.39-.21.79-.41,1.2-.59.13-.05.23-.15.36-.2a17.37,17.37,0,0,0-1.56.77c-.05-.27-.1-.55-.16-.82a13.36,13.36,0,0,1,1.49-.81c.13,0,.23-.15.36-.2a18.3,18.3,0,0,0-1.86,1c0-.2-.1-.41-.15-.61l1.86-1.08a24.44,24.44,0,0,1,.78,3.41,12.14,12.14,0,0,0-1.85.9ZM44.79,151.56q-3.39-10-6.76-20a6.33,6.33,0,0,0,.54-.36c4.36,5.52,8.64,11.1,13,16.6-.36.24-.72.48-1.08.7A37.63,37.63,0,0,1,44.79,151.56Zm-8.17,2.95a22,22,0,0,1,1.74-1.6c.57-.06,1.13-.12,1.69-.2l-.28.16a17.88,17.88,0,0,0-1.9,1.58C37.46,154.48,37,154.5,36.62,154.51Zm-.15,0-.86,0A15.26,15.26,0,0,1,37.38,153l.85-.07A20.36,20.36,0,0,0,36.47,154.52Zm.69-1.41a14.46,14.46,0,0,0-1.7,1.43h-.61a9.06,9.06,0,0,1,1.56-1.47l.93-.06Zm-1,.09a9,9,0,0,0-1.49,1.34c-.34,0-.68,0-1,0L35,153.14l1.34-.06A.88.88,0,0,0,36.16,153.2Zm-3.76.27a9.67,9.67,0,0,0-1,.9l-.89-.08a15.62,15.62,0,0,1,1.11-1.19c.74,0,1.47.06,2.21.06a.89.89,0,0,0-.25.14,13.77,13.77,0,0,0-1.13,1.16l-.91-.07a10.89,10.89,0,0,1,1.22-1.13C32.64,153.35,32.5,153.39,32.4,153.47Zm-18.33-7c.18-.28.37-.56.55-.85.17.19.34.36.52.54a8.8,8.8,0,0,0-.64.73C14.35,146.75,14.21,146.62,14.07,146.47ZM6.34,128.81,8,127.17c0,.37,0,.74,0,1.11a.82.82,0,0,0-.2.12,18.09,18.09,0,0,0-1.35,1.28C6.37,129.39,6.35,129.1,6.34,128.81Zm25.08-27.25c.65-.14,1.3-.27,2-.37l-.1.1a.83.83,0,0,1,.21-.12l.87-.12,0,0,0,0c.57-.07,1.14-.12,1.71-.16,0,0-.06,0-.06,0q-.23,9.65-.42,19.29a4.19,4.19,0,0,0-.5.31l-.39.31q-3.11-9.21-6.23-18.42a5.2,5.2,0,0,0-.59.16,28.56,28.56,0,0,1,3.53-1h0Zm3.2-2.2a23.87,23.87,0,0,0-2.3,1.82l-.45.09c.85-.81,1.74-1.6,2.66-2.35.54,0,1.09-.09,1.64-.12a2.91,2.91,0,0,0-.3.17,20.08,20.08,0,0,0-2.25,2l-1.17.21.07,0a22.26,22.26,0,0,1,2.46-2C34.86,99.23,34.73,99.28,34.62,99.36Zm6.13,1.57-.13.09.16-.09a30.69,30.69,0,0,1,3.69.55c-1.84,4.79-3.42,9.68-5.06,14.54-.68,1.37-1.35,2.75-2,4.13a1,1,0,0,0-.6-.23q.21-9.54.41-19.08A30.23,30.23,0,0,1,40.75,100.93Zm12.15.94c-.6.32-1.19.65-1.77,1l-.86-.35,1.67-1.09C52.27,101.58,52.59,101.72,52.9,101.87Zm1.53,3.77c-4.28,4.86-8.64,9.65-13,14.48q4.17-8.49,8.34-17A26.13,26.13,0,0,1,54.43,105.64Zm4.65,4.23a17.62,17.62,0,0,1,2,3,1.32,1.32,0,0,0-.45.14c-5.66,3.1-11.29,6.27-16.93,9.4l-2.52-.06a5.52,5.52,0,0,0-.28-.54c4.69-5.28,9.44-10.5,14.11-15.79A21.68,21.68,0,0,1,59.08,109.87Zm6.72,6L63.94,117c0-.13-.06-.27-.1-.4a2.76,2.76,0,0,0-.08-.27,10,10,0,0,1,1.83-1ZM24.26,151.05a22.16,22.16,0,0,1-6.18-3.62c4.83-5.5,9.61-11,14.43-16.56a4,4,0,0,0,.79.74c-2.61,6.62-5.25,13.23-7.85,19.87C25.05,151.34,24.65,151.21,24.26,151.05Zm-11.45-9.68c-.34-.55-.65-1.11-.94-1.68a2.58,2.58,0,0,0,.75-.19c6.32-3.46,12.63-6.95,18.94-10.42a5,5,0,0,0,.54,1.22c-4.86,5.56-9.68,11.15-14.54,16.7A24.7,24.7,0,0,1,12.81,141.37Zm31.45-18.94c5.62-3.13,11.24-6.29,16.88-9.39a21.21,21.21,0,0,1,2.19,7.86c-2.5.59-5,1.21-7.48,1.82Zm-1.43-13.37c.83-2.47,1.69-4.93,2.62-7.36l.85.22h0Q44.58,105.48,42.83,109.06Zm2.82-7.89,0,0a1.13,1.13,0,0,0,.21-.12l1.46-1.12-.74,1.5C46.28,101.3,46,101.23,45.65,101.17Zm-18.33,1.62,6.42,19a6,6,0,0,0-.46.54L20.72,106.62c-.06-.07-.36.06-.64.18A28.68,28.68,0,0,1,27.32,102.79Zm-7.65,4.32q6.46,8.07,12.94,16.15a6.22,6.22,0,0,0-.32.56l-17.43-10.6c-.23-.14-.83.35-1.11.33.39-.58.79-1.15,1.22-1.71A27.33,27.33,0,0,1,19.67,107.11Zm-5.93,6.46,18.17,11.06a7.52,7.52,0,0,0-.27.8l-20-4c-.37-.07-.83.39-1.18.32L31.5,126a7.38,7.38,0,0,0-.16,1.24l-20,3.05c-.4.06-.78.25-1.18.32l21.16-3.24a5.72,5.72,0,0,0,0,.59,5,5,0,0,0,.13.88L11.83,139.61A26.06,26.06,0,0,1,13.74,113.57ZM6.8,132.71l1.28-1.33.06.51c-.44.4-.85.83-1.25,1.27Zm0-.14c0-.24-.09-.49-.13-.74L8,130.43c0,.26,0,.53.07.8Zm-.38-2.73c.49-.53,1-1,1.54-1.51,0,.31,0,.62,0,.93l-1.45,1.5C6.46,130.45,6.43,130.14,6.4,129.84ZM8,129.42c0,.28,0,.57,0,.85l-1.37,1.42c0-.26-.07-.52-.11-.79Zm-1,3.9A17.11,17.11,0,0,1,8.16,132c0,.28.08.56.13.84-.42.38-.81.78-1.2,1.19C7,133.8,7,133.56,6.92,133.32ZM8.31,133c0,.24.09.47.14.71a.25.25,0,0,0-.12.08l-1,1.12c-.07-.23-.13-.46-.19-.69C7.51,133.77,7.9,133.36,8.31,133Zm-1,2.06,1.11-1.24s0,.08,0,.12.07.27.1.41c-.33.46-.68.9-1,1.33C7.48,135.44,7.42,135.23,7.36,135Zm1.28-.52c.07.27.13.54.21.81-.37.36-.71.74-1,1.13-.08-.22-.14-.44-.22-.66C8,135.38,8.31,135,8.64,134.51Zm-.45,3,.9-1.07c-.08.1-.27.11-.35.21l-.6.72c-.1-.24-.18-.48-.27-.72.32-.41.66-.8,1-1.18q.22.76.48,1.5l-.95,1Zm1.22-.41.3.79-.93,1-.32-.72Zm.35.91c.1.25.2.5.32.75a.2.2,0,0,0-.09.06l-.79.9c-.13-.25-.25-.49-.36-.74Zm-.5,1.83.86-1,.29.63h0l-.81,1C9.48,140.24,9.37,140,9.26,139.8Zm1.22-.2.19.36h0L9.93,141c-.09-.14-.17-.29-.25-.43Zm-.34,1.79-.12-.2.74-1.06c.08.16.15.31.24.47l-.75,1A1.74,1.74,0,0,0,10.14,141.39Zm.94-.64c.08.14.16.28.25.42-.23.33-.47.65-.72,1l-.27-.43Zm.34.58c.1.17.2.34.31.51l-.06,0a10.77,10.77,0,0,1-.65.86c-.11-.16-.22-.31-.32-.47C11,142,11.19,141.65,11.42,141.33Zm.15,2.2.63-.83c-.07.1-.27.1-.35.2l-.37.5-.38-.54a10.26,10.26,0,0,0,.71-.89c.26.41.52.8.8,1.19L12,144Zm1.14-.23.23.31-.67.82-.21-.25Zm-.35,1.25.67-.82.35.45-.71.75C12.56,144.81,12.46,144.68,12.36,144.55Zm.39.47.7-.75c.1.11.18.23.28.34a.1.1,0,0,0-.05,0l-.61.74Zm1.06-.31.31.36a.37.37,0,0,0-.17.1l-.51.64c-.09-.1-.18-.21-.28-.31Zm.37.42.33.38a.27.27,0,0,0-.08.07l-.49.76-.39-.42Zm1,1.12.51.48,0,0c-.22.21-.43.44-.64.67l-.45-.42A7.51,7.51,0,0,1,15.22,146.25Zm.59.55c.17.17.35.33.53.49-.09,0-.19.06-.24.13l-.39.59-.55-.49C15.36,147.27,15.58,147,15.81,146.8Zm.57.53.51.43-.09.1a.36.36,0,0,1,.12-.08l.19.17c-.21.23-.41.48-.6.73l-.66-.55C16,147.86,16.2,147.59,16.38,147.33Zm.84.7c.26.21.53.41.8.61l-.06,0c-.21.21-.4.43-.59.66l-.73-.56C16.82,148.52,17,148.27,17.22,148Zm.89.67c.23.16.46.32.7.47-.09.08-.26.1-.33.19s-.25.33-.37.49l-.61-.43A8.29,8.29,0,0,1,18.11,148.7Zm.7.48.27.18.46.28c-.18.27-.36.53-.55.78l-.74-.47A8.39,8.39,0,0,1,18.81,149.18Zm.87.55.68.38a9,9,0,0,1-.61.77l-.64-.38C19.31,150.25,19.5,150,19.68,149.73Zm.82.46.61.31,0,0a6.84,6.84,0,0,0-.58.75c-.21-.11-.42-.22-.62-.34Q20.2,150.58,20.5,150.19Zm.73.37.56.27-.05,0-.55.77-.53-.27A5.63,5.63,0,0,1,21.23,150.56Zm.11,1.15c.2-.27.4-.54.59-.82l.21.09-.64.81Zm.94-.67.46.19-.69.81-.41-.19Zm.59.25.77.29-.68.85-.78-.33Zm.92.34.8.26a5.37,5.37,0,0,0-.81.84l-.68-.25Zm.9.29.69.2a8.25,8.25,0,0,0-.79.89l-.65-.22A4.43,4.43,0,0,1,24.69,151.92Zm.81.23.63.17-.88.9-.49-.15A7.27,7.27,0,0,1,25.5,152.15Zm.76.2.85.18-.87,1-.87-.23Zm1,.21,1,.18-1,1c-.3-.06-.6-.13-.89-.21C26.67,153.21,27,152.88,27.26,152.56Zm1.12.2c.34.06.69.1,1,.15l-1,1.07-1-.21Zm1.18.16c.28,0,.57.07.85.09l0,0a7.66,7.66,0,0,1-.95,1.1l-.84-.14Zm1,.11c.3,0,.6.05.91.06a14.09,14.09,0,0,0-1.14,1.18l-.79-.11A7.77,7.77,0,0,0,30.57,153Zm3.28.13h.83v.08s.09-.06.22-.09H35a1.17,1.17,0,0,0-.27.15l-1.22,1.22-.9,0A15.36,15.36,0,0,1,33.85,153.16Zm-7.67-1.46c.15,0,.26-.06.29-.13,2.54-6.51,5.14-13,7.7-19.5a4.19,4.19,0,0,0,.88.21c-.13,6.85-.22,13.71-.37,20.57A30.52,30.52,0,0,1,26.18,151.7Zm13.24-21.25a7,7,0,0,0,.51-.58c5.88,3.71,11.61,7.66,17.54,11.29.14.09.45-.09.73-.22-.39.6-.79,1.18-1.22,1.75a22.92,22.92,0,0,1-4.47,4.44C48.1,141.6,43.8,136,39.42,130.45Zm18.95,10.22c-6-3.71-11.9-7.75-17.92-11.52a9.62,9.62,0,0,0,.58-1c7,1.27,14,2.28,20.91,3.66a.69.69,0,0,0,.28,0A32.91,32.91,0,0,1,58.37,140.67Zm4-9.36c-6.23-1.21-12.49-2.15-18.73-3.26l19.32.5C62.77,129.47,62.57,130.39,62.34,131.31ZM56,122.72c2.29-.56,4.59-1.13,6.89-1.67l.48-.13c.06.66.09,1.33.09,2Zm7.79-6.45c-.07-.25-.14-.5-.22-.75a16.5,16.5,0,0,1,1.76-1.07c.1.26.2.52.29.79A13.18,13.18,0,0,0,63.75,116.27Zm-.23-.77c-.06-.18-.13-.34-.19-.51l0,0a9,9,0,0,1,1.7-1.1l.23.56A19.81,19.81,0,0,0,63.52,115.5Zm-.21-.56c-.09-.26-.2-.52-.31-.78A17,17,0,0,1,64.68,113c.13.27.25.55.37.82A13.69,13.69,0,0,0,63.31,114.94Zm-.32-.82c-.1-.23-.2-.46-.31-.69a18.26,18.26,0,0,1,1.68-1.06c.11.22.22.43.32.65C64.1,113.36,63.53,113.73,63,114.12Zm-.32-.72-.28-.54c.58-.3,1.16-.61,1.72-1l.25.46C63.78,112.68,63.21,113,62.67,113.4ZM64,112a15.33,15.33,0,0,1-1.59.88c-.12-.24-.25-.47-.38-.7a6.63,6.63,0,0,1,1.64-.82l.11-.06c.12.21.24.42.35.63Zm-2,.14-.32-.54a4.4,4.4,0,0,1,1.66-.83l.08,0c.11.18.22.35.32.53A9.47,9.47,0,0,0,62,112.11Zm-.35-.59-.27-.41.06,0a7,7,0,0,1,1.4-.75,1.88,1.88,0,0,0,.24-.14l.3.45A6.28,6.28,0,0,0,61.63,111.52Zm-.28-.42c-.15-.23-.31-.45-.46-.67l.08-.05a10.44,10.44,0,0,1,1.23-.68l.35-.2a16.88,16.88,0,0,0-1.67.92c-.11-.15-.23-.3-.34-.46l.2-.11,1.38-.82h0l-.25.14c-.44.27-.89.53-1.34.79l-.4-.5,0,0a8.34,8.34,0,0,1,1.47-.94l.09,0,.1.11c.44.52.84,1.07,1.22,1.62A10,10,0,0,0,61.35,111.1Zm-1.24-1.67c-.19-.23-.38-.45-.58-.67l1.67-.91c.18.19.35.39.52.59A12.64,12.64,0,0,0,60.11,109.43Zm-.59-.68h0c-.19-.21-.37-.41-.57-.61a8.77,8.77,0,0,1,1.55-.94l0,0c.22.22.43.44.64.67Zm-2.08-2.49-.31.22c-.29-.24-.59-.47-.9-.7a7.9,7.9,0,0,1,1.12-.67c.13,0,.23-.14.36-.2a11.22,11.22,0,0,0-1.51.85l-.46-.34,1.14-.7-.34.19-.81.51-.13-.09.07-.08a.22.22,0,0,1-.09.07L55.1,105l1-.6-.34.2-.63.39-.71-.45.84-.44c.11,0,.26-.15.34-.19l-1.07.56-.12.07-.47-.28.09-.05a4.72,4.72,0,0,1,1-.67,3.4,3.4,0,0,0,.34-.2,9.71,9.71,0,0,0-1.45.89l-.63-.34,1.12-.67c.06,0-.06,0-.07,0l-.24.14-.82.5c-.13-.07-.25-.15-.38-.21l-.3-.15,1.17-.63.34-.2-1.51.82h0q-.35-.18-.69-.33l1.56-.93c.06,0-.06,0-.07,0l-.24.14-1.26.75-.7-.31.13-.08c.49-.3,1-.58,1.51-.84l.14-.08a28.32,28.32,0,0,1,5.81,3.63A8.58,8.58,0,0,0,57.44,106.26Zm-5.5-4.82c-.08,0-.22.12-.32.19l-1.37.89-.12,0c.25-.49.49-1,.73-1.48C51.23,101.14,51.59,101.29,51.94,101.44Zm-4.61-1.57a1.83,1.83,0,0,0-.24.13l-1.41,1.08h0a.1.1,0,0,1-.06.05l0,0h0l-.9-.17a.41.41,0,0,0,.11-.07c.6-.43,1.2-.83,1.83-1.22l.7.17Zm-.74-.18-.1,0q-.95.58-1.86,1.23l-.71-.11a9.42,9.42,0,0,1,1.61-1c.11-.06.25-.16.34-.2a13.45,13.45,0,0,0-2,1.23l-.5-.07A5.08,5.08,0,0,1,45,99.64c.12-.06.23-.15.35-.21a8,8,0,0,0-2.07,1.33l-.91-.1a15.5,15.5,0,0,1,1.89-1.31l-.18.1a19.78,19.78,0,0,0-1.78,1.2l-1-.07,1.92-1.41c-.1.08-.24.12-.35.2l-1.63,1.2-.81,0,1.93-1.34c-.11.08-.24.12-.35.2l-1.64,1.14c-.36,0-.73,0-1.09,0a10,10,0,0,1,1.6-1.15l.25-.14s.12-.07.06,0a14.21,14.21,0,0,0-2,1.32h-1L40,99c-.1.09-.25.12-.35.21l-1.51,1.27c-.25,0-.51,0-.76,0,.56-.55,1.14-1.07,1.75-1.56-.1.08-.25.12-.35.2-.54.43-1,.89-1.55,1.37l-1.15.08,2.17-1.78c-.1.09-.25.12-.35.21l-1.94,1.58-1.12.13a15.59,15.59,0,0,1,2.15-1.72c-.09,0-.24.12-.35.19a17.1,17.1,0,0,0-2,1.55c-.28,0-.55.07-.83.12a20.92,20.92,0,0,1,2.38-2.13A37,37,0,0,1,46.59,99.69Zm-33.27,9.53a29.61,29.61,0,0,1,9-6.84l-1.18,1.18c.1-.1.26-.12.36-.21l1.11-1.11c.47-.23.95-.45,1.43-.65l-1.06,1c.1-.09.25-.12.35-.2l.95-.85c.63-.27,1.28-.52,1.93-.74-.4.42-.81.84-1.21,1.27.09-.1.26-.11.35-.21l1.1-1.15q1.53-.52,3.12-.9a.84.84,0,0,0-.23.12c-.51.6-1,1.19-1.55,1.79.09-.1.27-.11.36-.21l1.49-1.72c.58-.13,1.15-.26,1.73-.37a.92.92,0,0,0-.21.13,16,16,0,0,0-1.89,1.88c.08-.09.27-.1.35-.2a15.64,15.64,0,0,1,1.82-1.82q.54-.1,1.08-.18a11,11,0,0,0-2.23,2c.08-.09.26-.1.35-.2a11.43,11.43,0,0,1,2-1.78c.3,0,.6-.09.9-.12-.8.6-1.58,1.25-2.32,1.93.1-.09.25-.12.35-.21.67-.61,1.37-1.19,2.08-1.74l.78-.08c-.93.75-1.83,1.55-2.7,2.37a34.8,34.8,0,0,0-8,2.78A28.43,28.43,0,0,0,8,127l0,0-1.65,1.63c0-.33,0-.66,0-1a15.34,15.34,0,0,0,1.28-1.27c-.09.1-.27.11-.36.21-.29.33-.6.64-.92,1,0-.37,0-.74,0-1.1.53-.54,1.08-1.07,1.66-1.57-.1.08-.25.11-.36.2q-.66.58-1.29,1.2c0-.34,0-.68.06-1,.55-.56,1.1-1.1,1.68-1.63-.1.09-.26.12-.36.21-.44.4-.88.82-1.3,1.24,0-.25.05-.51.08-.77.51-.55,1-1.09,1.57-1.61-.1.09-.26.11-.35.21-.41.38-.8.78-1.19,1.19l.12-.84q.69-.68,1.41-1.32c-.1.09-.25.11-.35.2-.35.31-.69.63-1,1,.06-.33.12-.67.19-1l1.21-1.22c-.09.09-.26.11-.35.2l-.83.83c0-.22.1-.45.16-.67l1.52-1.37c-.1.09-.26.11-.35.2l-1.14,1q.14-.55.3-1.11l1.36-1.2c-.1.09-.25.12-.35.21l-1,.85c.08-.26.16-.53.25-.79.37-.29.76-.57,1.16-.83-.08,0-.24.13-.34.2-.27.17-.54.37-.8.56l.18-.54,1-.66c-.08,0-.24.12-.34.19l-.68.44c.13-.35.26-.7.4-1a6.14,6.14,0,0,1,.86-.4c.12,0,.23-.16.35-.21a8.66,8.66,0,0,0-1.19.57c.15-.39.32-.77.49-1.15l.36-.21.34-.2-.69.38c.16-.34.32-.68.49-1,.25-.13.5-.25.76-.36s.23-.15.36-.2a9.93,9.93,0,0,0-1.09.52A28.31,28.31,0,0,1,13.32,109.22Zm53.07,19.54c-.57.3-1.12.62-1.66,1,.08-.06.24-.13.34-.2.37-.24.75-.46,1.15-.67l.17-.1c-.06.31-.11.62-.17.93-.48.24-1,.5-1.42.76l-.18.11c.53-.3,1.06-.58,1.59-.85-.06.32-.12.64-.19.95a13.8,13.8,0,0,0-1.37.87c.11-.08.25-.12.35-.2a10.93,10.93,0,0,1,1-.66c-.05.24-.1.48-.16.72a.35.35,0,0,0-.13.08,9.09,9.09,0,0,1-1.32,1l.34-.2a8.47,8.47,0,0,0,1.09-.8c-.09.37-.18.74-.28,1.11l-1,1c.09-.1.26-.11.35-.21l.55-.55c-.07.23-.13.47-.2.7a1,1,0,0,0-.2.11l-1,.83c.1-.08.25-.12.35-.2l.83-.69c-.1.33-.21.65-.31,1a2.91,2.91,0,0,0-.3.17l-1,.72c.11-.08.25-.12.35-.2l.91-.68c-.11.34-.23.67-.35,1l-.56.3-.34.2.64-.35.26-.15c-.1.27-.2.54-.31.8a1.82,1.82,0,0,0-.79.6c.06-.1.29-.1.35-.2a1.1,1.1,0,0,1,.14-.18c.07-.08.24-.15,0,0,.11-.05.21-.13.32-.18a29.83,29.83,0,0,1-4.82,8.24,20.93,20.93,0,0,1-2,2l.58-.89c-.07.1-.29.1-.36.2L57,147.06c-.32.27-.64.53-1,.78l.65-.94c-.06.09-.28.1-.35.2l-.73,1.05c-.43.31-.86.61-1.31.9l.87-1.16c-.08.1-.28.1-.36.2l-.9,1.21c-.51.32-1,.64-1.58.94l.89-1.44c-.06.1-.29.1-.35.21L52,150.44c-.63.35-1.28.71-1.93,1.05l1.76-2c-.08.1-.26.11-.35.21l-1.73,2-1.25.61,2.19-2.41c-.09.09-.27.1-.35.2l-2.12,2.33-.74.32c.45-.62.9-1.26,1.39-1.85.09-.06.31-.11.31-.17s-.06-.08-.14-.05h0l-.06,0-.18.11-.11.06h0l-.09.07a7.49,7.49,0,0,0-.82,1.1l-.63.83c-.48.19-1,.37-1.45.52.73-.84,1.49-1.66,2.28-2.45-.09.1-.25.12-.35.21-.75.74-1.47,1.51-2.17,2.31a11.13,11.13,0,0,1-1.17.3c.67-.79,1.37-1.57,2.11-2.3-.09.09-.26.11-.35.2-.69.69-1.35,1.41-2,2.15l-.44.08-.19,0-.35.05c.72-.77,1.46-1.52,2.22-2.26-.1.1-.26.12-.36.21-.69.68-1.37,1.37-2,2.08l-1,.14A13.15,13.15,0,0,1,44,152.14c-.11.08-.25.13-.36.21a13.24,13.24,0,0,0-1.92,1.74l-1.14.14a7.53,7.53,0,0,1,1.82-1.74c-.08,0-.24.12-.34.19a7.84,7.84,0,0,0-1.68,1.57l-1.26.12a13.21,13.21,0,0,1,2-1.7c-.11.08-.24.13-.35.21a11.59,11.59,0,0,0-1.78,1.5c-.3,0-.59.05-.89.06a16.08,16.08,0,0,1,2-1.73l1.06-.15c.4-.06.78-.26,1.18-.32a49.73,49.73,0,0,1-6.45.6c.15-6.87.23-13.74.37-20.61.23,0,.46-.1.68-.17q3.36,9.91,6.7,19.83s.77-.21,1.07-.29a11.72,11.72,0,0,1-2.36.65c-.4.07-.78.25-1.18.32a26.29,26.29,0,0,0,11.58-5,.15.15,0,0,1,.12,0l-.05-.06a28.53,28.53,0,0,0,9.06-11.64,37.8,37.8,0,0,0,2.22-7.27l2.34.06A.5.5,0,0,0,66.39,128.76Zm4.82-5.64A28.83,28.83,0,0,0,69,109.43,26.82,26.82,0,0,0,55,96.18c-.48-.21-1-.41-1.45-.59,3.27-6.51,6.61-13,10.12-19.38q10.44,23.19,19.69,46.9l-.22.31ZM91,132.49l-.31,0A27.73,27.73,0,0,1,94,127.33a5.05,5.05,0,0,1,.28.51c0,.07.06.15.1.23A14.63,14.63,0,0,0,91,132.49Zm-4.21-2.28a5.71,5.71,0,0,1-.62-.89,30.57,30.57,0,0,1,2.56-4.87h.23c-.47,1-.93,2.06-1.39,3.1a3.32,3.32,0,0,0-.25,1.62ZM85.52,127a5.53,5.53,0,0,0,.53-1.27l0,0a4,4,0,0,0,1-.75,5.06,5.06,0,0,1,.52-.23,32.13,32.13,0,0,0-1.93,3.42A3.12,3.12,0,0,1,85.52,127Zm2.25,3.21a1.23,1.23,0,0,0,.65.3,1.55,1.55,0,0,0,.77-.08c-.2.44-.4.87-.59,1.31a7,7,0,0,1-1.17-.85Zm1.71,1.95a40.81,40.81,0,0,1,3.21-6.28,5.89,5.89,0,0,1,.86.87,27.28,27.28,0,0,0-3.81,5.5Zm5.54-12c.74-1.51,1.5-3,2.28-4.51,0-.06.06-.13.1-.2l1.73.09a1.94,1.94,0,0,0,1.07-.29l-4.46,5.4A7,7,0,0,0,95,120.15Zm-3.48-1.21A8.25,8.25,0,0,0,89,119a1.84,1.84,0,0,0-.64.26l-.67.28L85.86,115q3.77.09,7.53.25C92.76,116.47,92.14,117.71,91.54,118.94Zm.53,13.47H92a14.81,14.81,0,0,1,2.53-3.7A3,3,0,0,1,92.07,132.41ZM102,113.05c.66-1.45.65-3-.75-3.11q-8.3-.48-16.61-.59a1.8,1.8,0,0,0-.91.26Q76.48,91.66,68.55,74c22-.38,43.9-.88,65.85-1.25,0,.15.06.29.08.43C123.55,86.39,112.84,99.78,102,113.05Zm32.8,26.72a8.25,8.25,0,0,0,.33-1.85c0,.07-.35.13-.35.2a9,9,0,0,1-.18,1.27c-.22-.44-.42-.88-.6-1.33l.48-1.83c0,.09-.33.11-.35.2l-.31,1.18c-.14-.36-.26-.71-.38-1.07a12.81,12.81,0,0,1,.64-2c0,.09-.32.1-.36.2-.17.42-.31.84-.44,1.27-.12-.41-.23-.83-.32-1.25.18-.71.36-1.43.55-2.14,0,.09-.33.11-.36.21l-.33,1.29c-.06-.33-.12-.66-.17-1l.75-2c0,.09-.32.1-.36.2l-.47,1.25c0-.33-.07-.66-.1-1a18.37,18.37,0,0,0,.79-2c0,.09-.32.1-.35.2-.14.44-.3.86-.47,1.28,0-.51,0-1,0-1.54a5.32,5.32,0,0,1,.47-.92c-.06.1-.29.1-.35.2l-.11.19q0-.66.06-1.32c.1,0,.21-.07.21-.11v-.21s-.09.07-.19.1a30.16,30.16,0,0,1,.69-4.29c1.48-6.24,4.71-12.57,9.5-16.91l.49-.42c0,.1.06.19.08.28a1.93,1.93,0,0,0,.11.84l.36.86a28.51,28.51,0,0,0-5.47,7.07,40.75,40.75,0,0,0-2.08,4.37h0a27,27,0,0,0-1.9,14.77,17.82,17.82,0,0,0,1.8,5.2c-.1,0-.27.08-.28.14l-.33,1.54C135.2,140.54,135,140.16,134.78,139.77Zm.89,1.51.42-2c.31.59.65,1.17,1,1.73-.1,0-.24.06-.26.13a9.42,9.42,0,0,0-.4,1.24l-.57-.8Zm13.45,10.56.18-1.46.86.31a14.2,14.2,0,0,0-.26,1.45l-.67-.25Zm35.59-5.58-.15.13c0-.25.06-.5.08-.76,0,.08-.34.12-.35.2,0,.3-.06.59-.1.88-.26.23-.53.45-.81.67a3.24,3.24,0,0,1,.2-.8c0,.1-.31.1-.35.21a2.7,2.7,0,0,0-.21.88c-.38.29-.76.58-1.15.85.07-.36.15-.73.22-1.1,0,.09-.33.12-.35.21l-.24,1.14c-.34.23-.69.46-1.05.68a8.78,8.78,0,0,1,.46-1.51c0,.1-.31.11-.35.21a7.4,7.4,0,0,0-.46,1.52l-1.11.63.24-.87c0,.09-.32.11-.35.2l-.24.85c-.38.21-.78.4-1.17.59l.29-1.11c0,.09-.32.11-.35.2-.09.36-.19.72-.28,1.07-.6.28-1.21.54-1.82.78l.36-1.41c0,.09-.33.11-.35.2l-.34,1.34c-.57.21-1.13.41-1.71.59.13-.43.25-.86.38-1.29,0,.09-.33.11-.36.2l-.34,1.19-1.11.32c.11-.4.22-.79.32-1.18,0,.09-.32.1-.35.2-.09.36-.19.71-.29,1.07-.46.12-.92.23-1.39.33l.36-1.49c0,.08-.33.11-.35.2l-.33,1.36-1.36.25a14.11,14.11,0,0,1,.54-2c0,.1-.31.1-.35.2a12.45,12.45,0,0,0-.51,1.88c-.51.08-1,.16-1.53.21,0,0,.08,0,.09-.07.17-.74.35-1.48.53-2.21,0,.08-.33.11-.35.2l-.51,2.11c-.47,0-.93.09-1.4.12.16-.71.34-1.42.57-2.12,0,.1-.32.11-.35.21-.21.63-.38,1.28-.53,1.93l-1.28.06a11.24,11.24,0,0,1,.45-2c0,.09-.32.1-.35.2a11.33,11.33,0,0,0-.42,1.79h-1.13c.12-.67.27-1.34.45-2,0,.09-.33.1-.35.2-.17.59-.3,1.18-.41,1.78-.87,0-1.74-.08-2.6-.16l.37-1.83c0,.08-.34.11-.36.2-.1.54-.21,1.07-.32,1.6-.44,0-.88-.09-1.31-.15a9,9,0,0,1,.27-1.78,34.06,34.06,0,0,0,6.62-.07v.14c0-.09,1-.18,1.16-.29a34.75,34.75,0,0,0,8-2.14l1.24-.53c.08,0,.13,0,.13,0v0a28.68,28.68,0,0,0,12.26-10.94.25.25,0,0,1,.17,0l-.13-.07a25.24,25.24,0,0,0,3.68-16.23,25.7,25.7,0,0,0-.63-3.26,14.72,14.72,0,0,1,1.91-1.79c.13.34.25.69.36,1a13.57,13.57,0,0,0-1.52,1.69c.07-.1.27-.11.35-.21a14.16,14.16,0,0,1,1.21-1.36l.24.83-1.58,1.8c.08-.1.26-.11.35-.21l1.28-1.44c.08.29.15.58.22.87-.44.54-.87,1.09-1.31,1.64.08-.1.27-.11.35-.21l1-1.25q.15.66.27,1.32L192,123.14c.07-.1.27-.1.35-.2l1-1.22c.07.39.12.78.17,1.17a.66.66,0,0,0-.25.13,7.15,7.15,0,0,0-1,1.47c0-.1.3-.1.35-.2a6.77,6.77,0,0,1,.87-1.35c.07.56.12,1.12.15,1.69l-1,1c.1-.09.26-.11.36-.2l.69-.69q0,.56,0,1.11c-.07.1-.27.1-.34.2a4.28,4.28,0,0,1-1,.94c.11-.08.24-.12.35-.2a4,4,0,0,0,1-.94c0,.47,0,.94,0,1.41-.09.07-.23.09-.31.17a6.92,6.92,0,0,0-1,1.25c.06-.1.29-.1.35-.2a6.88,6.88,0,0,1,.94-1.21c0,.44,0,.88-.08,1.32a.27.27,0,0,0-.16.09,4.57,4.57,0,0,1-1,1.5c.09-.1.26-.12.35-.21a4.62,4.62,0,0,0,.8-1A27.15,27.15,0,0,1,184.71,146.26Z"/><path class="cls-1" d="M25.43,101.06c-.1.09-.26.11-.36.21l-1,1c.09-.1.25-.11.35-.21Z"/><path class="cls-1" d="M27.38,100.37c-.1.09-.26.12-.35.21A12.6,12.6,0,0,0,25.65,102c.08-.1.27-.11.35-.21A13.47,13.47,0,0,1,27.38,100.37Z"/><path class="cls-1" d="M27.32,101.45a13.92,13.92,0,0,1,1.44-1.33c-.1.08-.25.12-.35.2A15.12,15.12,0,0,0,27,101.65C27.06,101.56,27.23,101.54,27.32,101.45Z"/><path class="cls-1" d="M59,106.08l.15-.09-.08.05Z"/><path class="cls-1" d="M160.82,152.59l-.33,1.69c0-.09.33-.12.35-.21l.33-1.68C161.16,152.47,160.84,152.5,160.82,152.59Z"/><path class="cls-1" d="M155.59,99.89s-.15.09-.18.1-.16.07-.18.11a2.53,2.53,0,0,1-.52,1c.08-.1.26-.11.35-.21A2.62,2.62,0,0,0,155.59,99.89Z"/><path class="cls-1" d="M167.38,100.52c.09-.1.27-.11.36-.2.24-.29.49-.57.73-.85-.08.1-.26.11-.35.2C167.88,100,167.63,100.24,167.38,100.52Z"/><path class="cls-1" d="M177.52,103.16c.08-.1.27-.11.35-.2l.64-.74c-.08.09-.27.1-.35.2Z"/></svg>